<?xml version="1.0" encoding="utf-8"?>
<!-- Generator: Adobe Illustrator 21.1.0, SVG Export Plug-In . SVG Version: 6.00 Build 0)  -->
<svg version="1.1" id="Layer_1" xmlns="http://www.w3.org/2000/svg" xmlns:xlink="http://www.w3.org/1999/xlink" x="0px" y="0px"
	 viewBox="0 0 104.4 92.2" style="enable-background:new 0 0 104.4 92.2;" xml:space="preserve">
<style type="text/css">
	.st0{fill:#F1F2F2;}
</style>
<g>
	<path class="st0" d="M94.1,33.2c0.7-2,1-4,1-6.1c0-10.9-8.9-19.8-19.8-19.8c-2.8,0-5.6,0.7-8.1,1.8C62,3.8,54.7,0.8,47.3,0.8
		C35.5,0.8,25.1,8.2,21,19.2c-6.8,1.5-11.5,7.4-11.7,14.5C4.3,36.2,1,41.3,1,46.9c0,8.2,6.6,14.8,14.8,14.8h3.3v-3.3h-3.3
		c-6.4,0-11.5-5.1-11.5-11.5c0-8.6,8.2-11.2,8.2-11.2c-0.7-6.8,3.8-12.8,10.9-13.5c0,0,4.4-17.5,23.9-18.1
		c11.2-0.3,19.1,9.1,19.1,9.1s4.8-2.5,8.9-2.5c9.1,0.2,16.6,7.4,16.5,16.5c0,4.6-2,8.2-2,8.2S100,37.2,100,46.9
		c0,6.4-5.1,11.5-11.5,11.5h-3.3v3.3h3.3c8.2,0,14.8-6.6,14.8-14.8C103.3,40.8,99.7,35.5,94.1,33.2L94.1,33.2z M94.1,33.2"/>
	<path class="st0" d="M83.6,84.8V42H21v42.8h16.5v3.3h-3.3v3.3h36.2v-3.3h-3.3v-3.3H83.6z M24.3,45.3h56v29.7h-56V45.3z M63.8,88.1
		H40.7v-3.3h23.1V88.1z M24.3,81.5v-3.3h56v3.3H24.3z M24.3,81.5"/>
	<path class="st0" d="M68.9,48.6c-2.8,0-4.9,2.1-4.9,4.9c0,0.8,0.2,1.5,0.5,2.1l-7.2,7.2l-9.7-8.1l-9.2,7.7
		c-0.8-0.7-1.6-0.8-2.5-0.8c-2.8,0-4.9,2.1-4.9,4.9c0,2.8,2.1,4.9,4.9,4.9c2.8,0,4.9-2.1,4.9-4.9c0-0.7-0.2-1.3-0.3-2l6.9-5.8
		l10,8.4l9.4-9.4c0.7,0.3,1.3,0.5,2.1,0.5c2.8,0,4.9-2.1,4.9-4.9C73.8,50.7,71.7,48.6,68.9,48.6L68.9,48.6z M35.8,68.3
		c-1,0-1.6-0.7-1.6-1.6c0-1,0.7-1.6,1.6-1.6c1,0,1.6,0.7,1.6,1.6C37.4,67.7,36.8,68.3,35.8,68.3L35.8,68.3z M68.7,55.2
		c-1,0-1.6-0.7-1.6-1.6c0-1,0.7-1.6,1.6-1.6c1,0,1.6,0.7,1.6,1.6C70.4,54.5,69.7,55.2,68.7,55.2L68.7,55.2z M68.7,55.2"/>
</g>
</svg>
