<?xml version="1.0" encoding="utf-8"?>
<!-- Generator: Adobe Illustrator 21.1.0, SVG Export Plug-In . SVG Version: 6.00 Build 0)  -->
<svg version="1.1" id="Layer_1" xmlns="http://www.w3.org/2000/svg" xmlns:xlink="http://www.w3.org/1999/xlink" x="0px" y="0px"
	 viewBox="0 0 104.4 92.2" style="enable-background:new 0 0 104.4 92.2;" xml:space="preserve">
<style type="text/css">
	.st0{fill:#F2F2F2;}
</style>
<g>
	<path class="st0" d="M88.7,28.2C87.7,12.5,74.8,0,59.3,0C49.8,0,40.7,4.6,35,12.2c-0.1-0.1-0.3-0.1-0.4-0.2c-0.3-0.2-0.7-0.3-1-0.5
		c-0.2-0.1-0.4-0.2-0.6-0.2c-0.3-0.1-0.7-0.2-1-0.3c-0.2-0.1-0.4-0.1-0.6-0.2c-0.4-0.1-0.8-0.2-1.2-0.2c-0.2,0-0.4-0.1-0.6-0.1
		c-0.6-0.1-1.2-0.1-1.7-0.1c-8.6,0-15.7,7-15.7,15.7c0,0.2,0,0.4,0,0.7C5,30.7,0,39,0,47.2c0,12.3,10,22.3,22.3,22.3h9
		c1,0,1.7-0.8,1.7-1.7c0-1-0.8-1.7-1.7-1.7h-9c-10.4,0-18.9-8.5-18.9-18.9c0-7.2,4.7-14.7,11.2-17.8l1-0.5v-1.1c0-0.2,0-0.4,0-0.7
		l0-0.3l0-0.3c0-0.1,0-0.3,0-0.4c0-6.7,5.5-12.2,12.2-12.2c0.5,0,1.1,0.1,1.6,0.1c0.1,0,0.3,0,0.4,0.1c0.5,0.1,0.9,0.2,1.4,0.3
		c0.1,0,0.1,0,0.2,0.1c0.5,0.2,1,0.3,1.5,0.6c0.1,0.1,0.2,0.1,0.4,0.2c0.4,0.2,0.8,0.4,1.2,0.7C37.8,18,40,21.8,40,26.1
		c0,1,0.8,1.7,1.7,1.7c1,0,1.7-0.8,1.7-1.7c0-4.8-2.2-9.1-5.6-11.9c5-6.5,13.2-10.7,21.4-10.7c13.5,0,24.7,10.7,25.8,24.2
		c-1.8-0.1-4.4-0.2-7.1,0.2c-1,0.1-1.6,1-1.5,2c0.1,0.9,0.9,1.5,1.7,1.5c0.1,0,0.2,0,0.3,0c3.9-0.6,7.9,0,8.1,0
		c8.1,1.5,14.2,9,14.2,17.4c0,9.6-7.8,17.4-17.4,17.4h-6.9c-1,0-1.7,0.8-1.7,1.7c0,1,0.8,1.7,1.7,1.7h6.9c11.5,0,20.9-9.4,20.9-20.9
		C104.4,39.1,97.7,30.5,88.7,28.2L88.7,28.2z M88.7,28.2"/>
	<path class="st0" d="M66.6,53.4c0.3,0.3,0.8,0.5,1.2,0.5c0.4,0,0.9-0.2,1.2-0.5c0.7-0.7,0.7-1.8,0-2.5L55.2,37
		c-0.2-0.2-0.4-0.3-0.6-0.4c-0.4-0.2-0.9-0.2-1.3,0c-0.2,0.1-0.4,0.2-0.6,0.4L38.8,50.9c-0.7,0.7-0.7,1.8,0,2.5
		c0.3,0.3,0.8,0.5,1.2,0.5c0.5,0,0.9-0.2,1.2-0.5l10.9-10.9v43.8L41.2,75.3c-0.7-0.7-1.8-0.7-2.5,0c-0.7,0.7-0.7,1.8,0,2.5
		l13.9,13.9c0.2,0.2,0.4,0.3,0.6,0.4c0.2,0.1,0.4,0.1,0.7,0.1c0.2,0,0.4,0,0.7-0.1c0.2-0.1,0.4-0.2,0.6-0.4l13.9-13.9
		c0.7-0.7,0.7-1.8,0-2.5c-0.7-0.7-1.8-0.7-2.5,0L55.7,86.2V42.5L66.6,53.4z M66.6,53.4"/>
</g>
</svg>
