<?xml version="1.0" encoding="utf-8"?>
<!-- Generator: Adobe Illustrator 21.1.0, SVG Export Plug-In . SVG Version: 6.00 Build 0)  -->
<svg version="1.1" id="Layer_1" xmlns="http://www.w3.org/2000/svg" xmlns:xlink="http://www.w3.org/1999/xlink" x="0px" y="0px"
	 viewBox="0 0 104.4 92.2" style="enable-background:new 0 0 104.4 92.2;" xml:space="preserve">
<style type="text/css">
	.st0{fill:#F1F2F2;}
</style>
<g>
	<path class="st0" d="M14.8,41.6c-0.9,0-1.5,0.6-1.5,1.5v4.5c0,0.9,0.6,1.5,1.5,1.5c0.9,0,1.5-0.6,1.5-1.5v-4.5
		C16.3,42.2,15.7,41.6,14.8,41.6L14.8,41.6z M14.8,41.6"/>
	<path class="st0" d="M37.7,77.7l-4-1.9c-0.7-0.3-1.6,0-1.9,0.7c-0.3,0.7,0,1.6,0.7,1.9l4,1.9c0.1,0.1,0.4,0.1,0.6,0.1
		c0.4,0,1-0.3,1.3-0.9C38.7,78.9,38.4,78,37.7,77.7L37.7,77.7z M37.7,77.7"/>
	<path class="st0" d="M26.8,72.7l-4.7-2.2c0.2-0.6,0.2-1.3,0.2-1.9c0-1.4-0.4-2.7-1-3.8l2.7-1.8c0.7-0.4,0.9-1.3,0.4-2.1
		c-0.4-0.7-1.3-0.9-2.1-0.4l-3.1,2.1c-0.8-0.6-1.8-1-2.9-1.2v-7.6c0-0.9-0.6-1.5-1.5-1.5c-0.9,0-1.5,0.6-1.5,1.5v7.6
		c-3.4,0.7-6,3.7-6,7.3c0,4.2,3.3,7.5,7.5,7.5c2.4,0,4.6-1.1,5.9-2.9l4.8,2.3c0.1,0.1,0.4,0.1,0.6,0.1c0.6,0,1.2-0.3,1.3-0.9
		C27.8,73.9,27.5,73,26.8,72.7L26.8,72.7z M14.8,73c-2.5,0-4.5-1.9-4.5-4.5c0-2.5,1.9-4.5,4.5-4.5c2.5,0,4.5,1.9,4.5,4.5
		C19.3,71,17.4,73,14.8,73L14.8,73z M14.8,73"/>
	<path class="st0" d="M89.5,47.6c-0.9,0-1.5,0.6-1.5,1.5v4.5c0,0.9,0.6,1.5,1.5,1.5c0.9,0,1.5-0.6,1.5-1.5v-4.5
		C91,48.2,90.4,47.6,89.5,47.6L89.5,47.6z M89.5,47.6"/>
	<path class="st0" d="M91,38.6c0-0.9-0.6-1.5-1.5-1.5c-0.9,0-1.5,0.6-1.5,1.5v4.5c0,0.9,0.6,1.5,1.5,1.5c0.9,0,1.5-0.6,1.5-1.5V38.6
		z M91,38.6"/>
	<path class="st0" d="M13.4,29.5v4.6c0,0.9,0.6,1.5,1.5,1.5c0.9,0,1.5-0.6,1.5-1.5v-4.6c1.8-0.4,3.3-1.3,4.4-2.7l3.1,2
		c0.1,0.3,0.4,0.3,0.7,0.3c0.6,0,1-0.3,1.3-0.7c0.4-0.7,0.3-1.6-0.4-2.1l-3.4-2.2c0.2-0.6,0.2-1.2,0.2-1.9c0-1.2-0.3-2.2-0.7-3.2
		l5.3-2.2c0.7-0.3,1-1.2,0.7-1.9c-0.3-0.7-1.2-1-1.9-0.7l-5.5,2.2c-0.1,0.1-0.3,0.1-0.4,0.2c-1.3-1.2-3.1-1.9-5-1.9
		c-4.2,0-7.5,3.3-7.5,7.5C7.4,25.9,9.9,28.8,13.4,29.5L13.4,29.5z M14.8,17.7c2.5,0,4.5,1.9,4.5,4.5c0,2.5-1.9,4.5-4.5,4.5
		c-2.5,0-4.5-1.9-4.5-4.5C10.4,19.7,12.3,17.7,14.8,17.7L14.8,17.7z M14.8,17.7"/>
	<path class="st0" d="M91,61.2V58c0-0.9-0.6-1.5-1.5-1.5c-0.9,0-1.5,0.6-1.5,1.5v3.1c-1.7,0.3-3.2,1.2-4.2,2.5l-1.3-1.3
		c-0.6-0.6-1.5-0.6-2.1,0c-0.6,0.6-0.6,1.5,0,2.1l1.9,1.9c-0.2,0.7-0.3,1.4-0.3,2.1c0,0.7,0.1,1.3,0.2,1.9l-4.7,2.2
		c-0.7,0.3-1,1.2-0.7,1.9c0.3,0.6,0.7,0.9,1.3,0.9c0.1,0,0.4,0,0.6-0.1l4.8-2.3c1.4,1.8,3.5,2.9,5.9,2.9c4.2,0,7.5-3.3,7.5-7.5
		C97,64.8,94.5,61.8,91,61.2L91,61.2z M89.5,73C87,73,85,71,85,68.5C85,66,87,64,89.5,64c2.5,0,4.5,1.9,4.5,4.5
		C94,71,92.1,73,89.5,73L89.5,73z M89.5,73"/>
	<path class="st0" d="M36.1,62.5h33.2c2.6,0,5-0.9,6.9-2.3l1.1,1.1c0.3,0.3,0.6,0.4,1,0.4c0.3,0,0.7-0.1,1-0.4
		c0.6-0.6,0.6-1.5,0-2.1l-1.2-1.2c1.5-2,2.3-4.4,2.2-7.2c0-5.5-3.3-10.2-8.1-11.6c-0.2-1.9-0.6-3.7-1.3-5.3l4.2-2.3
		c0.7-0.4,1-1.3,0.6-2.1c-0.4-0.7-1.3-1-2.1-0.6l-4.2,2.3c-3-4.4-7.9-7.4-13.6-7.4c-5.1,0-10.2,2.5-13.3,6.6c-0.3-0.1-0.6-0.2-1-0.3
		c-0.9-0.3-1.9-0.5-2.9-0.5c-2,0-3.8,0.6-5.2,1.6l-3-1.9c-0.7-0.4-1.6-0.3-2.1,0.4c-0.4,0.7-0.3,1.6,0.4,2.1l2.5,1.5
		c-0.9,1.4-1.4,3-1.4,4.9c0,0,0,0,0,0.1c0,0,0,0.1,0,0.1c-3.7,2.2-6.1,6.4-6.1,11.1c0,3.1,1.1,6,2.8,8.3c-0.1,0.4-0.1,0.9,0.2,1.3
		c0.3,0.3,0.7,0.6,1.2,0.6c0.1,0,0.3,0,0.4,0C30.5,61.4,33.2,62.5,36.1,62.5L36.1,62.5z M32,40.7l0.9-0.4v-1.9
		c0-3.3,2.4-5.7,5.8-5.7c3.3,0,6,2.7,6,6c0,0.9,0.6,1.5,1.5,1.5c0.9,0,1.5-0.6,1.5-1.5c0-2.7-1.1-5-2.8-6.6
		c2.6-3.4,6.9-5.5,11.1-5.5c7.5,0,13.4,6.1,13.6,13.6v1.2l1.2,0.3c4,0.7,6.9,4.6,6.9,9.1c0,2.3-0.8,4.4-2.1,5.9
		c-0.2,0.1-0.3,0.2-0.5,0.3c-0.2,0.2-0.3,0.3-0.3,0.5c-1.4,1.3-3.3,2-5.5,2H36.1c-5.1,0-9.3-4.5-9.3-10C26.8,45.6,28.7,42.2,32,40.7
		L32,40.7z M32,40.7"/>
	<path class="st0" d="M61.3,80.3l-2,0.9c-0.9-3.1-3.7-5.3-7.1-5.3c-3.4,0-6.2,2.2-7.1,5.3l-2-0.9c-0.7-0.3-1.6,0-1.9,0.7
		c-0.3,0.7,0,1.6,0.7,1.9l2.9,1.4c0.5,3.7,3.5,6.5,7.4,6.5c3.9,0,7-2.8,7.4-6.5l2.9-1.4c0.7-0.3,1-1.2,0.7-1.9
		C62.9,80.3,62,80,61.3,80.3L61.3,80.3z M52.2,87.9c-2.5,0-4.5-1.9-4.5-4.5c0-2.5,1.9-4.5,4.5-4.5c2.5,0,4.5,1.9,4.5,4.5
		C56.7,86,54.7,87.9,52.2,87.9L52.2,87.9z M52.2,87.9"/>
	<path class="st0" d="M70.7,75.8l-4,1.9c-0.7,0.3-1,1.2-0.7,1.9c0.3,0.6,0.7,0.9,1.3,0.9c0.3,0,0.4,0,0.7-0.1l3.9-1.9
		c0.7-0.3,1-1.2,0.7-1.9C72.3,75.8,71.4,75.5,70.7,75.8L70.7,75.8z M70.7,75.8"/>
	<path class="st0" d="M66.4,12.3l4.2,1.6c0.1,0.1,0.4,0.1,0.6,0.1c0.6,0,1-0.4,1.3-0.9c0.4-0.7,0-1.6-0.7-1.9l-4.2-1.6
		c-0.7-0.4-1.6,0-1.9,0.7C65.3,11.1,65.6,11.9,66.4,12.3L66.4,12.3z M66.4,12.3"/>
	<path class="st0" d="M77.4,16.8l5.3,2.2C82.3,20,82,21,82,22.2c0,0.7,0.1,1.3,0.2,1.9l-3.4,2c-0.7,0.4-1,1.3-0.6,2.1
		c0.3,0.4,0.7,0.7,1.3,0.7c0.1,0,0.4-0.1,0.7-0.1l3.3-1.9c1.1,1.3,2.6,2.3,4.4,2.6v4.6c0,0.9,0.6,1.5,1.5,1.5c0.9,0,1.5-0.6,1.5-1.5
		v-4.6c3.4-0.7,6-3.7,6-7.3c0-4.2-3.3-7.5-7.5-7.5c-1.9,0-3.7,0.7-5,1.9c-0.1-0.1-0.2-0.2-0.4-0.2l-5.5-2.2c-0.7-0.4-1.6,0-1.9,0.7
		C76.2,15.6,76.7,16.5,77.4,16.8L77.4,16.8z M89.5,17.7c2.5,0,4.5,1.9,4.5,4.5c0,2.5-1.9,4.5-4.5,4.5c-2.5,0-4.5-1.9-4.5-4.5
		C85,19.7,87,17.7,89.5,17.7L89.5,17.7z M89.5,17.7"/>
	<path class="st0" d="M33.2,14.1c0.1,0,0.4-0.1,0.6-0.1l4.2-1.6c0.7-0.3,1-1.2,0.7-1.9c-0.3-0.7-1.2-1-1.9-0.7l-4.2,1.6
		c-0.7,0.3-1,1.2-0.7,1.9C32,13.8,32.6,14.1,33.2,14.1L33.2,14.1z M33.2,14.1"/>
	<path class="st0" d="M42.9,10.1c0.1,0,0.4,0,0.6-0.1l1.2-0.5c0.3,3.8,3.5,6.8,7.4,6.8c3.9,0,7.1-2.9,7.4-6.8l1.2,0.5
		c0.1,0.1,0.4,0.1,0.6,0.1c0.6,0,1.2-0.3,1.3-0.9c0.4-0.7,0-1.6-0.7-1.9l-2.9-1.2c-1.1-2.8-3.8-4.8-7-4.8c-3.2,0-5.9,2-7,4.8
		l-2.9,1.2c-0.7,0.3-1,1.2-0.7,1.9C41.7,9.8,42.3,10.1,42.9,10.1L42.9,10.1z M52.2,4.3c2.5,0,4.5,1.9,4.5,4.5c0,2.5-1.9,4.5-4.5,4.5
		c-2.5,0-4.5-1.9-4.5-4.5C47.7,6.2,49.6,4.3,52.2,4.3L52.2,4.3z M52.2,4.3"/>
</g>
</svg>
