<?xml version="1.0" encoding="utf-8"?>
<!-- Generator: Adobe Illustrator 21.1.0, SVG Export Plug-In . SVG Version: 6.00 Build 0)  -->
<svg version="1.1" id="Layer_1" xmlns="http://www.w3.org/2000/svg" xmlns:xlink="http://www.w3.org/1999/xlink" x="0px" y="0px"
	 viewBox="0 0 104.4 92.2" style="enable-background:new 0 0 104.4 92.2;" xml:space="preserve">
<style type="text/css">
	.st0{fill:#F2F2F2;}
	.st1{fill:#FFFFFF;}
</style>
<g>
	<path class="st0" d="M89,29.9C88,14.2,75.1,1.7,59.6,1.7c-9.5,0-18.6,4.6-24.3,12.2c-0.1-0.1-0.3-0.1-0.4-0.2
		c-0.3-0.2-0.7-0.3-1-0.5c-0.2-0.1-0.4-0.2-0.6-0.2c-0.3-0.1-0.7-0.2-1-0.3c-0.2-0.1-0.4-0.1-0.6-0.2c-0.4-0.1-0.8-0.2-1.2-0.2
		c-0.2,0-0.4-0.1-0.6-0.1c-0.6-0.1-1.2-0.1-1.7-0.1c-8.6,0-15.7,7-15.7,15.7c0,0.2,0,0.4,0,0.7C5.3,32.4,0.3,40.7,0.3,48.9
		c0,12.3,10,22.3,22.3,22.3h9c1,0,1.7-0.8,1.7-1.7c0-1-0.8-1.7-1.7-1.7h-9c-10.4,0-18.9-8.5-18.9-18.9c0-7.2,4.7-14.7,11.2-17.8
		l1-0.5v-1.1c0-0.2,0-0.4,0-0.7v-0.3v-0.3c0-0.1,0-0.3,0-0.4c0-6.7,5.5-12.2,12.2-12.2c0.5,0,1.1,0.1,1.6,0.1c0.1,0,0.3,0,0.4,0.1
		c0.5,0.1,0.9,0.2,1.4,0.3c0.1,0,0.1,0,0.2,0.1c0.5,0.2,1,0.3,1.5,0.6c0.1,0.1,0.2,0.1,0.4,0.2c0.4,0.2,0.8,0.4,1.2,0.7
		c3.3,2,5.5,5.8,5.5,10.1c0,1,0.8,1.7,1.7,1.7c1,0,1.7-0.8,1.7-1.7c0-4.8-2.2-9.1-5.6-11.9c5-6.5,13.2-10.7,21.4-10.7
		c13.5,0,24.7,10.7,25.8,24.2c-1.8-0.1-4.4-0.2-7.1,0.2c-1,0.1-1.6,1-1.5,2c0.1,0.9,0.9,1.5,1.7,1.5c0.1,0,0.2,0,0.3,0
		c3.9-0.6,7.9,0,8.1,0c8.1,1.5,14.2,9,14.2,17.4c0,9.6-7.8,17.4-17.4,17.4h-6.9c-1,0-1.7,0.8-1.7,1.7c0,1,0.8,1.7,1.7,1.7h6.9
		c11.5,0,20.9-9.4,20.9-20.9C104.7,40.8,98,32.2,89,29.9L89,29.9z"/>
</g>
<path class="st1" d="M69,65.4c-0.9,0-1.6,0.7-1.6,1.6c0,7.8-6.4,14.2-14.2,14.2S39,74.8,39,67c0-7.8,6.4-14.2,14.2-14.2
	c4.7,0,9,2.4,11.5,6.3h-10c-0.9,0-1.6,0.7-1.6,1.6c0,0.9,0.7,1.6,1.6,1.6h12.6h0c0.1,0,0.2,0,0.3-0.1c0.1,0,0.2,0,0.3-0.1
	c0,0,0,0,0,0c0.1,0,0.1-0.1,0.1-0.1c0.1-0.1,0.3-0.1,0.4-0.2c0.1-0.1,0.1-0.2,0.2-0.2c0.1-0.1,0.1-0.2,0.2-0.3
	c0.1-0.1,0.1-0.3,0.1-0.4c0-0.1,0-0.1,0-0.2V48c0-0.9-0.7-1.6-1.6-1.6s-1.6,0.7-1.6,1.6v7.3c-3.2-3.6-7.7-5.7-12.6-5.7
	c-9.6,0-17.4,7.8-17.4,17.4c0,9.6,7.8,17.4,17.4,17.4c9.6,0,17.4-7.8,17.4-17.4C70.6,66.1,69.8,65.4,69,65.4L69,65.4z M69,65.4"/>
</svg>
