<?xml version="1.0" encoding="utf-8"?>
<!-- Generator: Adobe Illustrator 21.0.0, SVG Export Plug-In . SVG Version: 6.00 Build 0)  -->
<svg version="1.1" id="Layer_3" xmlns="http://www.w3.org/2000/svg" xmlns:xlink="http://www.w3.org/1999/xlink" x="0px" y="0px"
	 width="200px" height="150px" viewBox="0 0 200 150" style="enable-background:new 0 0 200 150;" xml:space="preserve">
<style type="text/css">
	.st0{fill:#1B2328;}
	.st1{opacity:0.2;fill:#FFFFFF;enable-background:new    ;}
	.st2{opacity:0.25;fill:#231E1F;enable-background:new    ;}
	.st3{fill:#D3DAE2;}
	.st4{opacity:0.1;fill:#231E1F;enable-background:new    ;}
	.st5{opacity:5.000000e-02;fill:#231E1F;enable-background:new    ;}
	.st6{opacity:0.15;fill:#FFFFFF;enable-background:new    ;}
	.st7{opacity:0.1;fill:#FFFFFF;enable-background:new    ;}
	.st8{fill:#F1F3ED;}
	.st9{fill:#FFFFFF;}
	.st10{opacity:0.8;fill:#FFFFFF;enable-background:new    ;}
	.st11{fill:#172732;}
</style>
<g>
	<g>
		<g>
			<g>
				<g>
					<g>
						<g>
							<g>
								<path class="st0" d="M158.1,71.8c0-4.3-3.5-7.8-7.8-7.8H49.7c-4.3,0-7.8,3.5-7.8,7.8V139h116.4L158.1,71.8z M49.7,70.8
									h100.6V129H49.7V70.8z"/>
								<circle class="st1" cx="100" cy="133.9" r="2.5"/>
								<circle class="st2" cx="100" cy="67" r="1.2"/>
								<rect x="46.5" y="68.9" class="st3" width="106.9" height="61.9"/>
							</g>
							<rect x="46.5" y="68.7" class="st4" width="106.9" height="1"/>
							<rect x="46.5" y="130.1" class="st5" width="106.9" height="1"/>
						</g>
					</g>
					<path class="st6" d="M46.5,130.8V68.9h33l2.4-5H49.7c-4.3,0-7.8,3.5-7.8,7.8v67.2h4.5l3.9-8.2h-3.8V130.8z"/>
				</g>
			</g>
		</g>
		<path class="st0" d="M173,144.4c-0.5,2-2.7,3.7-4.8,3.7H31.8c-2.1,0-4.3-1.7-4.8-3.7l-1.1-4.1c-0.5-2,0.7-3.7,2.8-3.7h142.6
			c2.1,0,3.4,1.7,2.8,3.7L173,144.4z"/>
	</g>
	<g>
		<rect x="97" y="66.6" transform="matrix(0.952 -0.306 0.306 0.952 -21.5425 35.7724)" class="st0" width="12.7" height="40"/>
		<rect x="97.2" y="67.8" transform="matrix(0.952 -0.3062 0.3062 0.952 -22.0819 34.7886)" class="st7" width="5.3" height="40"/>
		<path class="st8" d="M82.8,59.2c0.5,1.4-0.3,2.9-1.7,3.4l-6.8,2.2c-1.4,0.5-2.9-0.3-3.4-1.7l-1.9-6c-0.5-1.4,0.3-2.9,1.7-3.4
			l6.8-2.2c1.4-0.5,2.9,0.3,3.4,1.7L82.8,59.2z"/>
		<path class="st9" d="M106.1,68.4c0.1,0.3-0.1,0.6-0.4,0.7l-14.5,4.7c-0.3,0.1-0.6-0.1-0.7-0.4l-0.6-1.9c-0.1-0.3,0.1-0.6,0.4-0.7
			l14.5-4.7c0.3-0.1,0.6,0.1,0.7,0.4L106.1,68.4z"/>
		<path class="st3" d="M126.2,7.4c0,0-12,19.7-25.1,23.8c-7,2.2-5.8,1.9-5.8,1.9L106,66.5c0,0,0.7-0.2,5.2-1.7
			c14.5-4.7,35.4,6,35.4,6s-7.8-15.4-13-31.6C128.3,23,126.2,7.4,126.2,7.4z"/>
		<path class="st0" d="M81.1,37.6C73.7,40,69.7,47.9,72,55.3l2.1,6.7c2.4,7.4,10.3,11.4,17.6,9.1l14.4-4.6L95.5,33L81.1,37.6z"/>
		<path class="st3" d="M141.9,36.5c-1.4-4.5-6.1-7-10.6-5.8c1.2,5.7,2.7,11.4,5.1,16.8C140.9,46,143.4,41.1,141.9,36.5z"/>
		<path class="st7" d="M99.2,44.4L95.5,33l0,0c-0.1,0-0.2,0.1-0.2,0.1h-0.1l-14.1,4.5c-6.7,2.2-10.7,8.9-9.5,15.6c0,0.1,0,0.1,0,0.2
			l-0.9,0.3c-1.4,0.5-2.2,2-1.7,3.4l1.1,3.3l31.1-10L99.2,44.4z"/>
		<path class="st10" d="M133.5,39.2c-0.6-1.8-1.1-3.6-1.6-5.3c-4-14.1-5.7-26.5-5.7-26.5s-12,19.7-25.1,23.8c-3.6,1.2-5,1.6-5.6,1.8
			l3.7,11.4l1.9,6l32.6-10.5C133.7,39.7,133.6,39.4,133.5,39.2z"/>
		<path class="st0" d="M129.3,15.9c0.4,0.8,0.8,1.7,1.2,2.7c2.4,5.5,5,12.5,7.4,20c2.4,7.4,4.4,14.7,5.6,20.5c0.2,1.1,0.4,2,0.6,2.9
			c-0.4-0.8-0.8-1.7-1.2-2.7c-2.4-5.5-5-12.5-7.4-20c-2.4-7.4-4.4-14.7-5.6-20.5C129.7,17.7,129.5,16.8,129.3,15.9 M126.8,7.1
			c-0.1,0-0.2,0-0.3,0c-2.1,0.7,0.8,15.4,6.5,33c5.4,16.7,11.3,29.9,13.6,30.6c0.1,0,0.2,0,0.3,0c2.1-0.7-0.8-15.4-6.5-33
			C135.1,21,129.2,7.8,126.8,7.1L126.8,7.1z"/>
		<path class="st8" d="M141.9,36.5c-1.1-3.6-4.4-5.9-7.9-6.1c1.9,5.2,3.5,10.4,5,15.7C141.8,43.9,143.1,40.1,141.9,36.5z"/>
		<path class="st7" d="M142,37.1L142,37.1c0-0.2-0.1-0.4-0.1-0.5c0-0.1-0.1-0.3-0.1-0.4v-0.1c0-0.1-0.1-0.2-0.1-0.3
			c0,0,0-0.1-0.1-0.1c0-0.1-0.1-0.2-0.1-0.2s0-0.1-0.1-0.1c-0.1-0.1-0.1-0.2-0.2-0.3l0,0c-0.1-0.1-0.1-0.2-0.2-0.3
			c0,0,0-0.1-0.1-0.1c0-0.1-0.1-0.1-0.1-0.2l-0.1-0.1c0-0.1-0.1-0.1-0.1-0.2l-0.1-0.1c-0.1-0.1-0.1-0.2-0.2-0.2l-0.1-0.1
			c-0.1-0.1-0.1-0.1-0.2-0.2l-0.1-0.1l-0.1-0.1l-0.1-0.1l-0.1-0.1l-0.1-0.1l-0.1-0.1c-0.1-0.1-0.2-0.2-0.3-0.3l-0.1-0.1
			c-0.1,0-0.1-0.1-0.2-0.1c0,0-0.1,0-0.1-0.1c-0.1,0-0.1-0.1-0.2-0.1c0,0-0.1,0-0.1-0.1c-0.3-0.2-0.5-0.3-0.8-0.4l0,0
			c-0.1,0-0.2-0.1-0.3-0.1c0,0,0,0-0.1,0s-0.2-0.1-0.3-0.1l0,0c-0.4-0.2-0.8-0.3-1.2-0.4l0,0c-1.4-0.3-2.9-0.4-4.3,0
			c0.6,3.1,1.4,6.2,2.3,9.2l8.5-2.7C142.1,37.2,142.1,37.1,142,37.1z"/>
		<path class="st0" d="M142.8,54.4c0.4,1.7,0.8,3.2,1.1,4.7c0.4,2.1,0.7,3.7,0.9,5.1c-0.6-1.2-1.3-2.7-2.2-4.7
			c-2.4-5.5-5-12.6-7.4-20.1s-4.4-14.8-5.7-20.7c-0.4-2.1-0.7-3.7-0.9-5.1c0.2,0.4,0.4,0.7,0.6,1.2c-0.1-1.4,0-2.7,0.6-3.9
			c-1.5-2.6-2.6-4-3.3-3.8c-2.1,0.7,0.8,15.4,6.5,33c5.6,17.6,11.9,31.2,14,30.6c1.3-0.4,0.7-6.3-1.3-14.8L142.8,54.4z"/>
	</g>
	<path class="st8" d="M82.4,100.6l11.3,6.7c1.6,0.6,7-3.7,8.6-4l9.3-1.9c1.6-0.3,2.7-1.9,2.4-3.5c-0.3-1.3-1.4-2.3-2.7-2.4l1.1-0.2
		c1.6-0.3,2.7-1.8,2.4-3.4c-0.2-1.2-1.2-2-2.4-2.2l0.5-0.1c1.6-0.3,2.7-1.8,2.4-3.3c-0.3-1.5-1.8-2.4-3.5-2.1l-0.9,0.2
		c1.6-0.3,2.7-1.8,2.4-3.3c-0.3-1.5-1.9-2.5-3.5-2.1l-12.4,3.2l-0.6-0.6c0,0,0.2-8.7-4.4-10.6c-4.8-2-2.8,5.7-2.7,10.2
		C89.9,85.7,82,99,82.4,100.6z M101.6,86.3L101.6,86.3L101.6,86.3L101.6,86.3z"/>
	<polygon class="st9" points="94.3,108.6 96.9,107.1 84.2,94.3 82.4,96.3 	"/>
	<polygon class="st11" points="46.5,121.7 46.5,130.8 68.3,130.8 95.8,110.2 81.6,95.3 	"/>
	<g>
		<path class="st3" d="M139.7,25.1c0,0,0.1,0,0.3,0.1c0.2,0,0.5,0.1,0.9,0.2c0.2,0.1,0.4,0.1,0.6,0.2c0.2,0.1,0.5,0.2,0.7,0.3
			c0.3,0.1,0.5,0.2,0.8,0.3c0.3,0.1,0.6,0.3,0.9,0.4c0.3,0.2,0.6,0.4,0.9,0.6c0.3,0.2,0.6,0.4,1,0.7c0.7,0.5,1.3,1.1,1.9,1.8
			c0.1,0.2,0.3,0.3,0.4,0.5c0.1,0.2,0.3,0.4,0.4,0.6c0.3,0.4,0.5,0.8,0.8,1.2c0.5,0.8,0.9,1.7,1.2,2.6l0.2,0.7
			c0.1,0.2,0.1,0.5,0.2,0.7c0.1,0.5,0.2,1,0.2,1.4c0,0.5,0.1,0.9,0.1,1.4c0,0.2,0,0.5,0,0.7s0,0.5-0.1,0.7c-0.1,0.9-0.3,1.7-0.5,2.5
			c-0.1,0.4-0.3,0.8-0.4,1.1c-0.1,0.4-0.3,0.7-0.4,1c-0.2,0.3-0.3,0.6-0.5,0.9c-0.2,0.3-0.3,0.5-0.5,0.8c-0.2,0.2-0.3,0.4-0.5,0.6
			c-0.1,0.2-0.3,0.4-0.4,0.5c-0.2,0.3-0.5,0.5-0.6,0.7c-0.2,0.2-0.2,0.2-0.2,0.2s0-0.1,0.1-0.3s0.2-0.5,0.3-0.9
			c0.1-0.2,0.1-0.4,0.2-0.6c0.1-0.2,0.2-0.5,0.2-0.7c0.1-0.3,0.2-0.5,0.3-0.8s0.2-0.6,0.2-0.9c0.1-0.3,0.1-0.6,0.2-1
			c0.1-0.3,0.1-0.7,0.2-1.1c0.1-0.7,0.1-1.5,0.2-2.3c0-0.8-0.1-1.6-0.2-2.4c-0.1-0.4-0.1-0.8-0.2-1.2c0-0.2-0.1-0.4-0.2-0.6
			l-0.2-0.6c-0.3-0.8-0.6-1.6-0.9-2.3c-0.4-0.7-0.8-1.4-1.3-2.1c-0.5-0.6-0.9-1.2-1.5-1.8c-0.2-0.3-0.5-0.5-0.8-0.8
			c-0.3-0.2-0.5-0.5-0.7-0.7c-0.3-0.2-0.5-0.4-0.7-0.6s-0.5-0.4-0.7-0.5c-0.2-0.2-0.4-0.3-0.6-0.4c-0.2-0.1-0.4-0.2-0.5-0.4
			C140.2,25.3,139.9,25.1,139.7,25.1C139.8,25.1,139.7,25.1,139.7,25.1z"/>
		<path class="st3" d="M137.6,18.5c0,0,0.2,0,0.6,0c0.2,0,0.4,0,0.7,0c0.1,0,0.3,0,0.4,0c0.1,0,0.3,0,0.5,0.1
			c0.3,0.1,0.7,0.1,1.1,0.2c0.4,0.1,0.8,0.2,1.3,0.3c0.2,0,0.5,0.1,0.7,0.2s0.5,0.1,0.7,0.2c0.3,0.1,0.5,0.2,0.8,0.3
			c0.3,0.1,0.5,0.2,0.8,0.3c0.3,0.1,0.5,0.2,0.8,0.4c0.3,0.1,0.6,0.3,0.8,0.4c0.3,0.2,0.6,0.3,0.8,0.5c0.1,0.1,0.3,0.2,0.4,0.2
			c0.1,0.1,0.3,0.2,0.4,0.3c0.3,0.2,0.6,0.4,0.9,0.6c0.3,0.2,0.6,0.4,0.8,0.6c0.1,0.1,0.3,0.2,0.4,0.3c0.1,0.1,0.3,0.2,0.4,0.4
			c0.3,0.2,0.6,0.5,0.8,0.8c0.5,0.5,1.1,1.1,1.5,1.7c0.5,0.6,0.9,1.3,1.4,1.9c0.4,0.7,0.8,1.4,1.1,2.1c0.2,0.4,0.3,0.7,0.5,1.1
			l0.4,1.2c0.4,1.4,0.8,3.1,0.9,4.7c0,0.8,0.1,1.6,0,2.3c0,0.8-0.1,1.5-0.2,2.3c-0.1,0.4-0.2,0.7-0.2,1.1c0,0.2-0.1,0.4-0.1,0.5
			c-0.1,0.2-0.1,0.3-0.2,0.5c-0.1,0.3-0.2,0.7-0.3,1s-0.2,0.6-0.4,1c-0.1,0.2-0.1,0.3-0.2,0.5c-0.1,0.2-0.1,0.3-0.2,0.5
			c-0.1,0.3-0.3,0.6-0.4,0.9c-0.1,0.3-0.3,0.6-0.5,0.8c-0.1,0.1-0.1,0.3-0.2,0.4c-0.1,0.1-0.1,0.3-0.2,0.4c-0.2,0.2-0.3,0.5-0.5,0.7
			s-0.3,0.5-0.5,0.7s-0.3,0.4-0.5,0.6c-0.2,0.2-0.3,0.4-0.5,0.6c-0.3,0.4-0.6,0.7-0.9,1c-0.3,0.3-0.6,0.5-0.8,0.8
			c-0.1,0.1-0.2,0.2-0.3,0.3s-0.2,0.2-0.3,0.3c-0.2,0.2-0.4,0.3-0.5,0.4c-0.3,0.2-0.4,0.3-0.4,0.3s0.1-0.2,0.3-0.4
			c0.1-0.1,0.2-0.3,0.4-0.5c0.1-0.1,0.2-0.2,0.3-0.3s0.2-0.2,0.3-0.4c0.2-0.3,0.4-0.6,0.6-0.9c0.2-0.3,0.4-0.7,0.7-1.1
			c0.2-0.4,0.5-0.8,0.7-1.3c0.1-0.2,0.2-0.5,0.4-0.7c0.1-0.2,0.2-0.5,0.4-0.7c0.1-0.2,0.2-0.5,0.3-0.8s0.2-0.5,0.3-0.8
			s0.2-0.6,0.3-0.9c0.1-0.1,0.1-0.3,0.2-0.4c0-0.1,0.1-0.3,0.1-0.5c0.1-0.3,0.2-0.6,0.3-0.9c0.1-0.3,0.1-0.6,0.2-1
			c0-0.2,0.1-0.3,0.1-0.5s0-0.3,0.1-0.5c0-0.3,0.1-0.7,0.1-1c0.1-1.4,0.2-2.8,0-4.2s-0.4-2.7-0.9-4.2c0,0.1,0,0,0,0l0,0l0,0v-0.1V33
			l-0.1-0.3l-0.2-0.5c-0.1-0.3-0.3-0.7-0.4-1c-0.3-0.7-0.6-1.3-1-1.9c-0.7-1.2-1.6-2.3-2.5-3.4c-0.2-0.3-0.5-0.5-0.7-0.7
			c-0.1-0.1-0.2-0.2-0.3-0.4c-0.1-0.1-0.2-0.2-0.4-0.3c-0.2-0.2-0.5-0.4-0.7-0.7c-0.3-0.2-0.5-0.4-0.7-0.6c-0.1-0.1-0.2-0.2-0.4-0.3
			c-0.1-0.1-0.3-0.2-0.4-0.3c-0.3-0.2-0.5-0.3-0.7-0.5c-0.3-0.2-0.5-0.3-0.7-0.5c-0.2-0.1-0.5-0.3-0.7-0.4s-0.5-0.3-0.7-0.4
			s-0.5-0.3-0.7-0.4c-0.5-0.2-0.9-0.4-1.3-0.6c-0.4-0.2-0.8-0.3-1.2-0.5c-0.4-0.1-0.7-0.2-1-0.4c-0.2-0.1-0.3-0.1-0.4-0.2
			c-0.1,0-0.3-0.1-0.4-0.1c-0.2-0.1-0.5-0.1-0.6-0.2C137.8,18.5,137.6,18.5,137.6,18.5z"/>
		<path class="st3" d="M135.6,12.3c0,0,0.3,0,0.8,0c0.3,0,0.6,0,0.9,0c0.2,0,0.4,0,0.6,0c0.2,0,0.4,0,0.7,0c0.5,0,1,0.1,1.6,0.1
			c0.6,0.1,1.2,0.2,1.8,0.3c1.3,0.2,2.8,0.6,4.3,1.1c0.8,0.3,1.6,0.6,2.4,0.9c0.8,0.4,1.6,0.8,2.5,1.2c1.7,0.9,3.3,2.1,4.9,3.5
			c1.5,1.4,3,3,4.2,4.9c0.6,0.9,1.2,1.9,1.6,2.9c0.5,1,0.9,2.1,1.3,3.1l0,0v0.1v0.1l0.1,0.2l0.1,0.4c0,0.1,0.1,0.3,0.1,0.4l0.1,0.4
			c0.1,0.6,0.3,1.1,0.4,1.7c0.2,1.1,0.3,2.2,0.4,3.3c0,1.1,0,2.2-0.1,3.3s-0.2,2.1-0.5,3.2c-0.4,2-1.1,4-1.9,5.7
			c-0.4,0.9-0.8,1.7-1.3,2.5s-0.9,1.5-1.4,2.2c-1,1.3-1.9,2.5-2.9,3.4c-0.5,0.5-0.9,0.9-1.3,1.3c-0.4,0.4-0.8,0.7-1.2,1
			c-0.2,0.1-0.4,0.3-0.5,0.4c-0.2,0.1-0.3,0.2-0.5,0.4c-0.3,0.2-0.5,0.4-0.8,0.5c-0.4,0.3-0.6,0.4-0.6,0.4s0.2-0.2,0.6-0.5
			c0.2-0.2,0.4-0.4,0.7-0.7c0.1-0.1,0.3-0.3,0.4-0.4c0.1-0.2,0.3-0.3,0.5-0.5c0.3-0.3,0.7-0.7,1-1.2c0.4-0.4,0.8-0.9,1.1-1.4
			c0.8-1,1.6-2.2,2.4-3.6c0.8-1.4,1.6-2.9,2.2-4.6c0.7-1.7,1.2-3.5,1.5-5.4c0.2-1,0.3-1.9,0.3-2.9s0-2,0-3c-0.1-1-0.2-2-0.4-3
			c-0.1-0.5-0.2-1-0.3-1.5l-0.1-0.4c0-0.1-0.1-0.3-0.1-0.4l-0.1-0.4l-0.1-0.2V31v-0.1c-0.3-1-0.7-1.9-1.1-2.9
			c-0.4-0.9-0.9-1.8-1.5-2.7c-0.5-0.9-1.1-1.7-1.8-2.4c-0.6-0.8-1.3-1.5-2-2.2s-1.4-1.3-2.1-1.9c-0.7-0.6-1.5-1.1-2.2-1.6
			c-1.5-1-3-1.8-4.5-2.4c-1.4-0.6-2.8-1.1-4.1-1.5c-0.6-0.2-1.2-0.3-1.8-0.5c-0.5-0.1-1.1-0.2-1.5-0.3c-0.2,0-0.4-0.1-0.7-0.1
			c-0.2,0-0.4-0.1-0.6-0.1c-0.4-0.1-0.7-0.1-0.9-0.1C135.9,12.3,135.6,12.3,135.6,12.3z"/>
	</g>
</g>
</svg>
