<?xml version="1.0" encoding="utf-8"?>
<!-- Generator: Adobe Illustrator 21.0.0, SVG Export Plug-In . SVG Version: 6.00 Build 0)  -->
<svg version="1.1" id="Layer_3" xmlns="http://www.w3.org/2000/svg" xmlns:xlink="http://www.w3.org/1999/xlink" x="0px" y="0px"
	 width="200px" height="150px" viewBox="0 0 200 150" style="enable-background:new 0 0 200 150;" xml:space="preserve">
<style type="text/css">
	.st0{fill:#1B2328;}
	.st1{clip-path:url(#SVGID_2_);fill:#3B464C;}
	.st2{clip-path:url(#SVGID_4_);fill:#1B2328;}
	.st3{fill:#2A3235;}
	.st4{fill:#3B464C;}
</style>
<g>
	<path class="st0" d="M23.4,104.9h-4.5c-0.2,17.3-3,24-3,24l16.5,3C32.4,131.9,23.4,120.6,23.4,104.9L23.4,104.9z M23.4,67.3h-4.5
		v34.5h4.5V67.3z M23.4,104.9h-4.5c-0.2,17.3-3,24-3,24l16.5,3C32.4,131.9,23.4,120.6,23.4,104.9L23.4,104.9z M23.4,67.3h-4.5v34.5
		h4.5V67.3z"/>
	<g>
		<g>
			<defs>
				<rect id="SVGID_1_" x="4" y="17.7" width="192" height="114.7"/>
			</defs>
			<clipPath id="SVGID_2_">
				<use xlink:href="#SVGID_1_"  style="overflow:visible;"/>
			</clipPath>
			<path class="st1" d="M21.2,97.4c4.5,0,8.3,3.8,8.3,8.3s-3.8,8.3-8.3,8.3s-8.3-3.6-8.3-8.3C12.9,101.1,16.7,97.4,21.2,97.4
				L21.2,97.4z"/>
		</g>
		<g>
			<defs>
				<rect id="SVGID_3_" x="4" y="17.7" width="192" height="114.7"/>
			</defs>
			<clipPath id="SVGID_4_">
				<use xlink:href="#SVGID_3_"  style="overflow:visible;"/>
			</clipPath>
			<path class="st2" d="M6,61l89-42.2c2.7-1.4,7.2-1.4,9.9,0L194,61c2.7,1.4,2.7,3.8,0,5.1l-89,42.2c-2.7,1.4-7.2,1.4-9.9,0L6,66.1
				C3.3,64.8,3.3,62.4,6,61L6,61z M100,83.6c28.2,0,51,10.2,51,22.7S128.2,129,100,129s-51-10.2-51-22.7S71.8,83.6,100,83.6
				L100,83.6z"/>
		</g>
	</g>
	<path class="st3" d="M146.5,71.7c0-10.7-20.7-19.4-46.4-19.4c-25.5,0-46.2,8.6-46.4,19.2c0,0-5,34.8-4.8,34.8
		c0-10.2,21.5-22.7,51.2-22.7c27.6,0,48.2,12.9,50.9,22.5L146.5,71.7L146.5,71.7z"/>
	<path class="st4" d="M103,52.3v31.5c26.1,0.9,45.3,13.2,48,22.5l-4.5-34.7C146.5,61.3,127.3,53.1,103,52.3L103,52.3z"/>
</g>
</svg>
