<?xml version="1.0" encoding="utf-8"?>
<!-- Generator: Adobe Illustrator 21.0.0, SVG Export Plug-In . SVG Version: 6.00 Build 0)  -->
<svg version="1.1" id="Layer_1" xmlns="http://www.w3.org/2000/svg" xmlns:xlink="http://www.w3.org/1999/xlink" x="0px" y="0px"
	 width="280px" height="280px" viewBox="0 0 280 280" style="enable-background:new 0 0 280 280;" xml:space="preserve">
<style type="text/css">
	.st0{fill:#1B2328;}
	.st1{fill:#FFFFFF;}
	.st2{fill:#2D3439;}
</style>
<path class="st0" d="M175,13.1h-70c-9.7,0-17.5,7.8-17.5,17.5v26.3H105V39.4c0-4.8,3.9-8.8,8.8-8.8h52.5c4.8,0,8.8,3.9,8.8,8.8v17.5
	h17.5V30.6C192.5,21,184.7,13.1,175,13.1z"/>
<path class="st0" d="M17.5,56.9h245c9.7,0,17.5,7.8,17.5,17.5v175c0,9.7-7.8,17.5-17.5,17.5h-245c-9.7,0-17.5-7.8-17.5-17.5v-175
	C0,64.7,7.8,56.9,17.5,56.9z"/>
<path class="st1" d="M183.8,144.4h-26.3v-26.2c0-4.8-3.9-8.8-8.8-8.8h-17.5c-4.8,0-8.8,3.9-8.8,8.8v26.2H96.3
	c-4.8,0-8.8,3.9-8.8,8.8v17.5c0,4.8,3.9,8.8,8.8,8.8h26.3v26.2c0,4.8,3.9,8.8,8.8,8.8h17.5c4.8,0,8.8-3.9,8.8-8.8v-26.2H184
	c4.8,0,8.8-3.9,8.8-8.8v-17.5C192.5,148.3,188.6,144.4,183.8,144.4z"/>
<g>
	<path class="st2" d="M17.5,56.9C7.8,56.9,0,64.7,0,74.4v43.7l61.3-61.3C61.3,56.9,17.5,56.9,17.5,56.9z M17.4,266.9h43.8L0,205.6
		v43.8C0,259,7.8,266.9,17.4,266.9z M262.5,56.9h-43.8l61.3,61.3V74.4C280,64.7,272.2,56.9,262.5,56.9z M262.6,266.9
		c9.6-0.1,17.4-7.9,17.4-17.5v-43.8l-61.3,61.3H262.6z"/>
</g>
</svg>
