<?xml version="1.0" encoding="utf-8"?>
<!-- Generator: Adobe Illustrator 21.0.0, SVG Export Plug-In . SVG Version: 6.00 Build 0)  -->
<svg version="1.1" id="Layer_3" xmlns="http://www.w3.org/2000/svg" xmlns:xlink="http://www.w3.org/1999/xlink" x="0px" y="0px"
	 width="200px" height="150px" viewBox="0 0 200 150" style="enable-background:new 0 0 200 150;" xml:space="preserve">
<style type="text/css">
	.st0{fill:#1B2328;}
</style>
<g>
	<path class="st0" d="M58.6,64.8l17.5-6.2V19H58.6V64.8z"/>
	<path class="st0" d="M106.5,64.8l17.5-6.2V19h-17.5V64.8z"/>
	<path class="st0" d="M37.3,146.4h125.5v-42.7H37.3V146.4z M97.3,110.3h13.5v21.5H97.3V110.3z M73.6,110.3H87v21.5H73.6V110.3z
		 M48.9,110.3h13.4v21.5H48.9V110.3z"/>
	<path class="st0" d="M133.1,78.4L129.7,61L86,78.4L80.8,61L37.3,78.4V97h125.5V78.4H133.1z"/>
	<path class="st0" d="M50.7,16.1c2.2-0.4,3.9-1.7,5.2-3c1.4-1.4,2.4-2.7,4-3.6c1.5-0.9,3.4-1.1,4.7-0.9c1.2,0.2,1.9,0.7,2.8,2.1
		c0.9,1.3,1.4,2.9,2.2,4.7H70c0.6-1.9,0.7-3.8,0-5.8c-0.3-1-0.9-2-1.9-2.8c-0.9-0.9-2.3-1.2-3.5-1.1c-2.4,0.3-3.8,1.8-5.3,2.9
		c-1.5,1-3,2.2-4.6,2.9s-3.2,1.2-4.6,1.3c-1.4,0-2.5-0.4-3.6-1.3c-2.3-1.7-4.1-4.8-6-7.9l-0.4,0.1c-0.2,3.8,0.7,7.8,3.9,10.8
		C45.9,16,48.6,16.6,50.7,16.1L50.7,16.1z"/>
	<path class="st0" d="M104.9,16.4c1.7-0.3,2.8-1.3,3.8-2.3c0.9-1,1.7-2,2.7-2.5c1-0.6,2.5-0.6,3.2-0.3c0.6,0.2,0.9,0.3,1.6,1.2
		c0.6,0.8,1.1,1.9,1.9,3.1h0.4c0.7-1.3,0.7-2.7,0.3-4.2c-0.2-0.8-0.7-1.5-1.4-2.2c-0.7-0.7-1.9-1-2.7-0.8c-1.8,0.3-2.7,1.5-3.8,2.3
		c-1,0.8-2.1,1.5-3.3,2c-1.1,0.3-2.2,0.6-3.1,0.6s-1.4-0.3-2.1-0.8c-1.4-0.9-2.8-3-4.5-5l-0.4,0.1c-0.5,2.7,0,5.6,2.4,8
		C101.2,16.4,103.2,16.9,104.9,16.4L104.9,16.4z"/>
</g>
</svg>
