<?xml version="1.0" encoding="utf-8"?>
<!-- Generator: Adobe Illustrator 21.0.0, SVG Export Plug-In . SVG Version: 6.00 Build 0)  -->
<svg version="1.1" id="Layer_3" xmlns="http://www.w3.org/2000/svg" xmlns:xlink="http://www.w3.org/1999/xlink" x="0px" y="0px"
	 width="200px" height="150px" viewBox="0 0 200 150" style="enable-background:new 0 0 200 150;" xml:space="preserve">
<style type="text/css">
	.st0{fill:#D3DAE2;}
	.st1{fill:#1B2328;}
</style>
<g>
	<path class="st0" d="M110.3,26.2c-0.7-1.2-2.3-1.8-3.7-1.1c-6.5,3.4-13,2-17,0.4c-1.9-0.7-3.9,0.6-3.9,2.7v5.5l0.7,106
		c0.7,0.7,1.9,1.1,3,0.6c7.1-2.7,14-1.2,18,0.3c1.5,0.6,3-0.2,3.6-1.6L110.3,26.2L110.3,26.2z"/>
	<path class="st1" d="M139.7,12.7c-0.4-3.2-3.4-5.6-6.7-5.2l-18,2.4c-3.2,0.4-5.6,3.4-5.2,6.7l15,118.8c0.4,3.2,3.4,5.6,6.7,5.2
		l17.9-2.3c3.2-0.4,5.6-3.4,5.1-6.6L139.7,12.7z"/>
	<path class="st1" d="M84.1,54.9c0-2.5-2.2-0.1-4.7,0l-9.8-0.1c-2.5,0-4.5-2.6-4.5,0l0.5,84.4c0,2.5,2.2,0.1,4.7,0l9.8,0.1
		c2.5,0,4.5,2.5,4.4,0L84.1,54.9z"/>
	<path class="st1" d="M64.6,29.5c0-3.3-2.7,0-6,0H40.5c-3.3,0-6-3.3-6,0L35,139.1c0,3.3,2.7,0,6,0h18.1c3.3,0,6,3.2,5.8,0L64.6,29.5
		z"/>
	<path class="st1" d="M34.1,13.6c0-3.3-2.7,0-6,0h-3.9c-3.3,0-6-3.3-6,0l0.3,125.6c0,3.3,2.7,0,6,0h3.9c3.3,0,6,3.2,5.8,0L34.1,13.6
		z"/>
	<polygon class="st1" points="85.9,25.6 84.8,25.7 85.5,139.8 86.6,139.7 86.6,138.8 85.9,32.8 	"/>
	<polygon class="st1" points="112,139.7 111.4,25.7 110.3,25.6 110.2,25.6 111,138.4 111,139.8 	"/>
	<path class="st0" d="M162.1,27.2c-0.9-1.1-2.5-1.5-3.8-0.6c-6.1,4.1-6.6,2.8-10.8,1.7c-2-0.5-3.8,1.1-3.5,3.1l0.7,5.4l13.7,105.1
		c0.8,0.6,2,0.8,3,0.2c6.7-3.6,7.7-2.2,11.8-1.2c1.6,0.4,2.9-0.6,3.3-2L162.1,27.2L162.1,27.2z"/>
	<polygon class="st1" points="143.8,28.9 142.8,29.1 157.5,142.2 158.6,142 158.5,141.1 144.8,36 	"/>
	<polygon class="st1" points="177.8,139.6 163.1,26.5 162,26.6 162,26.6 176.5,138.4 176.7,139.8 	"/>
</g>
</svg>
