<?xml version="1.0" encoding="utf-8"?>
<!-- Generator: Adobe Illustrator 21.0.0, SVG Export Plug-In . SVG Version: 6.00 Build 0)  -->
<svg version="1.1" id="Layer_3" xmlns="http://www.w3.org/2000/svg" xmlns:xlink="http://www.w3.org/1999/xlink" x="0px" y="0px"
	 width="200px" height="150px" viewBox="0 0 200 150" style="enable-background:new 0 0 200 150;" xml:space="preserve">
<style type="text/css">
	.st0{fill:#1B2328;}
</style>
<g>
	<g>
		<g>
			<path class="st0" d="M161.3,22.7c-25.5-8.2-44.9-19.1-44.9-19.1l0,0c0,0-19.1,11.1-44.9,19.1c0,0-9.1,57.6,44.7,83.6h0.3
				C170.3,80.3,161.3,22.7,161.3,22.7L161.3,22.7z M117,100.6l-0.6,0.3l-0.6-0.3C76.1,79.6,75.3,39.2,76,27.3l0.1-0.9l0.9-0.3
				c18.7-6.2,33.4-13.7,38.9-16.6l0.6-0.3l0.6,0.3c5.5,2.9,20.3,10.3,38.8,16.6l0.8,0.3l0.1,0.9C157.6,39.2,157.2,79.5,117,100.6
				L117,100.6z M154.2,28.4c-17.6-6-31.8-13-37.7-16.1c-5.9,3.1-20,10.2-37.8,16.1c-0.6,12.4,1,49.7,37.7,69.4
				C153.5,77.9,154.9,40.8,154.2,28.4L154.2,28.4z M116,80.5c-15.1,0-27.3-12.2-27.3-27.3s12.2-27.3,27.3-27.3s27.3,12.2,27.3,27.3
				C143.3,68.2,131.1,80.5,116,80.5L116,80.5z M116.4,78.1c-1.4,0-2.9-0.1-4.3-0.4c-0.7-0.1-1.2-0.8-1.1-1.6
				c0.1-0.7,0.8-1.2,1.6-1.1c2.5,0.4,5.1,0.4,7.6,0c0.7-0.1,1.4,0.4,1.6,1.1c0.1,0.7-0.4,1.4-1.1,1.6
				C119.3,78,117.8,78.1,116.4,78.1L116.4,78.1z M104.7,75c-0.2,0-0.5-0.1-0.7-0.2c-2.5-1.4-4.7-3.3-6.6-5.5
				c-0.5-0.6-0.4-1.4,0.2-1.9s1.4-0.4,1.9,0.2c1.7,2,3.6,3.6,5.9,4.9c0.7,0.4,0.9,1.2,0.5,1.8C105.7,74.7,105.2,75,104.7,75
				L104.7,75z M128.1,75c-0.5,0-0.9-0.3-1.2-0.7c-0.4-0.7-0.2-1.5,0.5-1.8c2.2-1.3,4.2-3,5.8-4.9c0.5-0.6,1.3-0.7,1.9-0.2
				c0.6,0.5,0.6,1.3,0.2,1.9c-1.9,2.2-4.1,4.1-6.6,5.5C128.5,74.9,128.3,75,128.1,75L128.1,75z M94.5,62.8c-0.6,0-1.1-0.3-1.3-0.9
				c-1-2.7-1.5-5.5-1.5-8.4c0-0.7,0.6-1.3,1.4-1.3c0.7,0,1.3,0.6,1.3,1.3c0,2.6,0.5,5.1,1.3,7.5c0.3,0.7-0.1,1.5-0.8,1.7
				C94.8,62.7,94.6,62.8,94.5,62.8L94.5,62.8z M138.3,62.7c-0.2,0-0.3,0-0.5-0.1c-0.7-0.3-1.1-1-0.8-1.7c0.9-2.4,1.3-5,1.3-7.5
				c0-0.7,0.6-1.4,1.4-1.4c0.7,0,1.3,0.6,1.3,1.3v0.1c0,2.9-0.5,5.7-1.5,8.4C139.4,62.4,138.9,62.7,138.3,62.7L138.3,62.7z
				 M94.4,46.8c-0.2,0-0.3,0-0.5-0.1c-0.7-0.3-1.1-1-0.8-1.7c1-2.7,2.4-5.2,4.3-7.4c0.5-0.6,1.3-0.7,1.9-0.2s0.6,1.3,0.2,1.9
				c-1.6,2-2.9,4.2-3.8,6.6C95.5,46.4,95,46.8,94.4,46.8L94.4,46.8z M138.3,46.6c-0.6,0-1.1-0.3-1.3-0.9c-0.9-2.4-2.2-4.6-3.9-6.6
				c-0.5-0.6-0.4-1.4,0.2-1.9c0.6-0.5,1.4-0.4,1.9,0.2c1.9,2.2,3.3,4.7,4.3,7.4c0.3,0.7-0.1,1.5-0.8,1.7
				C138.6,46.6,138.5,46.6,138.3,46.6L138.3,46.6z M104.7,34.5c-0.5,0-0.9-0.2-1.2-0.7c-0.4-0.6-0.2-1.5,0.5-1.8
				c2.5-1.5,5.2-2.5,8.1-3c0.8-0.1,1.4,0.4,1.6,1.1c0.1,0.7-0.4,1.4-1.1,1.6c-2.5,0.4-5,1.3-7.2,2.6
				C105.1,34.5,104.9,34.5,104.7,34.5L104.7,34.5z M128,34.5c-0.2,0-0.4-0.1-0.7-0.2c-2.2-1.3-4.7-2.2-7.2-2.6
				c-0.7-0.1-1.2-0.8-1.1-1.6c0.1-0.7,0.8-1.2,1.6-1.1c2.9,0.5,5.6,1.5,8.1,2.9c0.6,0.4,0.9,1.2,0.5,1.8
				C128.9,34.2,128.5,34.5,128,34.5L128,34.5z M164.5,110.7H79.1L59,50.1c-0.4-1.2-1.4-2.1-2.5-2.5l-19.9-6.3
				c-2.1-0.7-4.3,0.5-5,2.6s0.5,4.3,2.6,5l18,5.7L72.6,116c0.5,1.6,2,2.7,3.7,2.7h22.6c-7,1.1-12.3,7.1-12.3,14.4
				c0,8.1,6.6,14.6,14.6,14.6c8.1,0,14.6-6.6,14.6-14.6c0-7.3-5.4-13.3-12.3-14.4h35.1c-6.9,1.1-12.3,7.1-12.3,14.4
				c0,8.1,6.6,14.6,14.6,14.6c8.1,0,14.6-6.6,14.6-14.6c0-7.3-5.3-13.3-12.3-14.4h21.4c2.2,0,4-1.8,4-4
				C168.5,112.4,166.7,110.7,164.5,110.7L164.5,110.7z M107.9,132.9c0,3.7-3,6.7-6.7,6.7s-6.7-3-6.7-6.7s3-6.7,6.7-6.7
				S107.9,129.2,107.9,132.9L107.9,132.9z M147.6,132.9c0,3.7-3,6.7-6.7,6.7s-6.7-3-6.7-6.7s3-6.7,6.7-6.7S147.6,129.2,147.6,132.9
				L147.6,132.9z"/>
		</g>
	</g>
	<g>
		<path class="st0" d="M115.2,68.7V65c-2.1,0-4.3-0.7-5.6-1.6l0.9-2.5c1.3,0.9,3.2,1.6,5.3,1.6c2.6,0,4.4-1.5,4.4-3.6
			c0-2-1.4-3.3-4.2-4.4c-3.8-1.5-6.1-3.2-6.1-6.4c0-3.1,2.2-5.4,5.6-5.9v-3.7h2.3v3.6c2.2,0.1,3.7,0.7,4.8,1.3l-0.9,2.4
			c-0.8-0.4-2.3-1.3-4.6-1.3c-2.8,0-3.9,1.7-3.9,3.2c0,1.9,1.4,2.9,4.6,4.2c3.8,1.5,5.7,3.5,5.7,6.7c0,2.9-2,5.6-5.8,6.3v3.8
			C117.7,68.7,115.2,68.7,115.2,68.7z"/>
	</g>
</g>
</svg>
