<?xml version="1.0" encoding="utf-8"?>
<!-- Generator: Adobe Illustrator 21.0.0, SVG Export Plug-In . SVG Version: 6.00 Build 0)  -->
<svg version="1.1" id="Layer_1" xmlns="http://www.w3.org/2000/svg" xmlns:xlink="http://www.w3.org/1999/xlink" x="0px" y="0px"
	 width="300px" height="300px" viewBox="0 0 300 300" style="enable-background:new 0 0 300 300;" xml:space="preserve">
<style type="text/css">
	.st0{fill:#3B464C;}
	.st1{fill:#070707;}
</style>
<path id="node1" class="st0" d="M41.6,81.3c-5.8,6-11.3,14.6-14.7,23.2c-0.9,2.2-2.1,5.3-2.7,6.8c-0.7,1.5-1.4,4-1.8,5.5
	c-0.3,1.5-1,3.6-1.4,4.7c-0.5,1.1-1.8,7.6-2.9,14.5c-1.8,11.5-1.8,12.6-0.3,13.5C20,150.9,43,163,43.4,163c0.2,0,0.6-4.2,0.9-9.3
	c1.2-19.8,11.8-44.7,25.5-59.9c1.9-2.1,3.3-4,3.1-4.1c-0.2-0.2-5.2-3.5-11.1-7.5S50.4,75,49.4,75C48.5,75,45,77.8,41.6,81.3z"/>
<path id="node2" class="st1" d="M245.9,78.3c-2.4,1.9-7.2,5.2-10.6,7.5l-6.1,4.2l7.2,7.2c12,12.1,17.8,27,19.9,51.4l1.2,13.3
	l7.5-3.4c4.1-1.9,10-4.7,13-6.2l5.5-2.8l0.3-8.8c0.5-15.8-6-35.5-16.3-49.7c-3.7-5.1-14.8-16-16.3-16
	C250.7,75,248.3,76.5,245.9,78.3z"/>
<path id="node3" class="st1" d="M153.5,90c-1.6,0.4-8.9,0.8-16.1,0.9L124.2,91l-4.5,3.7c-13.2,11-23.8,21-24.3,22.8
	c-0.8,3.3,1.2,7.1,4.5,8.5c4.6,1.9,11.2,0.5,16.8-3.5c2.7-1.9,6.7-4.9,9.1-6.6c5.9-4.2,13.5-5.5,23-3.9c7.1,1.2,8.1,1.7,33.5,18.8
	c14.4,9.6,30.4,20.4,35.5,23.9c5.1,3.4,9.9,6.3,10.6,6.3c0.8,0,1.9-0.7,2.7-1.6c1.8-2.2,9.8-6.1,14.1-6.9l3.7-0.7l-0.5-5.2
	c-0.9-8.7-4.4-21.6-7.4-27.6s-12.2-17.7-14.5-18.6c-0.7-0.3-3.4,1.1-6,3c-3.9,3-5.5,3.6-9.6,3.6c-4.7,0-14.5-3.2-27-8.8
	c-2.4-1.1-6.6-3-9.4-4.2c-5.6-2.5-14.2-5-16.5-4.9C157.2,89.2,155.2,89.6,153.5,90z"/>
<path id="node4" class="st0" d="M76.3,101.2c-10.5,11-19,28.2-21.8,44.5c-2,11.3-2,11,1.8,11.8c5.1,1.2,8.5,3.3,19.1,11.8l9.8,7.9
	l3.7-4.2c3.2-3.7,4.3-4.3,8.6-4.7c7-0.7,10,1.7,10,8c0,2.8,0.3,4,0.8,3.1c1.2-2.1,6.2-4.4,9.7-4.4c4.4,0,8,4.1,8,9.3v3.9l3.2-3.1
	c4-3.9,9.6-4.3,12.9-1c1.9,1.9,2.1,3,1.6,7.9c-0.2,3.1-1.2,7.1-2.1,8.8c-1.8,3.4-1.2,4.1,1.3,1.8c3-2.7,6.5-2.9,9.4-0.6
	c3.3,2.7,3.5,6.5,0.6,12.2l-2.1,4.2l2.3,1.9c5.2,4.2,13.8,7.7,18.8,7.7c4.3,0,5.3-0.4,7.5-3.1c1.5-1.8,2.6-4.3,2.6-6
	c0-2.9,0-2.9,5.9-2.9c5.5,0,6.1-0.2,9-3.5c2.2-2.6,3.1-4.6,3.1-7.1c0-2.9,0.3-3.4,1.8-3c5.3,1.6,7.2,1.6,10.5,0.2
	c5.2-2.1,7.9-6.9,7.4-12.8c-0.4-4.3-0.2-4.6,1.4-3.8c3,1.7,6.7,1.1,9.6-1.4c2.3-2,2.8-3.2,2.8-6.9c0-3.1-0.6-5.2-2-6.7
	c-6.1-6.7-69.8-50-77.9-53c-10.8-3.9-18.5-3.5-25.4,1.4c-2,1.5-6.5,4.6-10,7.1c-5.9,4.2-6.8,4.5-12.5,4.5
	c-10.6,0-16.2-5.8-13.9-14.3c0.4-1.5,2.9-5,5.6-7.7l4.8-4.8l-2.4-1.6c-1.2-0.8-5.1-1.9-8.5-2.5c-3.4-0.5-7.1-1.5-8.2-2
	C80.5,96.7,81,96.4,76.3,101.2z"/>
<path id="node5" class="st1" d="M91.6,175.2c-7.2,7.2-6.9,17,0.5,17.6c3.1,0.3,4.1-0.2,6.7-3.2c6.8-7.8,6.5-16.7-0.6-17.4
	C95.6,171.9,94.2,172.6,91.6,175.2z"/>
<path id="node6" class="st1" d="M110.3,182.2c-6.2,6.6-9.7,17.9-6.9,22.3c4.8,7.3,15.5-2.7,18-16.8
	C122.9,179.3,116.2,176.1,110.3,182.2z"/>
<path id="node7" class="st1" d="M132.1,187.7c-5.7,2.8-13.1,15.9-13.1,23.1c0,5.5,4.1,7.8,9,5.2c4.7-2.5,12-17.5,12-24.5
	c0-2.4-0.6-3.8-1.9-4.5C135.7,185.8,136.2,185.7,132.1,187.7z"/>
<path id="node8" class="st1" d="M142.8,206.7c-3.3,3.6-6.8,10.5-6.8,13.6c0,5.5,5.6,6.4,9.4,1.4c3.3-4.2,6.8-12.6,6.4-15.1
	C151.3,203.2,146.1,203.3,142.8,206.7z"/>
<g transform="translate(0.000000,300.000000) scale(0.100000,-0.100000)">
</g>
</svg>
