<?xml version="1.0" encoding="utf-8"?>
<!-- Generator: Adobe Illustrator 21.1.0, SVG Export Plug-In . SVG Version: 6.00 Build 0)  -->
<svg version="1.1" id="Layer_1" xmlns="http://www.w3.org/2000/svg" xmlns:xlink="http://www.w3.org/1999/xlink" x="0px" y="0px"
	 viewBox="0 0 1560 868" style="enable-background:new 0 0 1560 868;" xml:space="preserve">
<style type="text/css">
	.st0{fill:#82C4ED;enable-background:new    ;}
	.st1{fill:#F4F2F5;}
	.st2{font-family:'Montserrat-Bold';}
	.st3{font-size:12px;}
	.st4{fill:none;stroke:#82C4ED;stroke-miterlimit:10;}
	.st5{fill:#FFFFFF;stroke:#82C4ED;stroke-miterlimit:10;enable-background:new    ;}
	.st6{fill:none;stroke:#82C4ED;stroke-miterlimit:10;stroke-dasharray:3.9306,3.9306,3.9306,0;}
	.st7{fill:none;stroke:#82C4ED;stroke-miterlimit:10;stroke-dasharray:3.9306,3.9306,3.9306,3.9306,3.9306,0;}
	.st8{fill:#82C4ED;}
	.st9{fill:#FFFFFF;stroke:#82C4ED;stroke-miterlimit:10;}
	.st10{enable-background:new    ;}
	.st11{fill:#F5F2F5;}
	.st12{fill:#FFFFFF;}
	.st13{fill:#CAC7CA;enable-background:new    ;}
	.st14{font-family:'Montserrat-SemiBold';}
	.st15{font-size:8px;}
	.st16{fill:#FEFEFE;}
	.st17{fill:none;stroke:#82C4ED;stroke-miterlimit:10;enable-background:new    ;}
	.st18{fill:none;stroke:#82C4ED;stroke-miterlimit:10;stroke-dasharray:4,4,4,4,4,0;}
	.st19{fill:#059F4A;}
	.st20{fill:#FFFFFF;stroke:#059F4A;stroke-width:5;stroke-miterlimit:10;}
	.st21{fill:#58595B;}
	.st22{fill:#E93232;}
	.st23{fill:#0E5DA9;}
	.st24{fill:#575656;}
</style>
<g>
	<rect x="34" y="161" class="st0" width="44" height="490"/>
	<text transform="matrix(4.489659e-11 -1 1 4.489659e-11 59 453)" class="st1 st2 st3">MEETING ROOMS</text>
	<g>
		<line class="st4" x1="95.5" y1="473" x2="117.5" y2="473"/>
		<line class="st4" x1="95.5" y1="490.5" x2="117.5" y2="490.5"/>
		<line class="st4" x1="95.5" y1="508.3" x2="117.5" y2="508.3"/>
		<line class="st4" x1="95.5" y1="526.5" x2="117.5" y2="526.5"/>
		<line class="st4" x1="95.5" y1="544.5" x2="117.5" y2="544.5"/>
		<line class="st4" x1="95.5" y1="561.9" x2="117.5" y2="561.9"/>
		<line class="st4" x1="95.5" y1="580.1" x2="117.5" y2="580.1"/>
		<line class="st4" x1="95.5" y1="598.1" x2="117.5" y2="598.1"/>
		<line class="st4" x1="95.5" y1="615.8" x2="117.5" y2="615.8"/>
		<line class="st4" x1="95.5" y1="633.8" x2="117.5" y2="633.8"/>
	</g>
	<g>
		<rect x="143.2" y="234" class="st5" width="21.5" height="108"/>
		<line class="st4" x1="143.2" y1="252.5" x2="165.2" y2="252.5"/>
		<line class="st4" x1="143.2" y1="269.9" x2="165.2" y2="269.9"/>
		<line class="st4" x1="143.2" y1="288.1" x2="165.2" y2="288.1"/>
		<line class="st4" x1="143.2" y1="306.1" x2="165.2" y2="306.1"/>
		<line class="st4" x1="143.2" y1="323.8" x2="165.2" y2="323.8"/>
	</g>
	<g>
		<g>
			<g>
				<g>
					<line class="st4" x1="1045" y1="431" x2="1046.1" y2="432.7"/>
					<line class="st6" x1="1048.3" y1="435.9" x2="1054.8" y2="445.8"/>
					<line class="st7" x1="1054.8" y1="445.8" x2="1217.9" y2="691.3"/>
					<line class="st4" x1="1217.9" y1="691.3" x2="1219" y2="693"/>
				</g>
			</g>
			<g>
				<g>
					<line class="st4" x1="990" y1="431" x2="991.1" y2="432.7"/>
					<line class="st6" x1="993.3" y1="435.9" x2="999.8" y2="445.8"/>
					<line class="st7" x1="999.8" y1="445.8" x2="1162.9" y2="691.3"/>
					<line class="st4" x1="1162.9" y1="691.3" x2="1164" y2="693"/>
				</g>
			</g>
		</g>
		<rect x="349" y="156" class="st0" width="742" height="276"/>
		<path class="st8" d="M343,601v181.5h28.5V680H400v-78.5C400,601.5,343.5,600.5,343,601z"/>
		<g>
			<rect x="95.5" y="234" class="st5" width="21.5" height="198"/>
			<line class="st4" x1="95.5" y1="253" x2="117.5" y2="253"/>
			<line class="st4" x1="95.5" y1="270.5" x2="117.5" y2="270.5"/>
			<line class="st4" x1="95.5" y1="288.3" x2="117.5" y2="288.3"/>
			<line class="st4" x1="95.5" y1="306.5" x2="117.5" y2="306.5"/>
			<line class="st4" x1="95.5" y1="324.5" x2="117.5" y2="324.5"/>
			<line class="st4" x1="95.5" y1="341.9" x2="117.5" y2="341.9"/>
			<line class="st4" x1="95.5" y1="360.1" x2="117.5" y2="360.1"/>
			<line class="st4" x1="95.5" y1="378.1" x2="117.5" y2="378.1"/>
			<line class="st4" x1="95.5" y1="395.8" x2="117.5" y2="395.8"/>
			<line class="st4" x1="95.5" y1="413.8" x2="117.5" y2="413.8"/>
		</g>
		<g>
			<rect x="95.5" y="451.3" class="st5" width="21.5" height="198"/>
			<line class="st4" x1="95.5" y1="470.3" x2="117.5" y2="470.3"/>
			<line class="st4" x1="95.5" y1="487.8" x2="117.5" y2="487.8"/>
			<line class="st4" x1="95.5" y1="505.6" x2="117.5" y2="505.6"/>
			<line class="st4" x1="95.5" y1="523.8" x2="117.5" y2="523.8"/>
			<line class="st4" x1="95.5" y1="541.8" x2="117.5" y2="541.8"/>
			<line class="st4" x1="95.5" y1="559.2" x2="117.5" y2="559.2"/>
			<line class="st4" x1="95.5" y1="577.5" x2="117.5" y2="577.5"/>
			<line class="st4" x1="95.5" y1="595.5" x2="117.5" y2="595.5"/>
			<line class="st4" x1="95.5" y1="613.1" x2="117.5" y2="613.1"/>
			<line class="st4" x1="95.5" y1="631.1" x2="117.5" y2="631.1"/>
		</g>
		<g>
			<rect x="210.5" y="207" class="st5" width="21.5" height="225"/>
			<line class="st4" x1="210.5" y1="230" x2="232.5" y2="230"/>
			<line class="st4" x1="210.5" y1="252.5" x2="232.5" y2="252.5"/>
			<line class="st4" x1="210.5" y1="275.3" x2="232.5" y2="275.3"/>
			<line class="st4" x1="210.5" y1="297.5" x2="232.5" y2="297.5"/>
			<line class="st4" x1="210.5" y1="319.5" x2="232.5" y2="319.5"/>
			<line class="st4" x1="210.5" y1="341.9" x2="232.5" y2="341.9"/>
			<line class="st4" x1="210.5" y1="365.1" x2="232.5" y2="365.1"/>
			<line class="st4" x1="210.5" y1="387.1" x2="232.5" y2="387.1"/>
			<line class="st4" x1="210.5" y1="409.8" x2="232.5" y2="409.8"/>
		</g>
		<g>
			<rect x="235.8" y="207" class="st5" width="21.5" height="225"/>
			<line class="st4" x1="235.8" y1="230" x2="257.8" y2="230"/>
			<line class="st4" x1="235.8" y1="252.5" x2="257.8" y2="252.5"/>
			<line class="st4" x1="235.8" y1="341.9" x2="257.8" y2="341.9"/>
			<line class="st4" x1="235.8" y1="297.7" x2="257.8" y2="297.7"/>
			<line class="st4" x1="235.8" y1="387.1" x2="257.8" y2="387.1"/>
		</g>
		<g>
			<rect x="168.2" y="162" class="st5" width="21.5" height="180"/>
			<line class="st4" x1="168.2" y1="181" x2="190.2" y2="181"/>
			<line class="st4" x1="168.2" y1="198.5" x2="190.2" y2="198.5"/>
			<line class="st4" x1="168.2" y1="216.3" x2="190.2" y2="216.3"/>
			<line class="st4" x1="168.2" y1="234.5" x2="190.2" y2="234.5"/>
			<line class="st4" x1="168.2" y1="252.5" x2="190.2" y2="252.5"/>
			<line class="st4" x1="168.2" y1="269.9" x2="190.2" y2="269.9"/>
			<line class="st4" x1="168.2" y1="288.1" x2="190.2" y2="288.1"/>
			<line class="st4" x1="168.2" y1="306.1" x2="190.2" y2="306.1"/>
			<line class="st4" x1="168.2" y1="323.8" x2="190.2" y2="323.8"/>
		</g>
		<g>
			<path class="st5" d="M279.5,206.5v224h23V207C302.5,207,279.5,207,279.5,206.5z"/>
			<line class="st4" x1="279" y1="229.5" x2="304.5" y2="229.5"/>
			<line class="st4" x1="280" y1="251.5" x2="303" y2="251.5"/>
			<line class="st4" x1="280.5" y1="274" x2="303.5" y2="274"/>
			<line class="st4" x1="280" y1="297" x2="303" y2="297"/>
			<line class="st4" x1="280.5" y1="341.5" x2="305" y2="341.5"/>
			<line class="st4" x1="279" y1="387.5" x2="304" y2="387.5"/>
		</g>
		<g>
			<path class="st5" d="M306,162.5v268h22.5v-268C328.5,162.5,306,163,306,162.5z"/>
			<line class="st4" x1="306" y1="185" x2="329.5" y2="185"/>
			<line class="st4" x1="306" y1="207" x2="329.5" y2="207"/>
			<line class="st4" x1="306" y1="230.5" x2="329.5" y2="230.5"/>
			<line class="st4" x1="306" y1="251.5" x2="329.5" y2="251.5"/>
			<line class="st4" x1="306" y1="297.5" x2="329.5" y2="297.5"/>
			<line class="st4" x1="306" y1="342" x2="329.5" y2="342"/>
			<line class="st4" x1="306" y1="387" x2="329.5" y2="387"/>
		</g>
		<rect x="143" y="364.5" class="st9" width="45.5" height="67.5"/>
		<g class="st10">
			<path class="st8" d="M151.1,388.4c0.4,0.3,0.6,0.8,0.6,1.4c0,0.7-0.2,1.2-0.6,1.5c-0.4,0.4-0.9,0.5-1.7,0.5h-1.1v1.6H147v-5.6
				h2.4C150.1,387.9,150.7,388.1,151.1,388.4z M150.2,390.6c0.2-0.2,0.3-0.4,0.3-0.7c0-0.3-0.1-0.5-0.3-0.7
				c-0.2-0.2-0.5-0.2-0.8-0.2h-1v1.9h1C149.7,390.8,150,390.8,150.2,390.6z"/>
			<path class="st8" d="M156.2,393.5l-0.4-1.1h-2.6l-0.4,1.1h-1.3l2.4-5.6h1.3l2.4,5.6H156.2z M153.6,391.4h1.8l-0.9-2.2
				L153.6,391.4z"/>
			<path class="st8" d="M161.6,393.5l-0.9-1.6h-0.1h-1.2v1.6h-1.3v-5.6h2.4c0.7,0,1.3,0.2,1.7,0.5c0.4,0.3,0.6,0.8,0.6,1.4
				c0,0.4-0.1,0.8-0.3,1.1c-0.2,0.3-0.4,0.5-0.8,0.7l1.2,1.8H161.6z M159.4,390.8h1.2c0.4,0,0.6-0.1,0.8-0.2s0.3-0.4,0.3-0.7
				c0-0.3-0.1-0.5-0.3-0.7s-0.5-0.2-0.8-0.2h-1.2V390.8z"/>
			<path class="st8" d="M163.4,387.9h4.7v1.1h-1.7v4.5h-1.3V389h-1.7V387.9z"/>
			<path class="st8" d="M172.6,387.9h1.2v5.6h-1.2l-2.7-3.6v3.6h-1.2v-5.6h1.2l2.7,3.6V387.9z"/>
			<path class="st8" d="M175,387.9h4.3v1h-3v1.2h2.7v1h-2.7v1.2h3.1v1H175V387.9z"/>
			<path class="st8" d="M183.8,393.5l-0.9-1.6h-0.1h-1.2v1.6h-1.3v-5.6h2.4c0.7,0,1.3,0.2,1.7,0.5c0.4,0.3,0.6,0.8,0.6,1.4
				c0,0.4-0.1,0.8-0.3,1.1c-0.2,0.3-0.4,0.5-0.8,0.7l1.2,1.8H183.8z M181.7,390.8h1.2c0.4,0,0.6-0.1,0.8-0.2s0.3-0.4,0.3-0.7
				c0-0.3-0.1-0.5-0.3-0.7s-0.5-0.2-0.8-0.2h-1.2V390.8z"/>
			<path class="st8" d="M147.1,397.5h4.7v1.1h-1.7v4.5h-1.3v-4.5h-1.7V397.5z"/>
			<path class="st8" d="M152.5,397.5h1.3v2.3h2.5v-2.3h1.3v5.6h-1.3v-2.2h-2.5v2.2h-1.3V397.5z"/>
			<path class="st8" d="M158.8,397.5h4.3v1h-3v1.2h2.7v1H160v1.2h3.1v1h-4.4V397.5z"/>
			<path class="st8" d="M168.3,403.1l-0.4-1.1h-2.6l-0.4,1.1h-1.3l2.4-5.6h1.3l2.4,5.6H168.3z M165.6,401h1.8l-0.9-2.2L165.6,401z"
				/>
			<path class="st8" d="M169.1,397.5h4.7v1.1H172v4.5h-1.3v-4.5h-1.7V397.5z"/>
			<path class="st8" d="M174.4,397.5h4.3v1h-3v1.2h2.7v1h-2.7v1.2h3.1v1h-4.4V397.5z"/>
			<path class="st8" d="M183.2,403.1l-0.9-1.6h-0.1H181v1.6h-1.3v-5.6h2.4c0.7,0,1.3,0.2,1.7,0.5c0.4,0.3,0.6,0.8,0.6,1.4
				c0,0.4-0.1,0.8-0.3,1.1c-0.2,0.3-0.4,0.5-0.8,0.7l1.2,1.8H183.2z M181,400.4h1.2c0.4,0,0.6-0.1,0.8-0.2s0.3-0.4,0.3-0.7
				c0-0.3-0.1-0.5-0.3-0.7s-0.5-0.2-0.8-0.2H181V400.4z"/>
			<path class="st8" d="M168.1,411.6v1.1h-4.2v-0.9l2.1-2.1c0.2-0.2,0.3-0.4,0.4-0.5s0.2-0.3,0.2-0.5c0-0.2-0.1-0.3-0.2-0.4
				c-0.1-0.1-0.3-0.1-0.6-0.1c-0.2,0-0.5,0.1-0.8,0.2c-0.3,0.1-0.5,0.3-0.8,0.5l-0.5-0.9c0.7-0.5,1.5-0.8,2.2-0.8
				c0.4,0,0.7,0.1,1,0.2s0.5,0.3,0.7,0.5c0.2,0.2,0.2,0.5,0.2,0.8c0,0.3-0.1,0.6-0.3,0.9c-0.2,0.3-0.5,0.6-0.8,1l-1.3,1.3H168.1z"/>
		</g>
		<rect x="143" y="589" class="st9" width="45.5" height="67.5"/>
		<g class="st10">
			<path class="st8" d="M151.1,612.9c0.4,0.3,0.6,0.8,0.6,1.4c0,0.7-0.2,1.2-0.6,1.5c-0.4,0.4-0.9,0.5-1.7,0.5h-1.1v1.6H147v-5.6
				h2.4C150.1,612.4,150.7,612.6,151.1,612.9z M150.2,615.1c0.2-0.2,0.3-0.4,0.3-0.7c0-0.3-0.1-0.5-0.3-0.7
				c-0.2-0.2-0.5-0.2-0.8-0.2h-1v1.9h1C149.7,615.3,150,615.3,150.2,615.1z"/>
			<path class="st8" d="M156.2,618l-0.4-1.1h-2.6l-0.4,1.1h-1.3l2.4-5.6h1.3l2.4,5.6H156.2z M153.6,615.9h1.8l-0.9-2.2L153.6,615.9z
				"/>
			<path class="st8" d="M161.6,618l-0.9-1.6h-0.1h-1.2v1.6h-1.3v-5.6h2.4c0.7,0,1.3,0.2,1.7,0.5c0.4,0.3,0.6,0.8,0.6,1.4
				c0,0.4-0.1,0.8-0.3,1.1c-0.2,0.3-0.4,0.5-0.8,0.7l1.2,1.8H161.6z M159.4,615.3h1.2c0.4,0,0.6-0.1,0.8-0.2
				c0.2-0.2,0.3-0.4,0.3-0.7c0-0.3-0.1-0.5-0.3-0.7c-0.2-0.2-0.5-0.2-0.8-0.2h-1.2V615.3z"/>
			<path class="st8" d="M163.4,612.4h4.7v1.1h-1.7v4.5h-1.3v-4.5h-1.7V612.4z"/>
			<path class="st8" d="M172.6,612.4h1.2v5.6h-1.2l-2.7-3.6v3.6h-1.2v-5.6h1.2l2.7,3.6V612.4z"/>
			<path class="st8" d="M175,612.4h4.3v1h-3v1.2h2.7v1h-2.7v1.2h3.1v1H175V612.4z"/>
			<path class="st8" d="M183.8,618l-0.9-1.6h-0.1h-1.2v1.6h-1.3v-5.6h2.4c0.7,0,1.3,0.2,1.7,0.5c0.4,0.3,0.6,0.8,0.6,1.4
				c0,0.4-0.1,0.8-0.3,1.1c-0.2,0.3-0.4,0.5-0.8,0.7l1.2,1.8H183.8z M181.7,615.3h1.2c0.4,0,0.6-0.1,0.8-0.2
				c0.2-0.2,0.3-0.4,0.3-0.7c0-0.3-0.1-0.5-0.3-0.7c-0.2-0.2-0.5-0.2-0.8-0.2h-1.2V615.3z"/>
			<path class="st8" d="M147.1,622h4.7v1.1h-1.7v4.5h-1.3v-4.5h-1.7V622z"/>
			<path class="st8" d="M152.5,622h1.3v2.3h2.5V622h1.3v5.6h-1.3v-2.2h-2.5v2.2h-1.3V622z"/>
			<path class="st8" d="M158.8,622h4.3v1h-3v1.2h2.7v1H160v1.2h3.1v1h-4.4V622z"/>
			<path class="st8" d="M168.3,627.6l-0.4-1.1h-2.6l-0.4,1.1h-1.3l2.4-5.6h1.3l2.4,5.6H168.3z M165.6,625.5h1.8l-0.9-2.2
				L165.6,625.5z"/>
			<path class="st8" d="M169.1,622h4.7v1.1H172v4.5h-1.3v-4.5h-1.7V622z"/>
			<path class="st8" d="M174.4,622h4.3v1h-3v1.2h2.7v1h-2.7v1.2h3.1v1h-4.4V622z"/>
			<path class="st8" d="M183.2,627.6l-0.9-1.6h-0.1H181v1.6h-1.3V622h2.4c0.7,0,1.3,0.2,1.7,0.5c0.4,0.3,0.6,0.8,0.6,1.4
				c0,0.4-0.1,0.8-0.3,1.1c-0.2,0.3-0.4,0.5-0.8,0.7l1.2,1.8H183.2z M181,624.9h1.2c0.4,0,0.6-0.1,0.8-0.2s0.3-0.4,0.3-0.7
				c0-0.3-0.1-0.5-0.3-0.7s-0.5-0.2-0.8-0.2H181V624.9z"/>
			<path class="st8" d="M164.4,631.6h2.4v5.6h-1.3v-4.5h-1.1V631.6z"/>
		</g>
		<rect x="93.5" y="692.5" class="st0" width="134" height="89.5"/>
		<g class="st10">
			<path class="st11" d="M138,710.5c-0.3-0.1-0.6-0.2-0.8-0.2c-0.2,0-0.4,0-0.5,0.1s-0.2,0.2-0.2,0.4c0,0.2,0.1,0.3,0.3,0.5
				c0.2,0.1,0.5,0.2,0.9,0.3c0.4,0.1,0.7,0.2,0.9,0.3s0.5,0.3,0.6,0.5c0.2,0.2,0.3,0.5,0.3,0.9c0,0.4-0.1,0.7-0.3,0.9
				s-0.4,0.5-0.8,0.6c-0.3,0.1-0.7,0.2-1.1,0.2c-0.5,0-0.9-0.1-1.3-0.2s-0.8-0.4-1.1-0.7l0.5-1c0.3,0.3,0.6,0.5,1,0.6
				c0.4,0.2,0.7,0.2,1,0.2c0.3,0,0.5,0,0.6-0.1c0.1-0.1,0.2-0.2,0.2-0.4c0-0.1,0-0.3-0.1-0.4s-0.2-0.2-0.4-0.2s-0.4-0.1-0.6-0.2
				c-0.4-0.1-0.7-0.2-0.9-0.3c-0.2-0.1-0.5-0.3-0.6-0.5c-0.2-0.2-0.3-0.5-0.3-0.9c0-0.3,0.1-0.6,0.3-0.9c0.2-0.3,0.4-0.4,0.8-0.6
				s0.7-0.2,1.1-0.2c0.4,0,0.8,0.1,1.1,0.2c0.4,0.1,0.7,0.3,1,0.4l-0.5,1C138.6,710.8,138.3,710.6,138,710.5z"/>
			<path class="st11" d="M140.3,709.4h4.3v1h-3v1.2h2.7v1h-2.7v1.2h3.1v1h-4.4V709.4z"/>
			<path class="st11" d="M149,710.6c-0.3-0.1-0.5-0.2-0.8-0.2c-0.3,0-0.6,0.1-0.9,0.2c-0.3,0.2-0.5,0.4-0.6,0.6
				c-0.1,0.3-0.2,0.6-0.2,0.9s0.1,0.6,0.2,0.9s0.4,0.5,0.6,0.6s0.5,0.2,0.9,0.2c0.3,0,0.5-0.1,0.8-0.2c0.3-0.1,0.5-0.3,0.7-0.5
				l0.7,0.8c-0.3,0.3-0.6,0.6-1.1,0.7c-0.4,0.2-0.8,0.3-1.2,0.3c-0.5,0-1-0.1-1.5-0.4c-0.4-0.3-0.8-0.6-1.1-1s-0.4-0.9-0.4-1.5
				c0-0.5,0.1-1,0.4-1.5c0.3-0.4,0.6-0.8,1.1-1c0.5-0.3,1-0.4,1.5-0.4c0.4,0,0.8,0.1,1.2,0.3s0.7,0.4,1,0.7l-0.7,0.9
				C149.5,710.9,149.3,710.7,149,710.6z"/>
			<path class="st11" d="M155.3,709.7c0.5,0.3,0.8,0.6,1.1,1c0.3,0.4,0.4,0.9,0.4,1.5c0,0.5-0.1,1-0.4,1.5s-0.6,0.8-1.1,1
				s-1,0.4-1.5,0.4s-1.1-0.1-1.5-0.4c-0.5-0.3-0.8-0.6-1.1-1c-0.3-0.4-0.4-0.9-0.4-1.5c0-0.5,0.1-1,0.4-1.5c0.3-0.4,0.6-0.8,1.1-1
				c0.5-0.3,1-0.4,1.5-0.4C154.3,709.3,154.8,709.4,155.3,709.7z M152.9,710.7c-0.3,0.2-0.5,0.4-0.6,0.6c-0.2,0.3-0.2,0.6-0.2,0.9
				c0,0.3,0.1,0.6,0.2,0.9c0.2,0.3,0.4,0.5,0.6,0.6c0.3,0.2,0.6,0.2,0.9,0.2c0.3,0,0.6-0.1,0.9-0.2s0.5-0.4,0.6-0.6
				c0.2-0.3,0.2-0.6,0.2-0.9c0-0.3-0.1-0.6-0.2-0.9s-0.4-0.5-0.6-0.6c-0.3-0.2-0.5-0.2-0.9-0.2C153.4,710.4,153.1,710.5,152.9,710.7
				z"/>
			<path class="st11" d="M161.4,709.4h1.2v5.6h-1.2l-2.7-3.6v3.6h-1.2v-5.6h1.2l2.7,3.6V709.4z"/>
			<path class="st11" d="M167.8,709.8c0.4,0.2,0.8,0.6,1,1s0.4,0.9,0.4,1.5s-0.1,1-0.4,1.5c-0.3,0.4-0.6,0.8-1.1,1
				c-0.5,0.2-1,0.4-1.6,0.4h-2.3v-5.6h2.4C166.8,709.4,167.3,709.5,167.8,709.8z M167.1,713.7c0.2-0.1,0.4-0.4,0.6-0.6
				c0.1-0.3,0.2-0.6,0.2-0.9s-0.1-0.6-0.2-0.9c-0.1-0.3-0.3-0.5-0.6-0.6c-0.3-0.1-0.5-0.2-0.9-0.2h-1.1v3.5h1.1
				C166.6,713.9,166.9,713.9,167.1,713.7z"/>
			<path class="st11" d="M174,715l-0.4-1.1H171l-0.4,1.1h-1.3l2.4-5.6h1.3l2.4,5.6H174z M171.4,712.9h1.8l-0.9-2.2L171.4,712.9z"/>
			<path class="st11" d="M179.4,715l-0.9-1.6h-0.1h-1.2v1.6h-1.3v-5.6h2.4c0.7,0,1.3,0.2,1.7,0.5c0.4,0.3,0.6,0.8,0.6,1.4
				c0,0.4-0.1,0.8-0.3,1.1c-0.2,0.3-0.4,0.5-0.8,0.7l1.2,1.8H179.4z M177.2,712.3h1.2c0.4,0,0.6-0.1,0.8-0.2
				c0.2-0.2,0.3-0.4,0.3-0.7c0-0.3-0.1-0.5-0.3-0.7c-0.2-0.2-0.5-0.2-0.8-0.2h-1.2V712.3z"/>
			<path class="st11" d="M186.4,709.4l-2,3.8v1.8h-1.3v-1.8l-2.1-3.8h1.3l1.4,2.5l1.4-2.5H186.4z"/>
			<path class="st11" d="M138.4,719h4.3v1h-3v1.2h2.7v1h-2.7v1.2h3.1v1h-4.4V719z"/>
			<path class="st11" d="M147.6,719h1.2v5.6h-1.2l-2.7-3.6v3.6h-1.2V719h1.2l2.7,3.6V719z"/>
			<path class="st11" d="M149.5,719h4.7v1.1h-1.7v4.5h-1.3v-4.5h-1.7V719z"/>
			<path class="st11" d="M158.3,724.6l-0.9-1.6h-0.1h-1.2v1.6h-1.3V719h2.4c0.7,0,1.3,0.2,1.7,0.5c0.4,0.3,0.6,0.8,0.6,1.4
				c0,0.4-0.1,0.8-0.3,1.1c-0.2,0.3-0.4,0.5-0.8,0.7l1.2,1.8H158.3z M156.1,721.9h1.2c0.4,0,0.6-0.1,0.8-0.2s0.3-0.4,0.3-0.7
				c0-0.3-0.1-0.5-0.3-0.7s-0.5-0.2-0.8-0.2h-1.2V721.9z"/>
			<path class="st11" d="M164.7,724.6l-0.4-1.1h-2.6l-0.4,1.1H160l2.4-5.6h1.3l2.4,5.6H164.7z M162.1,722.5h1.8l-0.9-2.2
				L162.1,722.5z"/>
			<path class="st11" d="M170.5,719h1.2v5.6h-1.2l-2.7-3.6v3.6h-1.2V719h1.2l2.7,3.6V719z"/>
			<path class="st11" d="M176.4,720.2c-0.3-0.1-0.5-0.2-0.8-0.2c-0.3,0-0.6,0.1-0.9,0.2s-0.5,0.4-0.6,0.6s-0.2,0.6-0.2,0.9
				c0,0.3,0.1,0.6,0.2,0.9s0.4,0.5,0.6,0.6c0.3,0.2,0.5,0.2,0.9,0.2c0.3,0,0.5-0.1,0.8-0.2c0.3-0.1,0.5-0.3,0.7-0.5l0.7,0.8
				c-0.3,0.3-0.6,0.6-1.1,0.7c-0.4,0.2-0.8,0.3-1.2,0.3c-0.5,0-1-0.1-1.5-0.4c-0.4-0.3-0.8-0.6-1.1-1c-0.3-0.4-0.4-0.9-0.4-1.5
				c0-0.5,0.1-1,0.4-1.5s0.6-0.8,1.1-1s1-0.4,1.5-0.4c0.4,0,0.8,0.1,1.2,0.3s0.7,0.4,1,0.7l-0.7,0.9
				C176.8,720.5,176.6,720.3,176.4,720.2z"/>
			<path class="st11" d="M178.5,719h4.3v1h-3v1.2h2.7v1h-2.7v1.2h3.1v1h-4.4V719z"/>
			<path class="st11" d="M148.9,728.6h4l0,1h-2.8v1.4h2.5v1.1h-2.5v2.1h-1.3V728.6z"/>
			<path class="st11" d="M157.1,734.2l-0.9-1.6H156h-1.2v1.6h-1.3v-5.6h2.4c0.7,0,1.3,0.2,1.7,0.5s0.6,0.8,0.6,1.4
				c0,0.4-0.1,0.8-0.3,1.1c-0.2,0.3-0.4,0.5-0.8,0.7l1.2,1.8H157.1z M154.9,731.5h1.2c0.4,0,0.6-0.1,0.8-0.2
				c0.2-0.2,0.3-0.4,0.3-0.7c0-0.3-0.1-0.5-0.3-0.7c-0.2-0.2-0.5-0.2-0.8-0.2h-1.2V731.5z"/>
			<path class="st11" d="M163.5,728.9c0.5,0.3,0.8,0.6,1.1,1c0.3,0.4,0.4,0.9,0.4,1.5s-0.1,1-0.4,1.5s-0.6,0.8-1.1,1s-1,0.4-1.5,0.4
				s-1.1-0.1-1.5-0.4c-0.5-0.3-0.8-0.6-1.1-1c-0.3-0.4-0.4-0.9-0.4-1.5c0-0.5,0.1-1,0.4-1.5c0.3-0.4,0.6-0.8,1.1-1
				c0.5-0.3,1-0.4,1.5-0.4C162.6,728.5,163.1,728.6,163.5,728.9z M161.2,729.9c-0.3,0.2-0.5,0.4-0.6,0.6c-0.2,0.3-0.2,0.6-0.2,0.9
				c0,0.3,0.1,0.6,0.2,0.9c0.2,0.3,0.4,0.5,0.6,0.6c0.3,0.2,0.6,0.2,0.9,0.2c0.3,0,0.6-0.1,0.9-0.2s0.5-0.4,0.6-0.6
				c0.2-0.3,0.2-0.6,0.2-0.9c0-0.3-0.1-0.6-0.2-0.9s-0.4-0.5-0.6-0.6c-0.3-0.2-0.5-0.2-0.9-0.2C161.7,729.6,161.4,729.7,161.2,729.9
				z"/>
			<path class="st11" d="M165.9,728.6h1.4l1.7,3.4l1.7-3.4h1.4v5.6H171v-3.8l-1.6,3.2h-0.8l-1.6-3.2v3.8h-1.1V728.6z"/>
			<path class="st11" d="M145.8,738.2h1.3v4.5h2.4v1.1h-3.7V738.2z"/>
			<path class="st11" d="M154.3,738.5c0.5,0.3,0.8,0.6,1.1,1c0.3,0.4,0.4,0.9,0.4,1.5s-0.1,1-0.4,1.5s-0.6,0.8-1.1,1s-1,0.4-1.5,0.4
				s-1.1-0.1-1.5-0.4c-0.5-0.3-0.8-0.6-1.1-1c-0.3-0.4-0.4-0.9-0.4-1.5c0-0.5,0.1-1,0.4-1.5c0.3-0.4,0.6-0.8,1.1-1
				c0.5-0.3,1-0.4,1.5-0.4C153.4,738.1,153.9,738.2,154.3,738.5z M152,739.5c-0.3,0.2-0.5,0.4-0.6,0.6c-0.2,0.3-0.2,0.6-0.2,0.9
				c0,0.3,0.1,0.6,0.2,0.9c0.2,0.3,0.4,0.5,0.6,0.6c0.3,0.2,0.6,0.2,0.9,0.2c0.3,0,0.6-0.1,0.9-0.2s0.5-0.4,0.6-0.6
				c0.2-0.3,0.2-0.6,0.2-0.9c0-0.3-0.1-0.6-0.2-0.9s-0.4-0.5-0.6-0.6c-0.3-0.2-0.5-0.2-0.9-0.2C152.5,739.2,152.2,739.3,152,739.5z"
				/>
			<path class="st11" d="M163.4,738.2h1.3l-1.9,5.6h-1.3l-1.2-4l-1.2,4h-1.3l-1.9-5.6h1.4l1.2,4.3l1.2-4.3h1.2l1.2,4.3L163.4,738.2z
				"/>
			<path class="st11" d="M165.3,738.2h4.3v1h-3v1.2h2.7v1h-2.7v1.2h3.1v1h-4.4V738.2z"/>
			<path class="st11" d="M174.1,743.8l-0.9-1.6h-0.1h-1.2v1.6h-1.3v-5.6h2.4c0.7,0,1.3,0.2,1.7,0.5s0.6,0.8,0.6,1.4
				c0,0.4-0.1,0.8-0.3,1.1c-0.2,0.3-0.4,0.5-0.8,0.7l1.2,1.8H174.1z M171.9,741.1h1.2c0.4,0,0.6-0.1,0.8-0.2
				c0.2-0.2,0.3-0.4,0.3-0.7c0-0.3-0.1-0.5-0.3-0.7c-0.2-0.2-0.5-0.2-0.8-0.2h-1.2V741.1z"/>
			<path class="st11" d="M147.3,747.8h1.3v4.5h2.4v1.1h-3.7V747.8z"/>
			<path class="st11" d="M155.9,748.1c0.5,0.3,0.8,0.6,1.1,1s0.4,0.9,0.4,1.5s-0.1,1-0.4,1.5c-0.3,0.4-0.6,0.8-1.1,1
				c-0.5,0.3-1,0.4-1.5,0.4s-1.1-0.1-1.5-0.4c-0.5-0.3-0.8-0.6-1.1-1c-0.3-0.4-0.4-0.9-0.4-1.5c0-0.5,0.1-1,0.4-1.5
				c0.3-0.4,0.6-0.8,1.1-1c0.5-0.3,1-0.4,1.5-0.4C154.9,747.7,155.4,747.8,155.9,748.1z M153.5,749.1c-0.3,0.2-0.5,0.4-0.6,0.6
				c-0.2,0.3-0.2,0.6-0.2,0.9c0,0.3,0.1,0.6,0.2,0.9s0.4,0.5,0.6,0.6c0.3,0.2,0.6,0.2,0.9,0.2c0.3,0,0.6-0.1,0.9-0.2
				c0.3-0.2,0.5-0.4,0.6-0.6c0.2-0.3,0.2-0.6,0.2-0.9c0-0.3-0.1-0.6-0.2-0.9c-0.2-0.3-0.4-0.5-0.6-0.6s-0.5-0.2-0.9-0.2
				C154.1,748.8,153.8,748.9,153.5,749.1z"/>
			<path class="st11" d="M162.2,748.2c0.4,0.3,0.5,0.6,0.5,1c0,0.3-0.1,0.6-0.3,0.8c-0.2,0.2-0.4,0.4-0.7,0.5
				c0.4,0.1,0.6,0.2,0.9,0.5s0.3,0.6,0.3,0.9c0,0.5-0.2,0.9-0.6,1.1c-0.4,0.3-0.9,0.4-1.5,0.4h-2.7v-5.6h2.6
				C161.4,747.8,161.9,747.9,162.2,748.2z M161.3,749.9c0.1-0.1,0.2-0.3,0.2-0.5c0-0.2-0.1-0.3-0.2-0.4c-0.1-0.1-0.3-0.2-0.6-0.2
				h-1.2v1.2h1.2C160.9,750.1,161.1,750,161.3,749.9z M161.4,752.2c0.2-0.1,0.3-0.3,0.3-0.5c0-0.2-0.1-0.4-0.3-0.5
				c-0.2-0.1-0.4-0.2-0.7-0.2h-1.2v1.3h1.2C161,752.4,161.2,752.3,161.4,752.2z"/>
			<path class="st11" d="M167.9,748.2c0.4,0.3,0.5,0.6,0.5,1c0,0.3-0.1,0.6-0.3,0.8c-0.2,0.2-0.4,0.4-0.7,0.5
				c0.4,0.1,0.6,0.2,0.9,0.5s0.3,0.6,0.3,0.9c0,0.5-0.2,0.9-0.6,1.1c-0.4,0.3-0.9,0.4-1.5,0.4h-2.7v-5.6h2.6
				C167.1,747.8,167.6,747.9,167.9,748.2z M167,749.9c0.1-0.1,0.2-0.3,0.2-0.5c0-0.2-0.1-0.3-0.2-0.4c-0.1-0.1-0.3-0.2-0.6-0.2h-1.2
				v1.2h1.2C166.6,750.1,166.8,750,167,749.9z M167.1,752.2c0.2-0.1,0.3-0.3,0.3-0.5c0-0.2-0.1-0.4-0.3-0.5
				c-0.2-0.1-0.4-0.2-0.7-0.2h-1.2v1.3h1.2C166.7,752.4,166.9,752.3,167.1,752.2z"/>
			<path class="st11" d="M174.3,747.8l-2,3.8v1.8H171v-1.8l-2.1-3.8h1.3l1.4,2.5l1.4-2.5H174.3z"/>
		</g>
		<g class="st10">
			<path class="st11" d="M357.5,618.9c0.4,0.3,0.6,0.8,0.6,1.4c0,0.7-0.2,1.2-0.6,1.5c-0.4,0.4-0.9,0.5-1.7,0.5h-1.1v1.6h-1.3v-5.6
				h2.4C356.5,618.4,357.1,618.6,357.5,618.9z M356.6,621.1c0.2-0.2,0.3-0.4,0.3-0.7c0-0.3-0.1-0.5-0.3-0.7
				c-0.2-0.2-0.5-0.2-0.8-0.2h-1v1.9h1C356.1,621.3,356.4,621.3,356.6,621.1z"/>
			<path class="st11" d="M362.3,624l-0.9-1.6h-0.1h-1.2v1.6h-1.3v-5.6h2.4c0.7,0,1.3,0.2,1.7,0.5c0.4,0.3,0.6,0.8,0.6,1.4
				c0,0.4-0.1,0.8-0.3,1.1c-0.2,0.3-0.4,0.5-0.8,0.7l1.2,1.8H362.3z M360.1,621.3h1.2c0.4,0,0.6-0.1,0.8-0.2
				c0.2-0.2,0.3-0.4,0.3-0.7c0-0.3-0.1-0.5-0.3-0.7c-0.2-0.2-0.5-0.2-0.8-0.2h-1.2V621.3z"/>
			<path class="st11" d="M364.6,618.4h1.3v5.6h-1.3V618.4z"/>
			<path class="st11" d="M367.1,618.4h1.4l1.7,3.4l1.7-3.4h1.4v5.6h-1.1v-3.8l-1.6,3.2h-0.8l-1.6-3.2v3.8h-1.1V618.4z"/>
			<path class="st11" d="M378.8,624l-0.4-1.1h-2.6l-0.4,1.1H374l2.4-5.6h1.3l2.4,5.6H378.8z M376.2,621.9h1.8l-0.9-2.2L376.2,621.9z
				"/>
			<path class="st11" d="M384.2,624l-0.9-1.6h-0.1H382v1.6h-1.3v-5.6h2.4c0.7,0,1.3,0.2,1.7,0.5c0.4,0.3,0.6,0.8,0.6,1.4
				c0,0.4-0.1,0.8-0.3,1.1c-0.2,0.3-0.4,0.5-0.8,0.7l1.2,1.8H384.2z M382,621.3h1.2c0.4,0,0.6-0.1,0.8-0.2c0.2-0.2,0.3-0.4,0.3-0.7
				c0-0.3-0.1-0.5-0.3-0.7c-0.2-0.2-0.5-0.2-0.8-0.2H382V621.3z"/>
			<path class="st11" d="M391.2,618.4l-2,3.8v1.8h-1.3v-1.8l-2.1-3.8h1.3l1.4,2.5l1.4-2.5H391.2z"/>
			<path class="st11" d="M349.9,628h4.3v1h-3v1.2h2.7v1h-2.7v1.2h3.1v1h-4.4V628z"/>
			<path class="st11" d="M359.1,628h1.2v5.6h-1.2l-2.7-3.6v3.6h-1.2V628h1.2l2.7,3.6V628z"/>
			<path class="st11" d="M361,628h4.7v1.1h-1.7v4.5h-1.3v-4.5H361V628z"/>
			<path class="st11" d="M369.8,633.6l-0.9-1.6h-0.1h-1.2v1.6h-1.3V628h2.4c0.7,0,1.3,0.2,1.7,0.5c0.4,0.3,0.6,0.8,0.6,1.4
				c0,0.4-0.1,0.8-0.3,1.1c-0.2,0.3-0.4,0.5-0.8,0.7l1.2,1.8H369.8z M367.6,630.9h1.2c0.4,0,0.6-0.1,0.8-0.2s0.3-0.4,0.3-0.7
				c0-0.3-0.1-0.5-0.3-0.7s-0.5-0.2-0.8-0.2h-1.2V630.9z"/>
			<path class="st11" d="M376.2,633.6l-0.4-1.1h-2.6l-0.4,1.1h-1.3l2.4-5.6h1.3l2.4,5.6H376.2z M373.6,631.5h1.8l-0.9-2.2
				L373.6,631.5z"/>
			<path class="st11" d="M382,628h1.2v5.6h-1.2l-2.7-3.6v3.6h-1.2V628h1.2l2.7,3.6V628z"/>
			<path class="st11" d="M387.9,629.2c-0.3-0.1-0.5-0.2-0.8-0.2c-0.3,0-0.6,0.1-0.9,0.2s-0.5,0.4-0.6,0.6s-0.2,0.6-0.2,0.9
				c0,0.3,0.1,0.6,0.2,0.9s0.4,0.5,0.6,0.6c0.3,0.2,0.5,0.2,0.9,0.2c0.3,0,0.5-0.1,0.8-0.2c0.3-0.1,0.5-0.3,0.7-0.5l0.7,0.8
				c-0.3,0.3-0.6,0.6-1.1,0.7c-0.4,0.2-0.8,0.3-1.2,0.3c-0.5,0-1-0.1-1.5-0.4c-0.4-0.3-0.8-0.6-1.1-1c-0.3-0.4-0.4-0.9-0.4-1.5
				c0-0.5,0.1-1,0.4-1.5s0.6-0.8,1.1-1s1-0.4,1.5-0.4c0.4,0,0.8,0.1,1.2,0.3s0.7,0.4,1,0.7l-0.7,0.9
				C388.3,629.5,388.1,629.3,387.9,629.2z"/>
			<path class="st11" d="M390,628h4.3v1h-3v1.2h2.7v1h-2.7v1.2h3.1v1H390V628z"/>
		</g>
		<g>
			<rect x="138.5" y="453" class="st5" width="22" height="108"/>
			<line class="st4" x1="138" y1="472" x2="161.5" y2="472"/>
			<line class="st4" x1="138.5" y1="490.5" x2="160.5" y2="490.5"/>
			<line class="st4" x1="139" y1="508" x2="160.5" y2="508"/>
			<line class="st4" x1="138" y1="526" x2="161" y2="526"/>
			<line class="st4" x1="139" y1="542.5" x2="160" y2="542.5"/>
		</g>
		<rect x="165" y="453.5" class="st5" width="23" height="112.5"/>
		<line class="st4" x1="164" y1="476" x2="189.5" y2="476"/>
		<line class="st4" x1="165" y1="499.5" x2="188" y2="499.5"/>
		<line class="st4" x1="164.5" y1="521.5" x2="189" y2="521.5"/>
		<line class="st4" x1="164.5" y1="542.5" x2="189" y2="542.5"/>
		<rect x="210" y="452.5" class="st5" width="23" height="69"/>
		<line class="st4" x1="210" y1="476" x2="232.5" y2="476"/>
		<line class="st4" x1="209.5" y1="498.5" x2="233.5" y2="498.5"/>
		<rect x="235.5" y="453.5" class="st5" width="22" height="68"/>
		<line class="st4" x1="235" y1="498.5" x2="259" y2="498.5"/>
		<rect x="280" y="454" class="st5" width="69" height="67.5"/>
		<rect x="211" y="544" class="st5" width="112.5" height="112"/>
		<rect x="444" y="453.5" class="st5" width="67" height="90.5"/>
		<rect x="443" y="565.5" class="st5" width="67" height="68"/>
		<rect x="533.5" y="566" class="st12" width="66.5" height="67"/>
		<rect x="533.5" y="454" class="st9" width="67.5" height="67.5"/>
		<rect x="622.5" y="453.5" class="st9" width="44.5" height="45"/>
		<rect x="690.5" y="453.5" class="st9" width="44.5" height="45"/>
		<rect x="758" y="453.5" class="st9" width="44.5" height="45"/>
		<rect x="825" y="453.5" class="st9" width="44.5" height="45"/>
		<rect x="892" y="453.5" class="st9" width="44.5" height="45"/>
		<rect x="958.5" y="453.5" class="st9" width="44.5" height="45"/>
		<rect x="976" y="522" class="st9" width="44.5" height="45"/>
		<rect x="1030" y="588" class="st9" width="44.5" height="45"/>
		<rect x="892" y="588" class="st9" width="44.5" height="45"/>
		<rect x="824" y="588" class="st9" width="44.5" height="45"/>
		<rect x="757.5" y="588" class="st9" width="44.5" height="45"/>
		<rect x="690.5" y="588" class="st9" width="44.5" height="45"/>
		<rect x="622" y="588" class="st9" width="44.5" height="45"/>
		<rect x="622" y="520.5" class="st9" width="24.5" height="45.5"/>
		<rect x="647.5" y="520.5" class="st9" width="24.5" height="45.5"/>
		<rect x="691.5" y="520.5" class="st9" width="24.5" height="45.5"/>
		<rect x="718" y="520.5" class="st9" width="24.5" height="45.5"/>
		<rect x="763" y="520.5" class="st9" width="24.5" height="45.5"/>
		<rect x="789.5" y="520.5" class="st9" width="24.5" height="45.5"/>
		<rect x="833.5" y="520.5" class="st9" width="24.5" height="45.5"/>
		<rect x="861" y="520.5" class="st9" width="24.5" height="45.5"/>
		<rect x="903" y="520.5" class="st9" width="24.5" height="45.5"/>
		<rect x="929.5" y="520.5" class="st9" width="24.5" height="45.5"/>
		<rect x="958.5" y="587.5" class="st9" width="23.5" height="68.5"/>
		<rect x="984.5" y="588" class="st9" width="22" height="67.5"/>
		<line class="st4" x1="958" y1="610" x2="983" y2="610"/>
		<line class="st4" x1="1006.5" y1="609.5" x2="985" y2="609.5"/>
		<rect x="630.5" y="678.5" class="st9" width="151" height="14"/>
		<rect x="848.5" y="678.5" class="st9" width="107.5" height="15"/>
		<line class="st4" x1="652" y1="678.5" x2="652" y2="691.5"/>
		<line class="st4" x1="674.5" y1="677.5" x2="674.5" y2="692.5"/>
		<line class="st4" x1="695.5" y1="678.5" x2="695.5" y2="693.5"/>
		<line class="st4" x1="717.5" y1="678.5" x2="717.5" y2="692.5"/>
		<line class="st4" x1="738.5" y1="679.5" x2="738.5" y2="693"/>
		<line class="st4" x1="760" y1="678" x2="760" y2="692"/>
		<line class="st4" x1="870.5" y1="679" x2="870.5" y2="690.5"/>
		<line class="st4" x1="891.5" y1="678.5" x2="891.5" y2="692.5"/>
		<line class="st4" x1="913" y1="678.5" x2="913" y2="693"/>
		<line class="st4" x1="934.5" y1="677.5" x2="934.5" y2="694"/>
		<rect x="381" y="694" class="st13" width="716" height="88"/>
		<g class="st10">
			<path class="st11" d="M697.5,735.5c-0.3-0.1-0.6-0.2-0.8-0.2c-0.2,0-0.4,0-0.5,0.1s-0.2,0.2-0.2,0.4c0,0.2,0.1,0.3,0.3,0.5
				c0.2,0.1,0.5,0.2,0.9,0.3c0.4,0.1,0.7,0.2,0.9,0.3s0.5,0.3,0.6,0.5c0.2,0.2,0.3,0.5,0.3,0.9c0,0.4-0.1,0.7-0.3,0.9
				s-0.4,0.5-0.8,0.6c-0.3,0.1-0.7,0.2-1.1,0.2c-0.5,0-0.9-0.1-1.3-0.2s-0.8-0.4-1.1-0.7l0.5-1c0.3,0.3,0.6,0.5,1,0.6
				c0.4,0.2,0.7,0.2,1,0.2c0.3,0,0.5,0,0.6-0.1c0.1-0.1,0.2-0.2,0.2-0.4c0-0.1,0-0.3-0.1-0.4s-0.2-0.2-0.4-0.2s-0.4-0.1-0.6-0.2
				c-0.4-0.1-0.7-0.2-0.9-0.3c-0.2-0.1-0.5-0.3-0.6-0.5c-0.2-0.2-0.3-0.5-0.3-0.9c0-0.3,0.1-0.6,0.3-0.9c0.2-0.3,0.4-0.4,0.8-0.6
				s0.7-0.2,1.1-0.2c0.4,0,0.8,0.1,1.1,0.2c0.4,0.1,0.7,0.3,1,0.4l-0.5,1C698.2,735.8,697.9,735.6,697.5,735.5z"/>
			<path class="st11" d="M704,734.7c0.5,0.3,0.8,0.6,1.1,1c0.3,0.4,0.4,0.9,0.4,1.5c0,0.5-0.1,1-0.4,1.5s-0.6,0.8-1.1,1
				s-1,0.4-1.5,0.4s-1.1-0.1-1.5-0.4c-0.5-0.3-0.8-0.6-1.1-1c-0.3-0.4-0.4-0.9-0.4-1.5c0-0.5,0.1-1,0.4-1.5c0.3-0.4,0.6-0.8,1.1-1
				c0.5-0.3,1-0.4,1.5-0.4C703,734.3,703.5,734.4,704,734.7z M701.6,735.7c-0.3,0.2-0.5,0.4-0.6,0.6c-0.2,0.3-0.2,0.6-0.2,0.9
				c0,0.3,0.1,0.6,0.2,0.9c0.2,0.3,0.4,0.5,0.6,0.6c0.3,0.2,0.6,0.2,0.9,0.2c0.3,0,0.6-0.1,0.9-0.2s0.5-0.4,0.6-0.6
				c0.2-0.3,0.2-0.6,0.2-0.9c0-0.3-0.1-0.6-0.2-0.9s-0.4-0.5-0.6-0.6c-0.3-0.2-0.5-0.2-0.9-0.2C702.2,735.4,701.9,735.5,701.6,735.7
				z"/>
			<path class="st11" d="M706.3,734.4h1.3v4.5h2.4v1.1h-3.7V734.4z"/>
			<path class="st11" d="M710.7,734.4h1.3v5.6h-1.3V734.4z"/>
			<path class="st11" d="M717.1,734.8c0.4,0.2,0.8,0.6,1,1s0.4,0.9,0.4,1.5s-0.1,1-0.4,1.5c-0.3,0.4-0.6,0.8-1.1,1
				c-0.5,0.2-1,0.4-1.6,0.4h-2.3v-5.6h2.4C716.2,734.4,716.7,734.5,717.1,734.8z M716.5,738.7c0.2-0.1,0.4-0.4,0.6-0.6
				c0.1-0.3,0.2-0.6,0.2-0.9s-0.1-0.6-0.2-0.9c-0.1-0.3-0.3-0.5-0.6-0.6c-0.3-0.1-0.5-0.2-0.9-0.2h-1.1v3.5h1.1
				C715.9,738.9,716.2,738.9,716.5,738.7z"/>
			<path class="st11" d="M728.1,734.4h1.3l-1.9,5.6h-1.3l-1.2-4l-1.2,4h-1.3l-1.9-5.6h1.4l1.2,4.3l1.2-4.3h1.2l1.2,4.3L728.1,734.4z
				"/>
			<path class="st11" d="M733.7,740l-0.4-1.1h-2.6l-0.4,1.1h-1.3l2.4-5.6h1.3l2.4,5.6H733.7z M731.1,737.9h1.8l-0.9-2.2L731.1,737.9
				z"/>
			<path class="st11" d="M735.6,734.4h1.3v4.5h2.4v1.1h-3.7V734.4z"/>
			<path class="st11" d="M740.1,734.4h1.3v4.5h2.4v1.1h-3.7V734.4z"/>
		</g>
		<g class="st10">
			<path class="st11" d="M595.1,301c-0.7-0.2-1.3-0.4-1.9-0.4c-0.5,0-0.9,0.1-1.2,0.3c-0.3,0.2-0.4,0.4-0.4,0.8c0,0.4,0.2,0.8,0.6,1
				c0.4,0.2,1.1,0.5,1.9,0.7c0.9,0.3,1.6,0.5,2.1,0.8c0.6,0.3,1,0.6,1.4,1.1s0.6,1.2,0.6,2c0,0.8-0.2,1.5-0.6,2.1s-1,1-1.8,1.3
				s-1.6,0.5-2.5,0.5c-1,0-2-0.2-3-0.5s-1.8-0.9-2.6-1.5l1.1-2.3c0.6,0.6,1.4,1,2.2,1.4c0.8,0.3,1.6,0.5,2.3,0.5
				c0.6,0,1-0.1,1.4-0.3c0.3-0.2,0.5-0.5,0.5-0.9c0-0.3-0.1-0.6-0.3-0.8c-0.2-0.2-0.5-0.4-0.8-0.5c-0.3-0.1-0.8-0.3-1.4-0.5
				c-0.9-0.2-1.6-0.5-2.1-0.7c-0.5-0.2-1-0.6-1.4-1.1s-0.6-1.1-0.6-2c0-0.8,0.2-1.4,0.6-2c0.4-0.6,1-1,1.7-1.3s1.6-0.5,2.6-0.5
				c0.9,0,1.7,0.1,2.6,0.4s1.6,0.6,2.2,1l-1.1,2.4C596.5,301.5,595.8,301.2,595.1,301z"/>
			<path class="st11" d="M609.5,311l-1-2.4h-5.8l-1,2.4h-2.9l5.5-12.6h2.9l5.4,12.6H609.5z M603.6,306.3h4l-2-4.9L603.6,306.3z"/>
			<path class="st11" d="M613.9,298.4h2.8v10.1h5.4v2.5h-8.2V298.4z"/>
			<path class="st11" d="M623.8,298.4h9.6v2.4h-6.8v2.7h6.1v2.4h-6.1v2.8h6.9v2.4h-9.8V298.4z"/>
			<path class="st11" d="M642.1,301c-0.7-0.2-1.3-0.4-1.9-0.4c-0.5,0-0.9,0.1-1.2,0.3c-0.3,0.2-0.4,0.4-0.4,0.8c0,0.4,0.2,0.8,0.6,1
				c0.4,0.2,1.1,0.5,1.9,0.7c0.9,0.3,1.6,0.5,2.1,0.8c0.6,0.3,1,0.6,1.4,1.1s0.6,1.2,0.6,2c0,0.8-0.2,1.5-0.6,2.1s-1,1-1.8,1.3
				s-1.6,0.5-2.5,0.5c-1,0-2-0.2-3-0.5s-1.8-0.9-2.6-1.5l1.1-2.3c0.6,0.6,1.4,1,2.2,1.4c0.8,0.3,1.6,0.5,2.3,0.5
				c0.6,0,1-0.1,1.4-0.3c0.3-0.2,0.5-0.5,0.5-0.9c0-0.3-0.1-0.6-0.3-0.8c-0.2-0.2-0.5-0.4-0.8-0.5c-0.3-0.1-0.8-0.3-1.4-0.5
				c-0.9-0.2-1.6-0.5-2.1-0.7c-0.5-0.2-1-0.6-1.4-1.1s-0.6-1.1-0.6-2c0-0.8,0.2-1.4,0.6-2c0.4-0.6,1-1,1.7-1.3s1.6-0.5,2.6-0.5
				c0.9,0,1.7,0.1,2.6,0.4s1.6,0.6,2.2,1l-1.1,2.4C643.5,301.5,642.8,301.2,642.1,301z"/>
			<path class="st11" d="M647.3,298.4h9.1l0,2.4h-6.2v3.1h5.7v2.4h-5.7v4.8h-2.8V298.4z"/>
			<path class="st11" d="M667.3,299c1,0.6,1.8,1.3,2.4,2.3c0.6,1,0.9,2.1,0.9,3.3s-0.3,2.3-0.9,3.3c-0.6,1-1.4,1.8-2.4,2.3
				c-1,0.6-2.2,0.9-3.4,0.9c-1.3,0-2.4-0.3-3.4-0.9c-1-0.6-1.8-1.3-2.4-2.3c-0.6-1-0.9-2.1-0.9-3.3c0-1.2,0.3-2.3,0.9-3.3
				c0.6-1,1.4-1.8,2.4-2.3c1-0.6,2.2-0.8,3.4-0.8C665.1,298.2,666.3,298.5,667.3,299z M662,301.2c-0.6,0.4-1.1,0.8-1.4,1.4
				s-0.5,1.3-0.5,2c0,0.7,0.2,1.4,0.5,2c0.4,0.6,0.8,1.1,1.4,1.5c0.6,0.4,1.2,0.5,1.9,0.5c0.7,0,1.3-0.2,1.9-0.5s1-0.8,1.4-1.5
				c0.3-0.6,0.5-1.3,0.5-2c0-0.7-0.2-1.4-0.5-2c-0.3-0.6-0.8-1.1-1.4-1.4c-0.6-0.4-1.2-0.5-1.9-0.5
				C663.2,300.7,662.6,300.9,662,301.2z"/>
			<path class="st11" d="M680.3,311l-2-3.6H678h-2.6v3.6h-2.8v-12.6h5.5c1.6,0,2.9,0.4,3.8,1.1c0.9,0.8,1.4,1.8,1.4,3.2
				c0,1-0.2,1.8-0.6,2.5s-1,1.2-1.8,1.6l2.7,4.2H680.3z M675.4,305h2.6c0.8,0,1.4-0.2,1.8-0.5c0.4-0.4,0.6-0.9,0.6-1.6
				c0-0.7-0.2-1.2-0.6-1.6c-0.4-0.4-1-0.5-1.8-0.5h-2.6V305z"/>
			<path class="st11" d="M693.2,301.1c-0.6-0.3-1.2-0.4-1.8-0.4c-0.7,0-1.4,0.2-1.9,0.5s-1.1,0.8-1.4,1.4c-0.3,0.6-0.5,1.3-0.5,2
				s0.2,1.4,0.5,2c0.3,0.6,0.8,1.1,1.4,1.4s1.2,0.5,1.9,0.5c0.6,0,1.1-0.1,1.7-0.4s1.1-0.6,1.6-1.1l1.7,1.8
				c-0.7,0.7-1.5,1.2-2.4,1.7c-0.9,0.4-1.8,0.6-2.7,0.6c-1.2,0-2.4-0.3-3.4-0.9c-1-0.6-1.8-1.4-2.4-2.3c-0.6-1-0.9-2.1-0.9-3.3
				c0-1.2,0.3-2.3,0.9-3.3c0.6-1,1.4-1.8,2.4-2.3c1-0.6,2.2-0.8,3.4-0.8c0.9,0,1.8,0.2,2.7,0.6s1.6,0.9,2.3,1.5l-1.7,2
				C694.2,301.8,693.7,301.4,693.2,301.1z"/>
			<path class="st11" d="M698,298.4h9.6v2.4h-6.8v2.7h6.1v2.4h-6.1v2.8h6.9v2.4H698V298.4z"/>
			<path class="st11" d="M721.9,301.1c-0.6-0.3-1.2-0.4-1.8-0.4c-0.7,0-1.4,0.2-1.9,0.5s-1.1,0.8-1.4,1.4c-0.3,0.6-0.5,1.3-0.5,2
				s0.2,1.4,0.5,2c0.3,0.6,0.8,1.1,1.4,1.4s1.2,0.5,1.9,0.5c0.6,0,1.1-0.1,1.7-0.4s1.1-0.6,1.6-1.1l1.7,1.8
				c-0.7,0.7-1.5,1.2-2.4,1.7c-0.9,0.4-1.8,0.6-2.7,0.6c-1.2,0-2.4-0.3-3.4-0.9c-1-0.6-1.8-1.4-2.4-2.3c-0.6-1-0.9-2.1-0.9-3.3
				c0-1.2,0.3-2.3,0.9-3.3c0.6-1,1.4-1.8,2.4-2.3c1-0.6,2.2-0.8,3.4-0.8c0.9,0,1.8,0.2,2.7,0.6s1.6,0.9,2.3,1.5l-1.7,2
				C723,301.8,722.5,301.4,721.9,301.1z"/>
			<path class="st11" d="M735.9,311l-1-2.4h-5.8l-1,2.4h-2.9l5.5-12.6h2.9L739,311H735.9z M730.1,306.3h4l-2-4.9L730.1,306.3z"/>
			<path class="st11" d="M740.3,298.4h3.2l3.9,7.7l3.9-7.7h3.1V311h-2.6v-8.5l-3.6,7.2h-1.8l-3.6-7.2v8.5h-2.6V298.4z"/>
			<path class="st11" d="M766.3,299.5c0.9,0.8,1.3,1.8,1.3,3.2c0,1.5-0.4,2.6-1.3,3.4c-0.9,0.8-2.1,1.2-3.7,1.2h-2.5v3.6h-2.8v-12.6
				h5.3C764.2,298.4,765.4,298.8,766.3,299.5z M764.3,304.5c0.4-0.4,0.6-0.9,0.6-1.6c0-0.7-0.2-1.2-0.6-1.6c-0.4-0.4-1-0.5-1.8-0.5
				h-2.4v4.3h2.4C763.2,305,763.8,304.8,764.3,304.5z"/>
			<path class="st11" d="M777.9,304.6h2.5v4.9c-0.7,0.5-1.5,0.9-2.4,1.2c-0.9,0.3-1.8,0.5-2.7,0.5c-1.3,0-2.4-0.3-3.4-0.9
				c-1-0.6-1.8-1.3-2.4-2.3c-0.6-1-0.9-2.1-0.9-3.3c0-1.2,0.3-2.3,0.9-3.3c0.6-1,1.4-1.8,2.5-2.3c1.1-0.6,2.2-0.8,3.5-0.8
				c0.9,0,1.9,0.2,2.7,0.5s1.7,0.8,2.3,1.4l-1.6,2c-0.5-0.4-1-0.8-1.6-1c-0.6-0.3-1.2-0.4-1.8-0.4c-0.7,0-1.4,0.2-2,0.5
				c-0.6,0.4-1.1,0.8-1.4,1.4s-0.5,1.3-0.5,2s0.2,1.4,0.5,2c0.4,0.6,0.8,1.1,1.4,1.5s1.3,0.5,2,0.5c0.4,0,0.8-0.1,1.2-0.2
				s0.9-0.3,1.3-0.5V304.6z"/>
			<path class="st11" d="M790.6,311l-2-3.6h-0.3h-2.6v3.6h-2.8v-12.6h5.5c1.6,0,2.9,0.4,3.8,1.1c0.9,0.8,1.4,1.8,1.4,3.2
				c0,1-0.2,1.8-0.6,2.5s-1,1.2-1.8,1.6l2.7,4.2H790.6z M785.7,305h2.6c0.8,0,1.4-0.2,1.8-0.5c0.4-0.4,0.6-0.9,0.6-1.6
				c0-0.7-0.2-1.2-0.6-1.6c-0.4-0.4-1-0.5-1.8-0.5h-2.6V305z"/>
			<path class="st11" d="M805.2,299c1,0.6,1.8,1.3,2.4,2.3c0.6,1,0.9,2.1,0.9,3.3s-0.3,2.3-0.9,3.3c-0.6,1-1.4,1.8-2.4,2.3
				c-1,0.6-2.2,0.9-3.4,0.9c-1.3,0-2.4-0.3-3.4-0.9c-1-0.6-1.8-1.3-2.4-2.3c-0.6-1-0.9-2.1-0.9-3.3c0-1.2,0.3-2.3,0.9-3.3
				c0.6-1,1.4-1.8,2.4-2.3c1-0.6,2.2-0.8,3.4-0.8C803,298.2,804.1,298.5,805.2,299z M799.8,301.2c-0.6,0.4-1.1,0.8-1.4,1.4
				s-0.5,1.3-0.5,2c0,0.7,0.2,1.4,0.5,2c0.4,0.6,0.8,1.1,1.4,1.5c0.6,0.4,1.2,0.5,1.9,0.5c0.7,0,1.3-0.2,1.9-0.5s1-0.8,1.4-1.5
				c0.3-0.6,0.5-1.3,0.5-2c0-0.7-0.2-1.4-0.5-2c-0.3-0.6-0.8-1.1-1.4-1.4c-0.6-0.4-1.2-0.5-1.9-0.5
				C801.1,300.7,800.4,300.9,799.8,301.2z"/>
			<path class="st11" d="M813.8,307.9c0.5,0.5,1.2,0.8,2,0.8c0.8,0,1.5-0.3,2-0.8c0.5-0.5,0.7-1.2,0.7-2.1v-7.4h2.8v7.4
				c0,1.1-0.2,2.1-0.7,2.9s-1.1,1.4-1.9,1.9s-1.8,0.7-3,0.7c-1.1,0-2.1-0.2-3-0.7s-1.5-1.1-2-1.9s-0.7-1.8-0.7-2.9v-7.4h2.8v7.4
				C813,306.7,813.3,307.4,813.8,307.9z"/>
			<path class="st11" d="M832.6,298.4h2.7V311h-2.6l-6.1-8.1v8.1h-2.7v-12.6h2.6l6.1,8.1V298.4z"/>
			<path class="st11" d="M846.9,299.2c1,0.5,1.8,1.3,2.3,2.2s0.8,2,0.8,3.3c0,1.2-0.3,2.3-0.9,3.3c-0.6,1-1.4,1.7-2.4,2.2
				c-1,0.5-2.2,0.8-3.5,0.8h-5.2v-12.6h5.3C844.7,298.4,845.9,298.7,846.9,299.2z M845.4,308.1c0.6-0.3,1-0.8,1.3-1.4
				c0.3-0.6,0.5-1.3,0.5-2c0-0.8-0.2-1.4-0.5-2s-0.8-1.1-1.4-1.4s-1.2-0.5-1.9-0.5H841v7.8h2.6C844.2,308.6,844.9,308.4,845.4,308.1
				z"/>
		</g>
		<rect x="1113" y="163" class="st9" width="22" height="156"/>
		<line class="st4" x1="1112.5" y1="184.5" x2="1134.5" y2="184.5"/>
		<line class="st4" x1="1113.5" y1="230" x2="1135.5" y2="230"/>
		<line class="st4" x1="1113" y1="274.5" x2="1135" y2="274.5"/>
		<rect x="1093.5" y="453.5" class="st9" width="68" height="68.5"/>
		<rect x="1117" y="340.5" class="st9" width="43.5" height="91.5"/>
		<g class="st10">
			<path class="st8" d="M1151,360.2v1.3h-5.6v-1.3H1151z"/>
			<path class="st8" d="M1151,366.6v1.2h-5.6v-1.2l3.6-2.7h-3.6v-1.2h5.6v1.2l-3.6,2.7H1151z"/>
			<path class="st8" d="M1150.7,373c-0.2,0.4-0.6,0.8-1,1c-0.4,0.2-0.9,0.4-1.5,0.4s-1-0.1-1.5-0.4c-0.4-0.3-0.8-0.6-1-1.1
				c-0.2-0.5-0.4-1-0.4-1.6v-2.3h5.6v2.4C1151,372,1150.9,372.5,1150.7,373z M1146.7,372.3c0.1,0.2,0.4,0.4,0.6,0.6
				c0.3,0.1,0.6,0.2,0.9,0.2s0.6-0.1,0.9-0.2c0.3-0.1,0.5-0.3,0.6-0.6c0.1-0.3,0.2-0.5,0.2-0.9v-1.1h-3.5v1.1
				C1146.5,371.8,1146.6,372.1,1146.7,372.3z"/>
			<path class="st8" d="M1146.8,376.7c-0.2,0.2-0.3,0.5-0.3,0.9c0,0.4,0.1,0.7,0.3,0.9c0.2,0.2,0.5,0.3,1,0.3h3.3v1.3h-3.3
				c-0.5,0-0.9-0.1-1.3-0.3s-0.6-0.5-0.8-0.9s-0.3-0.8-0.3-1.3c0-0.5,0.1-1,0.3-1.3c0.2-0.4,0.5-0.7,0.8-0.9
				c0.4-0.2,0.8-0.3,1.3-0.3h3.3v1.3h-3.3C1147.4,376.4,1147,376.5,1146.8,376.7z"/>
			<path class="st8" d="M1149.9,384c0.1-0.3,0.2-0.6,0.2-0.8c0-0.2,0-0.4-0.1-0.5s-0.2-0.2-0.4-0.2c-0.2,0-0.3,0.1-0.5,0.3
				c-0.1,0.2-0.2,0.5-0.3,0.9c-0.1,0.4-0.2,0.7-0.3,0.9s-0.3,0.5-0.5,0.6c-0.2,0.2-0.5,0.3-0.9,0.3c-0.4,0-0.7-0.1-0.9-0.3
				s-0.5-0.4-0.6-0.8c-0.1-0.3-0.2-0.7-0.2-1.1c0-0.5,0.1-0.9,0.2-1.3s0.4-0.8,0.7-1.1l1,0.5c-0.3,0.3-0.5,0.6-0.6,1
				c-0.2,0.4-0.2,0.7-0.2,1c0,0.3,0,0.5,0.1,0.6s0.2,0.2,0.4,0.2c0.1,0,0.3,0,0.4-0.1s0.2-0.2,0.2-0.4s0.1-0.4,0.2-0.6
				c0.1-0.4,0.2-0.7,0.3-0.9c0.1-0.2,0.3-0.5,0.5-0.6s0.5-0.3,0.9-0.3c0.3,0,0.6,0.1,0.9,0.3c0.3,0.2,0.4,0.4,0.6,0.8
				c0.1,0.3,0.2,0.7,0.2,1.1c0,0.4-0.1,0.8-0.2,1.1s-0.3,0.7-0.4,1l-1-0.5C1149.7,384.6,1149.8,384.3,1149.9,384z"/>
			<path class="st8" d="M1151,385.8v4.7h-1.1v-1.7h-4.5v-1.3h4.5v-1.7H1151z"/>
			<path class="st8" d="M1145.4,394.6l1.6-0.9v-0.1v-1.2h-1.6v-1.3h5.6v2.4c0,0.7-0.2,1.3-0.5,1.7c-0.3,0.4-0.8,0.6-1.4,0.6
				c-0.4,0-0.8-0.1-1.1-0.3s-0.5-0.4-0.7-0.8l-1.8,1.2V394.6z M1148.1,392.4v1.2c0,0.4,0.1,0.6,0.2,0.8c0.2,0.2,0.4,0.3,0.7,0.3
				c0.3,0,0.5-0.1,0.7-0.3c0.2-0.2,0.2-0.5,0.2-0.8v-1.2H1148.1z"/>
			<path class="st8" d="M1151,396.9v1.3h-5.6v-1.3H1151z"/>
			<path class="st8" d="M1151,399.4v4.3h-1v-3h-1.2v2.7h-1v-2.7h-1.2v3.1h-1v-4.4H1151z"/>
			<path class="st8" d="M1149.9,407.5c0.1-0.3,0.2-0.6,0.2-0.8c0-0.2,0-0.4-0.1-0.5s-0.2-0.2-0.4-0.2c-0.2,0-0.3,0.1-0.5,0.3
				c-0.1,0.2-0.2,0.5-0.3,0.9c-0.1,0.4-0.2,0.7-0.3,0.9s-0.3,0.5-0.5,0.6c-0.2,0.2-0.5,0.3-0.9,0.3c-0.4,0-0.7-0.1-0.9-0.3
				s-0.5-0.4-0.6-0.8c-0.1-0.3-0.2-0.7-0.2-1.1c0-0.5,0.1-0.9,0.2-1.3s0.4-0.8,0.7-1.1l1,0.5c-0.3,0.3-0.5,0.6-0.6,1
				c-0.2,0.4-0.2,0.7-0.2,1c0,0.3,0,0.5,0.1,0.6s0.2,0.2,0.4,0.2c0.1,0,0.3,0,0.4-0.1s0.2-0.2,0.2-0.4s0.1-0.4,0.2-0.6
				c0.1-0.4,0.2-0.7,0.3-0.9c0.1-0.2,0.3-0.5,0.5-0.6s0.5-0.3,0.9-0.3c0.3,0,0.6,0.1,0.9,0.3c0.3,0.2,0.4,0.4,0.6,0.8
				c0.1,0.3,0.2,0.7,0.2,1.1c0,0.4-0.1,0.8-0.2,1.1s-0.3,0.7-0.4,1l-1-0.5C1149.7,408.2,1149.8,407.9,1149.9,407.5z"/>
			<path class="st8" d="M1140.9,369.5c-0.3,0.4-0.8,0.6-1.4,0.6c-0.7,0-1.2-0.2-1.5-0.6c-0.4-0.4-0.5-0.9-0.5-1.7v-1.1h-1.6v-1.3
				h5.6v2.4C1141.4,368.6,1141.3,369.1,1140.9,369.5z M1138.7,368.6c0.2,0.2,0.4,0.3,0.7,0.3c0.3,0,0.5-0.1,0.7-0.3s0.2-0.5,0.2-0.8
				v-1h-1.9v1C1138.5,368.2,1138.6,368.4,1138.7,368.6z"/>
			<path class="st8" d="M1135.8,374.7l1.1-0.4v-2.6l-1.1-0.4v-1.3l5.6,2.4v1.3l-5.6,2.4V374.7z M1137.9,372v1.8l2.2-0.9L1137.9,372z
				"/>
			<path class="st8" d="M1135.8,380l1.6-0.9V379v-1.2h-1.6v-1.3h5.6v2.4c0,0.7-0.2,1.3-0.5,1.7c-0.3,0.4-0.8,0.6-1.4,0.6
				c-0.4,0-0.8-0.1-1.1-0.3s-0.5-0.4-0.7-0.8l-1.8,1.2V380z M1138.5,377.9v1.2c0,0.4,0.1,0.6,0.2,0.8c0.2,0.2,0.4,0.3,0.7,0.3
				c0.3,0,0.5-0.1,0.7-0.3c0.2-0.2,0.2-0.5,0.2-0.8v-1.2H1138.5z"/>
			<path class="st8" d="M1141.4,381.8v4.7h-1.1v-1.7h-4.5v-1.3h4.5v-1.7H1141.4z"/>
			<path class="st8" d="M1141.4,391.1v1.2h-5.6v-1.2l3.6-2.7h-3.6v-1.2h5.6v1.2l-3.6,2.7H1141.4z"/>
			<path class="st8" d="M1141.4,393.5v4.3h-1v-3h-1.2v2.7h-1v-2.7h-1.2v3.1h-1v-4.4H1141.4z"/>
			<path class="st8" d="M1135.8,402.3l1.6-0.9v-0.1v-1.2h-1.6v-1.3h5.6v2.4c0,0.7-0.2,1.3-0.5,1.7c-0.3,0.4-0.8,0.6-1.4,0.6
				c-0.4,0-0.8-0.1-1.1-0.3s-0.5-0.4-0.7-0.8l-1.8,1.2V402.3z M1138.5,400.1v1.2c0,0.4,0.1,0.6,0.2,0.8c0.2,0.2,0.4,0.3,0.7,0.3
				c0.3,0,0.5-0.1,0.7-0.3c0.2-0.2,0.2-0.5,0.2-0.8v-1.2H1138.5z"/>
			<path class="st8" d="M1131.8,365.6v4.7h-1.1v-1.7h-4.5v-1.3h4.5v-1.7H1131.8z"/>
			<path class="st8" d="M1131.8,370.9v1.3h-2.3v2.5h2.3v1.3h-5.6v-1.3h2.2v-2.5h-2.2v-1.3H1131.8z"/>
			<path class="st8" d="M1131.8,377.2v4.3h-1v-3h-1.2v2.7h-1v-2.7h-1.2v3.1h-1v-4.4H1131.8z"/>
			<path class="st8" d="M1126.2,386.7l1.1-0.4v-2.6l-1.1-0.4v-1.3l5.6,2.4v1.3l-5.6,2.4V386.7z M1128.3,384.1v1.8l2.2-0.9
				L1128.3,384.1z"/>
			<path class="st8" d="M1131.8,387.5v4.7h-1.1v-1.7h-4.5v-1.3h4.5v-1.7H1131.8z"/>
			<path class="st8" d="M1131.8,392.9v4.3h-1v-3h-1.2v2.7h-1v-2.7h-1.2v3.1h-1v-4.4H1131.8z"/>
			<path class="st8" d="M1126.2,401.6l1.6-0.9v-0.1v-1.2h-1.6v-1.3h5.6v2.4c0,0.7-0.2,1.3-0.5,1.7c-0.3,0.4-0.8,0.6-1.4,0.6
				c-0.4,0-0.8-0.1-1.1-0.3s-0.5-0.4-0.7-0.8l-1.8,1.2V401.6z M1128.9,399.5v1.2c0,0.4,0.1,0.6,0.2,0.8c0.2,0.2,0.4,0.3,0.7,0.3
				c0.3,0,0.5-0.1,0.7-0.3c0.2-0.2,0.2-0.5,0.2-0.8v-1.2H1128.9z"/>
		</g>
		<rect x="1139" y="544" class="st9" width="23.5" height="45.5"/>
		<g class="st10">
			<path class="st8" d="M1153,548.3v1.3h-4.5v2.4h-1.1v-3.7H1153z"/>
			<path class="st8" d="M1152.8,556.9c-0.3,0.5-0.6,0.8-1,1.1c-0.4,0.3-0.9,0.4-1.5,0.4c-0.5,0-1-0.1-1.5-0.4s-0.8-0.6-1-1.1
				s-0.4-1-0.4-1.5s0.1-1.1,0.4-1.5c0.3-0.5,0.6-0.8,1-1.1c0.4-0.3,0.9-0.4,1.5-0.4c0.5,0,1,0.1,1.5,0.4c0.4,0.3,0.8,0.6,1,1.1
				c0.3,0.5,0.4,1,0.4,1.5C1153.1,555.9,1153,556.4,1152.8,556.9z M1151.8,554.5c-0.2-0.3-0.4-0.5-0.6-0.6s-0.6-0.2-0.9-0.2
				c-0.3,0-0.6,0.1-0.9,0.2c-0.3,0.2-0.5,0.4-0.6,0.6s-0.2,0.6-0.2,0.9s0.1,0.6,0.2,0.9c0.2,0.3,0.4,0.5,0.6,0.6
				c0.3,0.2,0.6,0.2,0.9,0.2c0.3,0,0.6-0.1,0.9-0.2s0.5-0.4,0.6-0.6c0.2-0.3,0.2-0.5,0.2-0.9S1152,554.8,1151.8,554.5z"/>
			<path class="st8" d="M1148.8,560.7c-0.2,0.2-0.3,0.5-0.3,0.9c0,0.4,0.1,0.7,0.3,0.9c0.2,0.2,0.5,0.3,1,0.3h3.3v1.3h-3.3
				c-0.5,0-0.9-0.1-1.3-0.3c-0.4-0.2-0.6-0.5-0.8-0.9s-0.3-0.8-0.3-1.3s0.1-0.9,0.3-1.3s0.5-0.7,0.8-0.9c0.4-0.2,0.8-0.3,1.3-0.3
				h3.3v1.3h-3.3C1149.4,560.3,1149,560.5,1148.8,560.7z"/>
			<path class="st8" d="M1153,569.1v1.2h-5.6v-1.2l3.6-2.7h-3.6v-1.2h5.6v1.2l-3.6,2.7H1153z"/>
			<path class="st8" d="M1150.3,575.3v1.1h-2.2c-0.2-0.3-0.4-0.7-0.5-1.1s-0.2-0.8-0.2-1.2c0-0.6,0.1-1.1,0.4-1.5s0.6-0.8,1-1.1
				c0.4-0.3,0.9-0.4,1.5-0.4c0.5,0,1,0.1,1.5,0.4c0.4,0.3,0.8,0.6,1,1.1c0.3,0.5,0.4,1,0.4,1.6c0,0.4-0.1,0.8-0.2,1.2
				c-0.1,0.4-0.4,0.7-0.6,1l-0.9-0.7c0.2-0.2,0.4-0.4,0.5-0.7c0.1-0.3,0.2-0.5,0.2-0.8c0-0.3-0.1-0.6-0.2-0.9
				c-0.2-0.3-0.4-0.5-0.6-0.6c-0.3-0.2-0.6-0.2-0.9-0.2c-0.3,0-0.6,0.1-0.9,0.2c-0.3,0.2-0.5,0.4-0.6,0.6s-0.2,0.6-0.2,0.9
				c0,0.2,0,0.3,0.1,0.5c0.1,0.2,0.1,0.4,0.2,0.6H1150.3z"/>
			<path class="st8" d="M1153,577.5v4.3h-1v-3h-1.2v2.7h-1v-2.7h-1.2v3.1h-1v-4.4H1153z"/>
		</g>
		<rect x="1184.7" y="252" class="st9" width="21.3" height="178.7"/>
		<line class="st4" x1="1184.7" y1="296.7" x2="1204.7" y2="296.7"/>
		<line class="st4" x1="1183.3" y1="342.7" x2="1206.7" y2="342.7"/>
		<line class="st4" x1="1182.7" y1="386" x2="1205.3" y2="386"/>
		<rect x="1210.7" y="252" class="st9" width="21.3" height="178.7"/>
		<line class="st4" x1="1210.7" y1="296.7" x2="1230.7" y2="296.7"/>
		<line class="st4" x1="1209.3" y1="342.7" x2="1232.7" y2="342.7"/>
		<line class="st4" x1="1208.7" y1="386" x2="1231.3" y2="386"/>
		<line class="st4" x1="1210" y1="275" x2="1232" y2="275"/>
		<line class="st4" x1="1211" y1="319.5" x2="1231" y2="319.5"/>
		<line class="st4" x1="1210.5" y1="363.5" x2="1232" y2="363.5"/>
		<g>
			<rect x="1250.2" y="252.5" class="st9" width="21.5" height="180"/>
			<line class="st4" x1="1250.2" y1="271.5" x2="1272.2" y2="271.5"/>
			<line class="st4" x1="1250.2" y1="289" x2="1272.2" y2="289"/>
			<line class="st4" x1="1250.2" y1="306.8" x2="1272.2" y2="306.8"/>
			<line class="st4" x1="1250.2" y1="325" x2="1272.2" y2="325"/>
			<line class="st4" x1="1250.2" y1="343" x2="1272.2" y2="343"/>
			<line class="st4" x1="1250.2" y1="360.4" x2="1272.2" y2="360.4"/>
			<line class="st4" x1="1250.2" y1="378.6" x2="1272.2" y2="378.6"/>
			<line class="st4" x1="1250.2" y1="396.6" x2="1272.2" y2="396.6"/>
			<line class="st4" x1="1250.2" y1="414.3" x2="1272.2" y2="414.3"/>
		</g>
		<g>
			<rect x="1275.2" y="252.5" class="st9" width="21.5" height="180"/>
			<line class="st4" x1="1275.2" y1="271.5" x2="1297.2" y2="271.5"/>
			<line class="st4" x1="1275.2" y1="289" x2="1297.2" y2="289"/>
			<line class="st4" x1="1275.2" y1="306.8" x2="1297.2" y2="306.8"/>
			<line class="st4" x1="1275.2" y1="325" x2="1297.2" y2="325"/>
			<line class="st4" x1="1275.2" y1="343" x2="1297.2" y2="343"/>
			<line class="st4" x1="1275.2" y1="360.4" x2="1297.2" y2="360.4"/>
			<line class="st4" x1="1275.2" y1="378.6" x2="1297.2" y2="378.6"/>
			<line class="st4" x1="1275.2" y1="396.6" x2="1297.2" y2="396.6"/>
			<line class="st4" x1="1275.2" y1="414.3" x2="1297.2" y2="414.3"/>
		</g>
		<g>
			<g>
				<rect x="1281.2" y="453.5" class="st9" width="21.5" height="197"/>
				<line class="st4" x1="1281.2" y1="472.5" x2="1303.2" y2="472.5"/>
				<line class="st4" x1="1281.2" y1="490" x2="1303.2" y2="490"/>
				<line class="st4" x1="1281.2" y1="507.8" x2="1303.2" y2="507.8"/>
				<line class="st4" x1="1281.2" y1="526" x2="1303.2" y2="526"/>
				<line class="st4" x1="1281.2" y1="544" x2="1303.2" y2="544"/>
				<line class="st4" x1="1281.2" y1="561.4" x2="1303.2" y2="561.4"/>
				<line class="st4" x1="1281.2" y1="579.6" x2="1303.2" y2="579.6"/>
				<line class="st4" x1="1281.2" y1="597.6" x2="1303.2" y2="597.6"/>
				<line class="st4" x1="1281.2" y1="615.3" x2="1303.2" y2="615.3"/>
			</g>
			<line class="st4" x1="1281.5" y1="633.5" x2="1303" y2="633.5"/>
		</g>
		<g>
			<g>
				<rect x="1323.7" y="453.5" class="st9" width="21.5" height="197"/>
				<line class="st4" x1="1323.7" y1="472.5" x2="1345.7" y2="472.5"/>
				<line class="st4" x1="1323.7" y1="490" x2="1345.7" y2="490"/>
				<line class="st4" x1="1323.7" y1="507.8" x2="1345.7" y2="507.8"/>
				<line class="st4" x1="1323.7" y1="526" x2="1345.7" y2="526"/>
				<line class="st4" x1="1323.7" y1="544" x2="1345.7" y2="544"/>
				<line class="st4" x1="1323.7" y1="561.4" x2="1345.7" y2="561.4"/>
				<line class="st4" x1="1323.7" y1="579.6" x2="1345.7" y2="579.6"/>
				<line class="st4" x1="1323.7" y1="597.6" x2="1345.7" y2="597.6"/>
				<line class="st4" x1="1323.7" y1="615.3" x2="1345.7" y2="615.3"/>
			</g>
			<line class="st4" x1="1324" y1="633.5" x2="1345.5" y2="633.5"/>
		</g>
		<g>
			<g>
				<rect x="1348.7" y="453.5" class="st9" width="21.5" height="197"/>
				<line class="st4" x1="1348.7" y1="472.5" x2="1370.7" y2="472.5"/>
				<line class="st4" x1="1348.7" y1="490" x2="1370.7" y2="490"/>
				<line class="st4" x1="1348.7" y1="507.8" x2="1370.7" y2="507.8"/>
				<line class="st4" x1="1348.7" y1="526" x2="1370.7" y2="526"/>
				<line class="st4" x1="1348.7" y1="544" x2="1370.7" y2="544"/>
				<line class="st4" x1="1348.7" y1="561.4" x2="1370.7" y2="561.4"/>
				<line class="st4" x1="1348.7" y1="579.6" x2="1370.7" y2="579.6"/>
				<line class="st4" x1="1348.7" y1="597.6" x2="1370.7" y2="597.6"/>
				<line class="st4" x1="1348.7" y1="615.3" x2="1370.7" y2="615.3"/>
			</g>
			<line class="st4" x1="1349" y1="633.5" x2="1370.5" y2="633.5"/>
		</g>
		<g>
			<g>
				<rect x="1455.7" y="453.5" class="st9" width="21.5" height="197"/>
				<line class="st4" x1="1455.7" y1="472.5" x2="1477.7" y2="472.5"/>
				<line class="st4" x1="1455.7" y1="490" x2="1477.7" y2="490"/>
				<line class="st4" x1="1455.7" y1="507.8" x2="1477.7" y2="507.8"/>
				<line class="st4" x1="1455.7" y1="526" x2="1477.7" y2="526"/>
				<line class="st4" x1="1455.7" y1="544" x2="1477.7" y2="544"/>
				<line class="st4" x1="1455.7" y1="561.4" x2="1477.7" y2="561.4"/>
				<line class="st4" x1="1455.7" y1="579.6" x2="1477.7" y2="579.6"/>
				<line class="st4" x1="1455.7" y1="597.6" x2="1477.7" y2="597.6"/>
				<line class="st4" x1="1455.7" y1="615.3" x2="1477.7" y2="615.3"/>
			</g>
			<line class="st4" x1="1456" y1="633.5" x2="1477.5" y2="633.5"/>
		</g>
		<g>
			<rect x="1389.5" y="453" class="st9" width="22" height="108"/>
			<line class="st4" x1="1389" y1="472" x2="1412.5" y2="472"/>
			<line class="st4" x1="1389.5" y1="490.5" x2="1411.5" y2="490.5"/>
			<line class="st4" x1="1390" y1="508" x2="1411.5" y2="508"/>
			<line class="st4" x1="1389" y1="526" x2="1412" y2="526"/>
			<line class="st4" x1="1390" y1="542.5" x2="1411" y2="542.5"/>
		</g>
		<g>
			<rect x="1415.5" y="453" class="st9" width="22" height="108"/>
			<line class="st4" x1="1415" y1="472" x2="1438.5" y2="472"/>
			<line class="st4" x1="1415.5" y1="490.5" x2="1437.5" y2="490.5"/>
			<line class="st4" x1="1416" y1="508" x2="1437.5" y2="508"/>
			<line class="st4" x1="1415" y1="526" x2="1438" y2="526"/>
			<line class="st4" x1="1416" y1="542.5" x2="1437" y2="542.5"/>
		</g>
		<g>
			<rect x="1386" y="587.7" class="st9" width="45.5" height="67.5"/>
			<g class="st10">
				<path class="st8" d="M1394.1,611.6c0.4,0.3,0.6,0.8,0.6,1.4c0,0.7-0.2,1.2-0.6,1.5c-0.4,0.4-0.9,0.5-1.7,0.5h-1.1v1.6h-1.3v-5.6
					h2.4C1393.1,611.1,1393.7,611.2,1394.1,611.6z M1393.2,613.8c0.2-0.2,0.3-0.4,0.3-0.7c0-0.3-0.1-0.5-0.3-0.7s-0.5-0.2-0.8-0.2
					h-1v1.9h1C1392.7,614,1393,613.9,1393.2,613.8z"/>
				<path class="st8" d="M1399.2,616.7l-0.4-1.1h-2.6l-0.4,1.1h-1.3l2.4-5.6h1.3l2.4,5.6H1399.2z M1396.6,614.6h1.8l-0.9-2.2
					L1396.6,614.6z"/>
				<path class="st8" d="M1404.6,616.7l-0.9-1.6h-0.1h-1.2v1.6h-1.3v-5.6h2.4c0.7,0,1.3,0.2,1.7,0.5c0.4,0.3,0.6,0.8,0.6,1.4
					c0,0.4-0.1,0.8-0.3,1.1s-0.4,0.5-0.8,0.7l1.2,1.8H1404.6z M1402.4,614h1.2c0.4,0,0.6-0.1,0.8-0.2c0.2-0.2,0.3-0.4,0.3-0.7
					c0-0.3-0.1-0.5-0.3-0.7s-0.5-0.2-0.8-0.2h-1.2V614z"/>
				<path class="st8" d="M1406.4,611.1h4.7v1.1h-1.7v4.5h-1.3v-4.5h-1.7V611.1z"/>
				<path class="st8" d="M1415.6,611.1h1.2v5.6h-1.2l-2.7-3.6v3.6h-1.2v-5.6h1.2l2.7,3.6V611.1z"/>
				<path class="st8" d="M1418,611.1h4.3v1h-3v1.2h2.7v1h-2.7v1.2h3.1v1h-4.4V611.1z"/>
				<path class="st8" d="M1426.8,616.7l-0.9-1.6h-0.1h-1.2v1.6h-1.3v-5.6h2.4c0.7,0,1.3,0.2,1.7,0.5c0.4,0.3,0.6,0.8,0.6,1.4
					c0,0.4-0.1,0.8-0.3,1.1c-0.2,0.3-0.4,0.5-0.8,0.7l1.2,1.8H1426.8z M1424.7,614h1.2c0.4,0,0.6-0.1,0.8-0.2
					c0.2-0.2,0.3-0.4,0.3-0.7c0-0.3-0.1-0.5-0.3-0.7s-0.5-0.2-0.8-0.2h-1.2V614z"/>
				<path class="st8" d="M1390.1,620.7h4.7v1.1h-1.7v4.5h-1.3v-4.5h-1.7V620.7z"/>
				<path class="st8" d="M1395.5,620.7h1.3v2.3h2.5v-2.3h1.3v5.6h-1.3v-2.2h-2.5v2.2h-1.3V620.7z"/>
				<path class="st8" d="M1401.8,620.7h4.3v1h-3v1.2h2.7v1h-2.7v1.2h3.1v1h-4.4V620.7z"/>
				<path class="st8" d="M1411.3,626.3l-0.4-1.1h-2.6l-0.4,1.1h-1.3l2.4-5.6h1.3l2.4,5.6H1411.3z M1408.6,624.2h1.8l-0.9-2.2
					L1408.6,624.2z"/>
				<path class="st8" d="M1412.1,620.7h4.7v1.1h-1.7v4.5h-1.3v-4.5h-1.7V620.7z"/>
				<path class="st8" d="M1417.4,620.7h4.3v1h-3v1.2h2.7v1h-2.7v1.2h3.1v1h-4.4V620.7z"/>
				<path class="st8" d="M1426.2,626.3l-0.9-1.6h-0.1h-1.2v1.6h-1.3v-5.6h2.4c0.7,0,1.3,0.2,1.7,0.5c0.4,0.3,0.6,0.8,0.6,1.4
					c0,0.4-0.1,0.8-0.3,1.1c-0.2,0.3-0.4,0.5-0.8,0.7l1.2,1.8H1426.2z M1424,623.6h1.2c0.4,0,0.6-0.1,0.8-0.2
					c0.2-0.2,0.3-0.4,0.3-0.7c0-0.3-0.1-0.5-0.3-0.7s-0.5-0.2-0.8-0.2h-1.2V623.6z"/>
				<path class="st8" d="M1410.6,633.1c0.3,0.3,0.4,0.6,0.4,1c0,0.4-0.1,0.7-0.3,0.9c-0.2,0.3-0.4,0.5-0.8,0.6
					c-0.3,0.2-0.7,0.2-1.2,0.2c-0.4,0-0.8-0.1-1.2-0.2s-0.7-0.3-1-0.5l0.5-0.9c0.2,0.2,0.5,0.3,0.7,0.4c0.3,0.1,0.5,0.2,0.8,0.2
					c0.4,0,0.6-0.1,0.8-0.2s0.3-0.3,0.3-0.6s-0.1-0.4-0.3-0.6s-0.5-0.2-0.8-0.2h-0.9v-0.7l1.4-1.4h-2.2l0-1h3.8v0.8l-1.6,1.5l0.3,0
					C1410,632.6,1410.4,632.8,1410.6,633.1z"/>
			</g>
		</g>
		<g>
			<rect x="1322.7" y="365.7" class="st9" width="45.5" height="67.5"/>
			<g class="st10">
				<path class="st8" d="M1330.7,389.6c0.4,0.3,0.6,0.8,0.6,1.4c0,0.7-0.2,1.2-0.6,1.5c-0.4,0.4-0.9,0.5-1.7,0.5h-1.1v1.6h-1.3v-5.6
					h2.4C1329.8,389.1,1330.4,389.2,1330.7,389.6z M1329.8,391.8c0.2-0.2,0.3-0.4,0.3-0.7c0-0.3-0.1-0.5-0.3-0.7s-0.5-0.2-0.8-0.2
					h-1v1.9h1C1329.4,392,1329.7,391.9,1329.8,391.8z"/>
				<path class="st8" d="M1335.9,394.7l-0.4-1.1h-2.6l-0.4,1.1h-1.3l2.4-5.6h1.3l2.4,5.6H1335.9z M1333.3,392.6h1.8l-0.9-2.2
					L1333.3,392.6z"/>
				<path class="st8" d="M1341.3,394.7l-0.9-1.6h-0.1h-1.2v1.6h-1.3v-5.6h2.4c0.7,0,1.3,0.2,1.7,0.5c0.4,0.3,0.6,0.8,0.6,1.4
					c0,0.4-0.1,0.8-0.3,1.1c-0.2,0.3-0.4,0.5-0.8,0.7l1.2,1.8H1341.3z M1339.1,392h1.2c0.4,0,0.6-0.1,0.8-0.2s0.3-0.4,0.3-0.7
					c0-0.3-0.1-0.5-0.3-0.7s-0.5-0.2-0.8-0.2h-1.2V392z"/>
				<path class="st8" d="M1343.1,389.1h4.7v1.1h-1.7v4.5h-1.3v-4.5h-1.7V389.1z"/>
				<path class="st8" d="M1352.3,389.1h1.2v5.6h-1.2l-2.7-3.6v3.6h-1.2v-5.6h1.2l2.7,3.6V389.1z"/>
				<path class="st8" d="M1354.7,389.1h4.3v1h-3v1.2h2.7v1h-2.7v1.2h3.1v1h-4.4V389.1z"/>
				<path class="st8" d="M1363.5,394.7l-0.9-1.6h-0.1h-1.2v1.6h-1.3v-5.6h2.4c0.7,0,1.3,0.2,1.7,0.5c0.4,0.3,0.6,0.8,0.6,1.4
					c0,0.4-0.1,0.8-0.3,1.1s-0.4,0.5-0.8,0.7l1.2,1.8H1363.5z M1361.3,392h1.2c0.4,0,0.6-0.1,0.8-0.2s0.3-0.4,0.3-0.7
					c0-0.3-0.1-0.5-0.3-0.7s-0.5-0.2-0.8-0.2h-1.2V392z"/>
				<path class="st8" d="M1326.8,398.7h4.7v1.1h-1.7v4.5h-1.3v-4.5h-1.7V398.7z"/>
				<path class="st8" d="M1332.2,398.7h1.3v2.3h2.5v-2.3h1.3v5.6h-1.3v-2.2h-2.5v2.2h-1.3V398.7z"/>
				<path class="st8" d="M1338.4,398.7h4.3v1h-3v1.2h2.7v1h-2.7v1.2h3.1v1h-4.4V398.7z"/>
				<path class="st8" d="M1347.9,404.3l-0.4-1.1h-2.6l-0.4,1.1h-1.3l2.4-5.6h1.3l2.4,5.6H1347.9z M1345.3,402.2h1.8l-0.9-2.2
					L1345.3,402.2z"/>
				<path class="st8" d="M1348.7,398.7h4.7v1.1h-1.7v4.5h-1.3v-4.5h-1.7V398.7z"/>
				<path class="st8" d="M1354.1,398.7h4.3v1h-3v1.2h2.7v1h-2.7v1.2h3.1v1h-4.4V398.7z"/>
				<path class="st8" d="M1362.9,404.3l-0.9-1.6h-0.1h-1.2v1.6h-1.3v-5.6h2.4c0.7,0,1.3,0.2,1.7,0.5c0.4,0.3,0.6,0.8,0.6,1.4
					c0,0.4-0.1,0.8-0.3,1.1s-0.4,0.5-0.8,0.7l1.2,1.8H1362.9z M1360.7,401.6h1.2c0.4,0,0.6-0.1,0.8-0.2s0.3-0.4,0.3-0.7
					c0-0.3-0.1-0.5-0.3-0.7s-0.5-0.2-0.8-0.2h-1.2V401.6z"/>
				<path class="st8" d="M1347.8,411.6v1h-0.8v1.3h-1.2v-1.3h-2.6v-0.9l1.7-3.4h1.2l-1.6,3.3h1.3v-1.2h1.2v1.2H1347.8z"/>
			</g>
		</g>
		<g>
			<rect x="1299.3" y="693" class="st9" width="111.5" height="44.5"/>
			<text transform="matrix(1 0 0 1 1341.3217 711)" class="st10"><tspan x="0" y="0" class="st8 st14 st15">SALES</tspan><tspan x="1.1" y="9.6" class="st8 st14 st15">SUITE</tspan></text>
		</g>
		<rect x="1163.2" y="692.8" class="st0" width="134" height="89.5"/>
		<g class="st10">
			<path class="st11" d="M1207.7,710.9c-0.3-0.1-0.6-0.2-0.8-0.2c-0.2,0-0.4,0-0.5,0.1s-0.2,0.2-0.2,0.4c0,0.2,0.1,0.3,0.3,0.5
				c0.2,0.1,0.5,0.2,0.9,0.3c0.4,0.1,0.7,0.2,0.9,0.3c0.2,0.1,0.5,0.3,0.6,0.5c0.2,0.2,0.3,0.5,0.3,0.9c0,0.4-0.1,0.7-0.3,0.9
				s-0.4,0.5-0.8,0.6c-0.3,0.1-0.7,0.2-1.1,0.2c-0.5,0-0.9-0.1-1.3-0.2s-0.8-0.4-1.1-0.7l0.5-1c0.3,0.3,0.6,0.5,1,0.6
				c0.4,0.2,0.7,0.2,1,0.2c0.3,0,0.5,0,0.6-0.1c0.1-0.1,0.2-0.2,0.2-0.4c0-0.1,0-0.3-0.1-0.4c-0.1-0.1-0.2-0.2-0.4-0.2
				c-0.2-0.1-0.4-0.1-0.6-0.2c-0.4-0.1-0.7-0.2-0.9-0.3s-0.5-0.3-0.6-0.5c-0.2-0.2-0.3-0.5-0.3-0.9c0-0.3,0.1-0.6,0.3-0.9
				c0.2-0.3,0.4-0.4,0.8-0.6c0.3-0.1,0.7-0.2,1.1-0.2c0.4,0,0.8,0.1,1.1,0.2c0.4,0.1,0.7,0.3,1,0.4l-0.5,1
				C1208.3,711.1,1208,711,1207.7,710.9z"/>
			<path class="st11" d="M1210,709.7h4.3v1h-3v1.2h2.7v1h-2.7v1.2h3.1v1h-4.4V709.7z"/>
			<path class="st11" d="M1218.7,710.9c-0.3-0.1-0.5-0.2-0.8-0.2c-0.3,0-0.6,0.1-0.9,0.2c-0.3,0.2-0.5,0.4-0.6,0.6s-0.2,0.6-0.2,0.9
				s0.1,0.6,0.2,0.9s0.4,0.5,0.6,0.6c0.3,0.2,0.5,0.2,0.9,0.2c0.3,0,0.5-0.1,0.8-0.2c0.3-0.1,0.5-0.3,0.7-0.5l0.7,0.8
				c-0.3,0.3-0.6,0.6-1.1,0.7s-0.8,0.3-1.2,0.3c-0.5,0-1-0.1-1.5-0.4c-0.4-0.3-0.8-0.6-1.1-1c-0.3-0.4-0.4-0.9-0.4-1.5
				c0-0.5,0.1-1,0.4-1.5c0.3-0.4,0.6-0.8,1.1-1s1-0.4,1.5-0.4c0.4,0,0.8,0.1,1.2,0.3s0.7,0.4,1,0.7l-0.7,0.9
				C1219.2,711.3,1219,711.1,1218.7,710.9z"/>
			<path class="st11" d="M1224.9,710c0.5,0.3,0.8,0.6,1.1,1c0.3,0.4,0.4,0.9,0.4,1.5s-0.1,1-0.4,1.5c-0.3,0.4-0.6,0.8-1.1,1
				c-0.5,0.3-1,0.4-1.5,0.4c-0.6,0-1.1-0.1-1.5-0.4c-0.5-0.3-0.8-0.6-1.1-1c-0.3-0.4-0.4-0.9-0.4-1.5c0-0.5,0.1-1,0.4-1.5
				c0.3-0.4,0.6-0.8,1.1-1s1-0.4,1.5-0.4C1224,709.6,1224.5,709.8,1224.9,710z M1222.5,711c-0.3,0.2-0.5,0.4-0.6,0.6
				c-0.2,0.3-0.2,0.6-0.2,0.9c0,0.3,0.1,0.6,0.2,0.9c0.2,0.3,0.4,0.5,0.6,0.6s0.6,0.2,0.9,0.2c0.3,0,0.6-0.1,0.9-0.2
				s0.5-0.4,0.6-0.6c0.2-0.3,0.2-0.6,0.2-0.9c0-0.3-0.1-0.6-0.2-0.9c-0.2-0.3-0.4-0.5-0.6-0.6s-0.5-0.2-0.9-0.2
				C1223.1,710.7,1222.8,710.8,1222.5,711z"/>
			<path class="st11" d="M1231.1,709.7h1.2v5.6h-1.2l-2.7-3.6v3.6h-1.2v-5.6h1.2l2.7,3.6V709.7z"/>
			<path class="st11" d="M1237.4,710.1c0.4,0.2,0.8,0.6,1,1s0.4,0.9,0.4,1.5s-0.1,1-0.4,1.5s-0.6,0.8-1.1,1c-0.5,0.2-1,0.4-1.6,0.4
				h-2.3v-5.6h2.4C1236.5,709.7,1237,709.9,1237.4,710.1z M1236.8,714c0.2-0.1,0.4-0.4,0.6-0.6c0.1-0.3,0.2-0.6,0.2-0.9
				s-0.1-0.6-0.2-0.9s-0.3-0.5-0.6-0.6c-0.3-0.1-0.5-0.2-0.9-0.2h-1.1v3.5h1.1C1236.3,714.3,1236.5,714.2,1236.8,714z"/>
			<path class="st11" d="M1243.7,715.3l-0.4-1.1h-2.6l-0.4,1.1h-1.3l2.4-5.6h1.3l2.4,5.6H1243.7z M1241.1,713.2h1.8l-0.9-2.2
				L1241.1,713.2z"/>
			<path class="st11" d="M1249,715.3l-0.9-1.6h-0.1h-1.2v1.6h-1.3v-5.6h2.4c0.7,0,1.3,0.2,1.7,0.5c0.4,0.3,0.6,0.8,0.6,1.4
				c0,0.4-0.1,0.8-0.3,1.1c-0.2,0.3-0.4,0.5-0.8,0.7l1.2,1.8H1249z M1246.9,712.7h1.2c0.4,0,0.6-0.1,0.8-0.2
				c0.2-0.2,0.3-0.4,0.3-0.7c0-0.3-0.1-0.5-0.3-0.7s-0.5-0.2-0.8-0.2h-1.2V712.7z"/>
			<path class="st11" d="M1256.1,709.7l-2,3.8v1.8h-1.3v-1.8l-2.1-3.8h1.3l1.4,2.5l1.4-2.5H1256.1z"/>
			<path class="st11" d="M1208,719.3h4.3v1h-3v1.2h2.7v1h-2.7v1.2h3.1v1h-4.4V719.3z"/>
			<path class="st11" d="M1217.2,719.3h1.2v5.6h-1.2l-2.7-3.6v3.6h-1.2v-5.6h1.2l2.7,3.6V719.3z"/>
			<path class="st11" d="M1219.1,719.3h4.7v1.1h-1.7v4.5h-1.3v-4.5h-1.7V719.3z"/>
			<path class="st11" d="M1227.9,724.9l-0.9-1.6h-0.1h-1.2v1.6h-1.3v-5.6h2.4c0.7,0,1.3,0.2,1.7,0.5c0.4,0.3,0.6,0.8,0.6,1.4
				c0,0.4-0.1,0.8-0.3,1.1c-0.2,0.3-0.4,0.5-0.8,0.7l1.2,1.8H1227.9z M1225.7,722.3h1.2c0.4,0,0.6-0.1,0.8-0.2
				c0.2-0.2,0.3-0.4,0.3-0.7c0-0.3-0.1-0.5-0.3-0.7s-0.5-0.2-0.8-0.2h-1.2V722.3z"/>
			<path class="st11" d="M1234.4,724.9l-0.4-1.1h-2.6l-0.4,1.1h-1.3l2.4-5.6h1.3l2.4,5.6H1234.4z M1231.8,722.8h1.8l-0.9-2.2
				L1231.8,722.8z"/>
			<path class="st11" d="M1240.2,719.3h1.2v5.6h-1.2l-2.7-3.6v3.6h-1.2v-5.6h1.2l2.7,3.6V719.3z"/>
			<path class="st11" d="M1246,720.5c-0.3-0.1-0.5-0.2-0.8-0.2c-0.3,0-0.6,0.1-0.9,0.2c-0.3,0.2-0.5,0.4-0.6,0.6
				c-0.1,0.3-0.2,0.6-0.2,0.9s0.1,0.6,0.2,0.9s0.4,0.5,0.6,0.6c0.3,0.2,0.5,0.2,0.9,0.2c0.3,0,0.5-0.1,0.8-0.2s0.5-0.3,0.7-0.5
				l0.7,0.8c-0.3,0.3-0.6,0.6-1.1,0.7c-0.4,0.2-0.8,0.3-1.2,0.3c-0.5,0-1-0.1-1.5-0.4c-0.4-0.3-0.8-0.6-1.1-1
				c-0.3-0.4-0.4-0.9-0.4-1.5c0-0.5,0.1-1,0.4-1.5c0.3-0.4,0.6-0.8,1.1-1c0.5-0.3,1-0.4,1.5-0.4c0.4,0,0.8,0.1,1.2,0.3
				s0.7,0.4,1,0.7l-0.7,0.9C1246.5,720.9,1246.3,720.7,1246,720.5z"/>
			<path class="st11" d="M1248.2,719.3h4.3v1h-3v1.2h2.7v1h-2.7v1.2h3.1v1h-4.4V719.3z"/>
			<path class="st11" d="M1218.5,728.9h4l0,1h-2.8v1.4h2.5v1.1h-2.5v2.1h-1.3V728.9z"/>
			<path class="st11" d="M1226.7,734.5l-0.9-1.6h-0.1h-1.2v1.6h-1.3v-5.6h2.4c0.7,0,1.3,0.2,1.7,0.5c0.4,0.3,0.6,0.8,0.6,1.4
				c0,0.4-0.1,0.8-0.3,1.1c-0.2,0.3-0.4,0.5-0.8,0.7l1.2,1.8H1226.7z M1224.5,731.9h1.2c0.4,0,0.6-0.1,0.8-0.2
				c0.2-0.2,0.3-0.4,0.3-0.7c0-0.3-0.1-0.5-0.3-0.7s-0.5-0.2-0.8-0.2h-1.2V731.9z"/>
			<path class="st11" d="M1233.2,729.2c0.5,0.3,0.8,0.6,1.1,1c0.3,0.4,0.4,0.9,0.4,1.5s-0.1,1-0.4,1.5c-0.3,0.4-0.6,0.8-1.1,1
				c-0.5,0.3-1,0.4-1.5,0.4c-0.6,0-1.1-0.1-1.5-0.4c-0.5-0.3-0.8-0.6-1.1-1c-0.3-0.4-0.4-0.9-0.4-1.5c0-0.5,0.1-1,0.4-1.5
				c0.3-0.4,0.6-0.8,1.1-1s1-0.4,1.5-0.4C1232.2,728.8,1232.8,729,1233.2,729.2z M1230.8,730.2c-0.3,0.2-0.5,0.4-0.6,0.6
				c-0.2,0.3-0.2,0.6-0.2,0.9c0,0.3,0.1,0.6,0.2,0.9c0.2,0.3,0.4,0.5,0.6,0.6s0.6,0.2,0.9,0.2c0.3,0,0.6-0.1,0.9-0.2
				s0.5-0.4,0.6-0.6c0.2-0.3,0.2-0.6,0.2-0.9c0-0.3-0.1-0.6-0.2-0.9c-0.2-0.3-0.4-0.5-0.6-0.6s-0.5-0.2-0.9-0.2
				C1231.4,729.9,1231.1,730,1230.8,730.2z"/>
			<path class="st11" d="M1235.5,728.9h1.4l1.7,3.4l1.7-3.4h1.4v5.6h-1.1v-3.8l-1.6,3.2h-0.8l-1.6-3.2v3.8h-1.1V728.9z"/>
			<path class="st11" d="M1219.2,738.9c0.4,0.2,0.8,0.6,1,1s0.4,0.9,0.4,1.5s-0.1,1-0.4,1.5c-0.3,0.4-0.6,0.8-1.1,1s-1,0.4-1.6,0.4
				h-2.3v-5.6h2.4C1218.3,738.5,1218.8,738.7,1219.2,738.9z M1218.6,742.8c0.2-0.1,0.4-0.4,0.6-0.6c0.1-0.3,0.2-0.6,0.2-0.9
				s-0.1-0.6-0.2-0.9c-0.1-0.3-0.3-0.5-0.6-0.6s-0.5-0.2-0.9-0.2h-1.1v3.5h1.1C1218.1,743.1,1218.3,743,1218.6,742.8z"/>
			<path class="st11" d="M1224.9,744.1l-0.9-1.6h-0.1h-1.2v1.6h-1.3v-5.6h2.4c0.7,0,1.3,0.2,1.7,0.5c0.4,0.3,0.6,0.8,0.6,1.4
				c0,0.4-0.1,0.8-0.3,1.1c-0.2,0.3-0.4,0.5-0.8,0.7l1.2,1.8H1224.9z M1222.8,741.5h1.2c0.4,0,0.6-0.1,0.8-0.2
				c0.2-0.2,0.3-0.4,0.3-0.7c0-0.3-0.1-0.5-0.3-0.7s-0.5-0.2-0.8-0.2h-1.2V741.5z"/>
			<path class="st11" d="M1227.3,738.5h4.3v1h-3v1.2h2.7v1h-2.7v1.2h3.1v1h-4.4V738.5z"/>
			<path class="st11" d="M1236.8,744.1l-0.4-1.1h-2.6l-0.4,1.1h-1.3l2.4-5.6h1.3l2.4,5.6H1236.8z M1234.2,742h1.8l-0.9-2.2
				L1234.2,742z"/>
			<path class="st11" d="M1238.7,738.5h1.4l1.7,3.4l1.7-3.4h1.4v5.6h-1.1v-3.8l-1.6,3.2h-0.8l-1.6-3.2v3.8h-1.1V738.5z"/>
			<path class="st11" d="M1223.4,748.6c0.4,0.3,0.6,0.8,0.6,1.4c0,0.7-0.2,1.2-0.6,1.5c-0.4,0.4-0.9,0.5-1.7,0.5h-1.1v1.6h-1.3v-5.6
				h2.4C1222.5,748.1,1223,748.3,1223.4,748.6z M1222.5,750.8c0.2-0.2,0.3-0.4,0.3-0.7c0-0.3-0.1-0.5-0.3-0.7s-0.5-0.2-0.8-0.2h-1
				v1.9h1C1222.1,751.1,1222.3,751,1222.5,750.8z"/>
			<path class="st11" d="M1228.6,753.7l-0.4-1.1h-2.6l-0.4,1.1h-1.3l2.4-5.6h1.3l2.4,5.6H1228.6z M1225.9,751.6h1.8l-0.9-2.2
				L1225.9,751.6z"/>
			<path class="st11" d="M1233.9,753.7l-0.9-1.6h-0.1h-1.2v1.6h-1.3v-5.6h2.4c0.7,0,1.3,0.2,1.7,0.5c0.4,0.3,0.6,0.8,0.6,1.4
				c0,0.4-0.1,0.8-0.3,1.1c-0.2,0.3-0.4,0.5-0.8,0.7l1.2,1.8H1233.9z M1231.8,751.1h1.2c0.4,0,0.6-0.1,0.8-0.2
				c0.2-0.2,0.3-0.4,0.3-0.7c0-0.3-0.1-0.5-0.3-0.7s-0.5-0.2-0.8-0.2h-1.2V751.1z"/>
			<path class="st11" d="M1241.5,753.7h-1.5l-1.6-2.3l-0.8,0.9v1.4h-1.3v-5.6h1.3v2.6l2.3-2.6h1.5l-2.1,2.3L1241.5,753.7z"/>
		</g>
		<rect x="1183.3" y="453.3" class="st9" width="23.3" height="178.7"/>
		<line class="st4" x1="1183.3" y1="497.3" x2="1206" y2="497.3"/>
		<line class="st4" x1="1183.3" y1="543.3" x2="1206.7" y2="543.3"/>
		<line class="st4" x1="1183.3" y1="588" x2="1205.3" y2="588"/>
		<rect x="1210" y="453.3" class="st9" width="22.7" height="180"/>
		<line class="st4" x1="1210" y1="498.7" x2="1232" y2="498.7"/>
		<line class="st4" x1="1208.7" y1="520.7" x2="1232" y2="520.7"/>
		<line class="st4" x1="1209.3" y1="544" x2="1232.7" y2="544"/>
		<line class="st4" x1="1208.7" y1="566" x2="1231.3" y2="566"/>
		<line class="st4" x1="1210" y1="588.7" x2="1233.3" y2="588.7"/>
		<rect x="1254" y="454" class="st9" width="23.3" height="202"/>
		<line class="st4" x1="1252.7" y1="475.3" x2="1277.3" y2="475.3"/>
		<line class="st4" x1="1253.3" y1="499.3" x2="1277.3" y2="499.3"/>
		<line class="st4" x1="1253.3" y1="522" x2="1277.3" y2="522"/>
		<line class="st4" x1="1253.3" y1="543.3" x2="1276" y2="543.3"/>
		<line class="st4" x1="1254" y1="565.3" x2="1277.3" y2="565.3"/>
		<line class="st4" x1="1254" y1="588.7" x2="1277.3" y2="588.7"/>
		<line class="st4" x1="1253.3" y1="609.3" x2="1276" y2="609.3"/>
		<g>
			<rect x="1321.5" y="252" class="st9" width="22" height="90"/>
			<line class="st4" x1="1321.5" y1="271.5" x2="1343.5" y2="271.5"/>
			<line class="st4" x1="1322" y1="289" x2="1343.5" y2="289"/>
			<line class="st4" x1="1321" y1="307" x2="1344" y2="307"/>
			<line class="st4" x1="1322" y1="323.5" x2="1343" y2="323.5"/>
		</g>
		<g>
			<rect x="1347.5" y="252" class="st9" width="22" height="90"/>
			<line class="st4" x1="1347.5" y1="271.5" x2="1369.5" y2="271.5"/>
			<line class="st4" x1="1348" y1="289" x2="1369.5" y2="289"/>
			<line class="st4" x1="1347" y1="307" x2="1370" y2="307"/>
			<line class="st4" x1="1348" y1="323.5" x2="1369" y2="323.5"/>
		</g>
		<rect x="1482" y="161.3" class="st8" width="43.3" height="494"/>
		<g class="st10">
			<path class="st16" d="M1506.7,349.7v1.4l-3.4,1.7l3.4,1.7v1.4h-5.6v-1.1h3.8l-3.2-1.6v-0.8l3.2-1.6h-3.8v-1.1H1506.7z"/>
			<path class="st16" d="M1506.7,357.2v4.3h-1v-3h-1.2v2.7h-1v-2.7h-1.2v3.1h-1v-4.4H1506.7z"/>
			<path class="st16" d="M1506.7,362.5v4.3h-1v-3h-1.2v2.7h-1v-2.7h-1.2v3.1h-1v-4.4H1506.7z"/>
			<path class="st16" d="M1506.7,367.3v4.7h-1.1v-1.7h-4.5V369h4.5v-1.7H1506.7z"/>
			<path class="st16" d="M1506.7,372.7v1.3h-5.6v-1.3H1506.7z"/>
			<path class="st16" d="M1506.7,379v1.2h-5.6v-1.2l3.6-2.7h-3.6v-1.2h5.6v1.2l-3.6,2.7H1506.7z"/>
			<path class="st16" d="M1503.9,385.2v1.1h-2.2c-0.2-0.3-0.4-0.7-0.5-1.1s-0.2-0.8-0.2-1.2c0-0.6,0.1-1.1,0.4-1.5s0.6-0.8,1-1.1
				c0.4-0.3,0.9-0.4,1.5-0.4c0.5,0,1,0.1,1.5,0.4c0.4,0.3,0.8,0.6,1,1.1c0.3,0.5,0.4,1,0.4,1.6c0,0.4-0.1,0.8-0.2,1.2
				s-0.4,0.7-0.6,1l-0.9-0.7c0.2-0.2,0.4-0.4,0.5-0.7c0.1-0.3,0.2-0.5,0.2-0.8c0-0.3-0.1-0.6-0.2-0.9c-0.2-0.3-0.4-0.5-0.6-0.6
				c-0.3-0.2-0.6-0.2-0.9-0.2c-0.3,0-0.6,0.1-0.9,0.2c-0.3,0.2-0.5,0.4-0.6,0.6s-0.2,0.6-0.2,0.9c0,0.2,0,0.3,0.1,0.5
				c0.1,0.2,0.1,0.4,0.2,0.6H1503.9z"/>
			<path class="st16" d="M1501.1,392.7l1.6-0.9v-0.1v-1.2h-1.6v-1.3h5.6v2.4c0,0.7-0.2,1.3-0.5,1.7c-0.3,0.4-0.8,0.6-1.4,0.6
				c-0.4,0-0.8-0.1-1.1-0.3s-0.5-0.4-0.7-0.8l-1.8,1.2V392.7z M1503.8,390.6v1.2c0,0.4,0.1,0.6,0.2,0.8c0.2,0.2,0.4,0.3,0.7,0.3
				c0.3,0,0.5-0.1,0.7-0.3c0.2-0.2,0.2-0.5,0.2-0.8v-1.2H1503.8z"/>
			<path class="st16" d="M1506.4,399.2c-0.3,0.5-0.6,0.8-1,1.1c-0.4,0.3-0.9,0.4-1.5,0.4c-0.5,0-1-0.1-1.5-0.4s-0.8-0.6-1-1.1
				s-0.4-1-0.4-1.5c0-0.6,0.1-1.1,0.4-1.5c0.3-0.5,0.6-0.8,1-1.1c0.4-0.3,0.9-0.4,1.5-0.4c0.5,0,1,0.1,1.5,0.4
				c0.4,0.3,0.8,0.6,1,1.1c0.3,0.5,0.4,1,0.4,1.5C1506.8,398.3,1506.7,398.8,1506.4,399.2z M1505.5,396.9c-0.2-0.3-0.4-0.5-0.6-0.6
				c-0.3-0.2-0.6-0.2-0.9-0.2c-0.3,0-0.6,0.1-0.9,0.2c-0.3,0.2-0.5,0.4-0.6,0.6s-0.2,0.6-0.2,0.9c0,0.3,0.1,0.6,0.2,0.9
				s0.4,0.5,0.6,0.6c0.3,0.2,0.6,0.2,0.9,0.2c0.3,0,0.6-0.1,0.9-0.2s0.5-0.4,0.6-0.6c0.2-0.3,0.2-0.5,0.2-0.9
				C1505.7,397.4,1505.6,397.1,1505.5,396.9z"/>
			<path class="st16" d="M1506.4,405.5c-0.3,0.5-0.6,0.8-1,1.1c-0.4,0.3-0.9,0.4-1.5,0.4c-0.5,0-1-0.1-1.5-0.4s-0.8-0.6-1-1.1
				s-0.4-1-0.4-1.5c0-0.6,0.1-1.1,0.4-1.5c0.3-0.5,0.6-0.8,1-1.1c0.4-0.3,0.9-0.4,1.5-0.4c0.5,0,1,0.1,1.5,0.4
				c0.4,0.3,0.8,0.6,1,1.1c0.3,0.5,0.4,1,0.4,1.5C1506.8,404.6,1506.7,405.1,1506.4,405.5z M1505.5,403.2c-0.2-0.3-0.4-0.5-0.6-0.6
				c-0.3-0.2-0.6-0.2-0.9-0.2c-0.3,0-0.6,0.1-0.9,0.2c-0.3,0.2-0.5,0.4-0.6,0.6s-0.2,0.6-0.2,0.9c0,0.3,0.1,0.6,0.2,0.9
				s0.4,0.5,0.6,0.6c0.3,0.2,0.6,0.2,0.9,0.2c0.3,0,0.6-0.1,0.9-0.2s0.5-0.4,0.6-0.6c0.2-0.3,0.2-0.5,0.2-0.9
				C1505.7,403.7,1505.6,403.4,1505.5,403.2z"/>
			<path class="st16" d="M1506.7,407.9v1.4l-3.4,1.7l3.4,1.7v1.4h-5.6V413h3.8l-3.2-1.6v-0.8l3.2-1.6h-3.8v-1.1H1506.7z"/>
			<path class="st16" d="M1505.6,418.1c0.1-0.3,0.2-0.6,0.2-0.8c0-0.2,0-0.4-0.1-0.5s-0.2-0.2-0.4-0.2c-0.2,0-0.3,0.1-0.5,0.3
				c-0.1,0.2-0.2,0.5-0.3,0.9c-0.1,0.4-0.2,0.7-0.3,0.9s-0.3,0.5-0.5,0.6c-0.2,0.2-0.5,0.3-0.9,0.3c-0.4,0-0.7-0.1-0.9-0.3
				s-0.5-0.4-0.6-0.8c-0.1-0.3-0.2-0.7-0.2-1.1c0-0.5,0.1-0.9,0.2-1.3s0.4-0.8,0.7-1.1l1,0.5c-0.3,0.3-0.5,0.6-0.6,1
				c-0.2,0.4-0.2,0.7-0.2,1c0,0.3,0,0.5,0.1,0.6s0.2,0.2,0.4,0.2c0.1,0,0.3,0,0.4-0.1s0.2-0.2,0.2-0.4s0.1-0.4,0.2-0.6
				c0.1-0.4,0.2-0.7,0.3-0.9c0.1-0.2,0.3-0.5,0.5-0.6s0.5-0.3,0.9-0.3c0.3,0,0.6,0.1,0.9,0.3c0.3,0.2,0.4,0.4,0.6,0.8
				c0.1,0.3,0.2,0.7,0.2,1.1c0,0.4-0.1,0.8-0.2,1.1s-0.3,0.7-0.4,1l-1-0.5C1505.3,418.8,1505.5,418.5,1505.6,418.1z"/>
		</g>
		<g>
			<rect x="1392.3" y="174" class="st9" width="14.5" height="11.5"/>
			<line class="st9" x1="1399" y1="173.8" x2="1399" y2="185.3"/>
		</g>
		<g>
			<rect x="1416.8" y="174" class="st9" width="14.5" height="11.5"/>
			<line class="st9" x1="1423.5" y1="173.8" x2="1423.5" y2="185.3"/>
		</g>
		<rect x="1453.3" y="174" class="st9" width="6.8" height="11.5"/>
		<g>
			<rect x="1392.3" y="196" class="st9" width="14.5" height="11.5"/>
			<line class="st9" x1="1399" y1="195.8" x2="1399" y2="207.3"/>
		</g>
		<g>
			<rect x="1416.8" y="196" class="st9" width="14.5" height="11.5"/>
			<line class="st9" x1="1423.5" y1="195.8" x2="1423.5" y2="207.3"/>
		</g>
		<rect x="1453.3" y="196" class="st9" width="6.8" height="11.5"/>
		<g>
			<rect x="1392.3" y="219.3" class="st9" width="14.5" height="11.5"/>
			<line class="st9" x1="1399" y1="219" x2="1399" y2="230.5"/>
		</g>
		<g>
			<rect x="1416.8" y="219.3" class="st9" width="14.5" height="11.5"/>
			<line class="st9" x1="1423.5" y1="219" x2="1423.5" y2="230.5"/>
		</g>
		<rect x="1453.3" y="219.3" class="st9" width="6.8" height="11.5"/>
		<g>
			<rect x="1392.3" y="241.5" class="st9" width="14.5" height="11.5"/>
			<line class="st9" x1="1399" y1="241.3" x2="1399" y2="252.8"/>
		</g>
		<g>
			<rect x="1416.8" y="241.5" class="st9" width="14.5" height="11.5"/>
			<line class="st9" x1="1423.5" y1="241.3" x2="1423.5" y2="252.8"/>
		</g>
		<rect x="1453.3" y="241.5" class="st9" width="6.8" height="11.5"/>
		<g>
			<rect x="1392.3" y="263.5" class="st9" width="14.5" height="11.5"/>
			<line class="st9" x1="1399" y1="263.3" x2="1399" y2="274.8"/>
		</g>
		<g>
			<rect x="1416.8" y="263.5" class="st9" width="14.5" height="11.5"/>
			<line class="st9" x1="1423.5" y1="263.3" x2="1423.5" y2="274.8"/>
		</g>
		<rect x="1453.3" y="263.5" class="st9" width="6.8" height="11.5"/>
		<g>
			<rect x="1392.3" y="285.8" class="st9" width="14.5" height="11.5"/>
			<line class="st9" x1="1399" y1="285.5" x2="1399" y2="297"/>
		</g>
		<g>
			<rect x="1416.8" y="285.8" class="st9" width="14.5" height="11.5"/>
			<line class="st9" x1="1423.5" y1="285.5" x2="1423.5" y2="297"/>
		</g>
		<rect x="1453.3" y="285.8" class="st9" width="6.8" height="11.5"/>
		<g>
			<rect x="1392.3" y="308" class="st9" width="14.5" height="11.5"/>
			<line class="st9" x1="1399" y1="307.8" x2="1399" y2="319.3"/>
		</g>
		<g>
			<rect x="1416.8" y="308" class="st9" width="14.5" height="11.5"/>
			<line class="st9" x1="1423.5" y1="307.8" x2="1423.5" y2="319.3"/>
		</g>
		<rect x="1453.3" y="308" class="st9" width="6.8" height="11.5"/>
		<g>
			<rect x="1392.3" y="330.8" class="st9" width="14.5" height="11.5"/>
			<line class="st9" x1="1399" y1="330.5" x2="1399" y2="342"/>
		</g>
		<g>
			<rect x="1416.8" y="330.8" class="st9" width="14.5" height="11.5"/>
			<line class="st9" x1="1423.5" y1="330.5" x2="1423.5" y2="342"/>
		</g>
		<rect x="1453.3" y="330.8" class="st9" width="6.8" height="11.5"/>
		<g>
			<rect x="1392.3" y="353.3" class="st9" width="14.5" height="11.5"/>
			<line class="st9" x1="1399" y1="353" x2="1399" y2="364.5"/>
		</g>
		<g>
			<rect x="1416.8" y="353.3" class="st9" width="14.5" height="11.5"/>
			<line class="st9" x1="1423.5" y1="353" x2="1423.5" y2="364.5"/>
		</g>
		<rect x="1453.3" y="353.3" class="st9" width="6.8" height="11.5"/>
		<g>
			<rect x="1392.3" y="375.5" class="st9" width="14.5" height="11.5"/>
			<line class="st9" x1="1399" y1="375.3" x2="1399" y2="386.8"/>
		</g>
		<g>
			<rect x="1416.8" y="375.5" class="st9" width="14.5" height="11.5"/>
			<line class="st9" x1="1423.5" y1="375.3" x2="1423.5" y2="386.8"/>
		</g>
		<rect x="1453.3" y="375.5" class="st9" width="6.8" height="11.5"/>
		<g>
			<rect x="1392.3" y="398.5" class="st9" width="14.5" height="11.5"/>
			<line class="st9" x1="1399" y1="398.3" x2="1399" y2="409.8"/>
		</g>
		<g>
			<rect x="1416.8" y="398.5" class="st9" width="14.5" height="11.5"/>
			<line class="st9" x1="1423.5" y1="398.3" x2="1423.5" y2="409.8"/>
		</g>
		<rect x="1453.3" y="398.5" class="st9" width="6.8" height="11.5"/>
		<g>
			<rect x="1392.3" y="420.3" class="st9" width="14.5" height="11.5"/>
			<line class="st9" x1="1399" y1="420" x2="1399" y2="431.5"/>
		</g>
		<g>
			<rect x="1416.8" y="420.3" class="st9" width="14.5" height="11.5"/>
			<line class="st9" x1="1423.5" y1="420" x2="1423.5" y2="431.5"/>
		</g>
		<rect x="1453.3" y="420.3" class="st9" width="6.8" height="11.5"/>
		<path class="st17" d="M1459,445h-70c-6.6,0-12-5.4-12-12V175c0-6.6,5.4-12,12-12h70c6.6,0,12,5.4,12,12v258
			C1471,439.6,1465.6,445,1459,445z"/>
		<line class="st18" x1="397" y1="429" x2="344" y2="600"/>
		<line class="st18" x1="444" y1="430" x2="391" y2="601"/>
		<rect x="1423.5" y="196" class="st8" width="7.8" height="11"/>
	</g>
</g>
<g>
	<polygon class="st19" points="1427,203 1231,60 1230,139 	"/>
	<path class="st20" d="M1233,224.8h-163.5c-6.6,0-12-5.4-12-12V49.3c0-6.6,5.4-12,12-12H1233c6.6,0,12,5.4,12,12v163.5
		C1245,219.4,1239.6,224.8,1233,224.8z"/>
	<g id="XMLID_45_">
		<path id="XMLID_86_" class="st21" d="M1094.4,172.4h-0.3c-0.2,0-0.2,0-0.2-0.2v-0.8c0-0.3-0.2-0.3-0.3-0.2c-0.5,0.6-1.1,0.9-2,0.9
			c-1.8,0-3-1.2-3-2.9v-2.1c0-1.7,1.2-2.7,2.9-2.7c0.8,0,1.4,0.2,2,0.8c0.2,0.2,0.3,0.2,0.3-0.2v-3.9c0-0.2,0-0.2,0.2-0.2h0.6
			c0.2,0,0.2,0,0.2,0.2v10.6C1094.6,172.3,1094.6,172.4,1094.4,172.4 M1093.7,167.6c0-1.2-0.9-2.1-2.1-2.1s-2.1,0.9-2.1,2.1v2.1
			c0,1.2,0.9,2.1,2.1,2.1s2.1-0.9,2.1-2.1V167.6z"/>
		<path id="XMLID_85_" class="st21" d="M1101.2,165.7h-0.2c-1.2,0-2.1,1.1-2.1,2.1v4.5c0,0.2,0,0.2-0.2,0.2h-0.6
			c-0.2,0-0.2,0-0.2-0.2v-7.2c0-0.2,0-0.2,0.2-0.2h0.3c0.2,0,0.2,0,0.2,0.2v0.8c0,0.2,0.3,0.3,0.3,0.2c0.6-0.8,1.2-1.1,2-1.1h0.2
			c0.2,0,0.2,0,0.2,0.2L1101.2,165.7C1101.4,165.7,1101.2,165.7,1101.2,165.7"/>
		<path id="XMLID_82_" class="st21" d="M1109.1,168.7h-4.7c-0.2,0-0.2,0-0.2,0.2v0.9c0,1.2,0.8,2.1,2.1,2.1h0.3
			c0.8,0,1.4-0.3,1.8-0.9h0.2l0.5,0.2c0.2,0,0.2,0.2,0.2,0.3c-0.2,0.3-0.5,0.6-0.8,0.8c-0.5,0.3-1.1,0.5-1.8,0.5h-0.3
			c-1.8,0-3-1.2-3-2.9v-2.4c0-1.4,1.2-2.7,3-2.7c2,0,3,1.4,3,2.9v1.1C1109.2,168.7,1109.2,168.7,1109.1,168.7 M1108.3,167.5
			c0-1.2-0.9-2.3-2.1-2.3s-2.1,0.9-2.1,2.1v0.3c0,0.2,0,0.3,0.2,0.3h3.8c0.2,0,0.2,0,0.2-0.2v-0.3H1108.3z"/>
		<path id="XMLID_79_" class="st21" d="M1117.4,172.4h-0.3c-0.2,0-0.2,0-0.2-0.2v-0.8c0-0.3-0.2-0.3-0.3-0.2
			c-0.5,0.6-1.2,1.1-1.8,1.1h-0.8c-1.2,0-2.1-0.8-2.1-2v-0.3c0-1.2,0.9-2,2.1-2h2.6c0.2,0,0.2,0,0.2-0.2v-0.8c0-1.2-0.9-2-2.1-2
			c-0.8,0-1.4,0.3-1.8,0.9c0,0-0.2,0.2-0.2,0l-0.5-0.3c-0.2,0-0.2-0.2,0-0.3c0.2-0.3,0.5-0.5,0.8-0.8c0.5-0.3,1.1-0.5,1.8-0.5
			c1.8,0,3,1.1,3,2.7v4.8C1117.5,172.3,1117.5,172.4,1117.4,172.4 M1116.6,169.1c0-0.2,0-0.2-0.2-0.2h-2.6c-0.8,0-1.2,0.6-1.2,1.2
			v0.3c0,0.6,0.5,1.2,1.2,1.2h0.8c0.9,0,1.7-0.8,2-1.7L1116.6,169.1L1116.6,169.1z"/>
		<path id="XMLID_78_" class="st21" d="M1131,172.4h-0.6c-0.2,0-0.2,0-0.2-0.2v-4.7c0-1.2-0.8-2.1-2-2.1c-0.9,0-1.8,0.9-1.8,2.1v4.7
			c0,0.2,0,0.2-0.2,0.2h-0.6c-0.2,0-0.2,0-0.2-0.2v-4.7c0-1.2-0.9-2.1-2-2.1c-0.9,0-1.8,0.9-1.8,2.1v4.7c0,0.2,0,0.2-0.2,0.2h-0.6
			c-0.2,0-0.2,0-0.2-0.2v-7.2c0-0.2,0-0.2,0.2-0.2h0.3c0.2,0,0.2,0,0.2,0.2v0.8c0,0.3,0.2,0.3,0.3,0.2c0.6-0.6,1.2-0.9,2-0.9
			c0.9,0,1.7,0.5,2.1,1.2c0.2,0.2,0.2,0.2,0.3,0c0.6-0.8,1.4-1.2,2.1-1.2c1.5,0,2.7,1.2,2.7,2.7V172.4
			C1131.1,172.3,1131.1,172.4,1131,172.4"/>
		<path id="XMLID_77_" class="st21" d="M1134.9,172.8c-0.5,0-0.8-0.3-0.8-0.8c0-0.5,0.3-0.8,0.8-0.8c0.5,0,0.8,0.3,0.8,0.8
			C1135.6,172.4,1135.3,172.8,1134.9,172.8"/>
		<path id="XMLID_74_" class="st21" d="M1148,172.4h-0.3c-0.2,0-0.2,0-0.2-0.2v-0.8c0-0.3-0.3-0.3-0.3-0.2c-0.5,0.6-1.1,0.9-2,0.9
			c-1.8,0-3-1.2-3-2.9v-2.1c0-1.7,1.2-2.7,2.9-2.7c0.8,0,1.4,0.2,2,0.8c0.2,0.2,0.3,0.2,0.3-0.2v-3.9c0-0.2,0-0.2,0.2-0.2h0.6
			c0.2,0,0.2,0,0.2,0.2v10.6C1148.2,172.3,1148.2,172.4,1148,172.4 M1147.3,167.6c0-1.2-0.9-2.1-2.1-2.1c-1.2,0-2.1,0.9-2.1,2.1v2.1
			c0,1.2,0.9,2.1,2.1,2.1c1.2,0,2.1-0.9,2.1-2.1V167.6z"/>
		<path id="XMLID_71_" class="st21" d="M1156.6,172.4h-0.3c-0.2,0-0.2,0-0.2-0.2v-0.8c0-0.3-0.2-0.3-0.3-0.2
			c-0.5,0.6-1.2,1.1-1.8,1.1h-0.8c-1.2,0-2.1-0.8-2.1-2v-0.3c0-1.2,0.9-2,2.1-2h2.6c0.2,0,0.2,0,0.2-0.2v-0.8c0-1.2-0.9-2-2.1-2
			c-0.8,0-1.4,0.3-1.8,0.9c0,0-0.2,0.2-0.2,0l-0.5-0.3c-0.2,0-0.2-0.2,0-0.3c0.2-0.3,0.5-0.5,0.8-0.8c0.5-0.3,1.1-0.5,1.8-0.5
			c1.8,0,3,1.1,3,2.7v4.8C1156.8,172.3,1156.8,172.4,1156.6,172.4 M1155.9,169.1c0-0.2,0-0.2-0.2-0.2h-2.6c-0.8,0-1.2,0.6-1.2,1.2
			v0.3c0,0.6,0.5,1.2,1.2,1.2h0.8c0.9,0,1.7-0.8,2-1.7L1155.9,169.1L1155.9,169.1z"/>
		<path id="XMLID_70_" class="st21" d="M1163.3,165.7h-0.2c-1.2,0-2.1,1.1-2.1,2.1v4.5c0,0.2,0,0.2-0.2,0.2h-0.6
			c-0.2,0-0.2,0-0.2-0.2v-7.2c0-0.2,0-0.2,0.2-0.2h0.3c0.2,0,0.2,0,0.2,0.2v0.8c0,0.2,0.3,0.3,0.3,0.2c0.6-0.8,1.2-1.1,2-1.1h0.2
			c0.2,0,0.2,0,0.2,0.2L1163.3,165.7C1163.4,165.7,1163.4,165.7,1163.3,165.7"/>
		<path id="XMLID_67_" class="st21" d="M1171.1,168.7h-4.7c-0.2,0-0.2,0-0.2,0.2v0.9c0,1.2,0.8,2.1,2.1,2.1h0.3
			c0.8,0,1.4-0.3,1.8-0.9h0.2l0.5,0.2c0.2,0,0.2,0.2,0.2,0.3c-0.2,0.3-0.5,0.6-0.8,0.8c-0.5,0.3-1.1,0.5-1.8,0.5h-0.3
			c-1.8,0-3-1.2-3-2.9v-2.4c0-1.4,1.2-2.7,3-2.7c2,0,3,1.4,3,2.9v1.1C1171.3,168.7,1171.3,168.7,1171.1,168.7 M1170.3,167.5
			c0-1.2-0.9-2.3-2.1-2.3c-1.2,0-2.1,0.9-2.1,2.1v0.3c0,0.2,0,0.3,0.2,0.3h3.8c0.2,0,0.2,0,0.2-0.2v-0.3H1170.3z"/>
		<path id="XMLID_66_" class="st21" d="M1174.9,172.8c-0.5,0-0.8-0.3-0.8-0.8c0-0.5,0.3-0.8,0.8-0.8s0.8,0.3,0.8,0.8
			C1175.6,172.4,1175.3,172.8,1174.9,172.8"/>
		<path id="XMLID_63_" class="st21" d="M1188,172.4h-0.3c-0.2,0-0.2,0-0.2-0.2v-0.8c0-0.3-0.3-0.3-0.3-0.2c-0.5,0.6-1.1,0.9-2,0.9
			c-1.8,0-3-1.2-3-2.9v-2.1c0-1.7,1.2-2.7,2.9-2.7c0.8,0,1.4,0.2,2,0.8c0.2,0.2,0.3,0.2,0.3-0.2v-3.9c0-0.2,0-0.2,0.2-0.2h0.6
			c0.2,0,0.2,0,0.2,0.2v10.6C1188.2,172.3,1188.2,172.4,1188,172.4 M1187.3,167.6c0-1.2-0.9-2.1-2.1-2.1c-1.2,0-2.1,0.9-2.1,2.1v2.1
			c0,1.2,0.9,2.1,2.1,2.1c1.2,0,2.1-0.9,2.1-2.1V167.6z"/>
		<path id="XMLID_60_" class="st21" d="M1194.2,172.6c-1.7,0-2.9-1.1-2.9-2.9v-2.4c0-1.7,1.2-2.7,2.9-2.7s3,1.1,3,2.7v2.4
			C1197.2,171.5,1195.9,172.6,1194.2,172.6 M1196.3,167.3c0-1.2-0.9-2.1-2.1-2.1c-1.2,0-2,0.8-2,2.1v2.4c0,1.2,0.8,2.1,2,2.1
			c1.2,0,2.1-0.9,2.1-2.1V167.3z"/>
		<path id="XMLID_59_" class="st22" d="M1099,126.4h-8.3c-2.3,0-3.9-1.4-4.5-3.6c-0.2-0.5-0.2-0.8-0.2-1.2c0-4.2,0-8.6,0-12.8
			c0-2.7,2.1-4.5,4.5-4.5c4.4,0,8.9,0,13.3,0c2.4,0,4.4,2,4.4,4.4c0,5.9,0,11.6,0,17.5c0,0.5-0.2,0.3-0.5,0.3L1099,126.4"/>
		<path id="XMLID_58_" class="st23" d="M1099.1,130.8c2.9,0,5.9,0,8.8,0c0.3,0,0.5,0,0.5,0.5c0,5.7,0,11.5,0,17.2
			c0,2.6-2,4.5-4.4,4.5c-4.4,0-8.9,0-13.3,0c-2.1,0-3.9-1.4-4.4-3.5c-0.2-0.5-0.2-0.9-0.2-1.4c0-4.2,0-8.5,0-12.8
			c0-2.7,2.3-4.5,4.5-4.5C1093.4,130.8,1096.2,130.8,1099.1,130.8"/>
		<path id="XMLID_57_" class="st19" d="M1121.9,126.4c-2.9,0-5.9,0-8.8,0c-0.3,0-0.5-0.2-0.5-0.5c0-5.7,0-11.5,0-17.4
			c0-2.4,2-4.4,4.4-4.4c4.4,0,8.9,0,13.3,0c2.4,0,4.4,2,4.4,4.5c0,4.4,0,8.8,0,13.3c0,2.6-2,4.5-4.5,4.5
			C1127.5,126.4,1124.8,126.4,1121.9,126.4"/>
		<path id="XMLID_56_" class="st22" d="M1120.5,153.3c-1.4,0-2.7-0.2-3.9-0.6c-1.8-0.8-3.2-2-4.1-3.8c-0.2-0.3-0.2-0.5-0.3-0.8
			c0-0.2,0-0.2,0.2-0.3c1.1-0.3,2.1-0.8,3-1.1c0.2-0.2,0.3,0,0.3,0.2c0.5,1.2,1.4,2.3,2.6,2.7c1.7,0.6,3.3,0.6,4.8,0
			c1.1-0.5,1.7-1.4,1.8-2.6c0.2-1.1-0.5-2-1.5-2.4c-0.9-0.3-1.8-0.6-2.7-0.9c-1.2-0.3-2.4-0.8-3.6-1.4c-2-1.1-2.7-2.7-2.7-5
			c0-3,2-5.1,4.5-6c1.4-0.5,2.7-0.6,4.1-0.5c1.7,0.2,3.2,0.6,4.5,1.5c0.9,0.8,1.7,1.7,2.1,2.9c0.2,0.2,0,0.3-0.2,0.3
			c-0.9,0.3-1.8,0.6-2.7,1.1c-0.6,0.2-0.6,0.2-0.9-0.3c-0.8-1.4-2-2.1-3.6-2.1c-0.9,0-1.8,0-2.6,0.5c-0.9,0.5-1.4,1.2-1.5,2.3
			c0,0.9,0.3,1.7,1.2,2.1c0.8,0.5,1.5,0.6,2.3,0.9c1.2,0.5,2.4,0.6,3.6,1.2c1.2,0.6,2.3,1.4,2.9,2.7c0.6,1.2,0.8,2.6,0.5,3.8
			c-0.5,2.4-2,4.1-4.2,5.1c-0.9,0.5-1.8,0.6-2.9,0.6C1121.4,153.3,1121,153.3,1120.5,153.3"/>
		<path id="XMLID_53_" class="st22" d="M1174.1,149.8c-0.2,0-0.2,0.2-0.2,0.3c-1.2,2.1-2.9,3.3-5.4,3.3c-2,0-3.5-0.9-4.4-2.7
			c-0.5-0.9-0.5-2-0.2-3c0.5-2,1.8-3,3.5-3.8c1.4-0.6,2.7-0.8,4.2-0.9c1.2-0.2,2.3-0.2,3.5,0c0.2,0,0.2,0,0.2-0.2
			c0-0.6,0.2-1.2,0-1.8c-0.2-0.8-0.8-1.2-1.5-1.5c-1.4-0.5-3.3-0.3-4.4,0.9c-0.3,0.3-0.5,0.6-0.6,0.9c0,0.2-0.2,0.2-0.3,0.2
			c-0.9-0.3-1.8-0.6-2.7-0.9c-0.2,0-0.2-0.2-0.2-0.3c0.9-1.7,2.1-2.7,3.9-3.3c2-0.6,3.9-0.6,5.9,0c1.4,0.5,2.4,1.2,3,2.6
			c0.5,0.9,0.5,1.8,0.3,2.7c-0.2,1.7-0.6,3.5-0.9,5.1c-0.3,1.4-0.5,2.7-0.6,4.1c0,0.5,0,0.9,0,1.2c0,0.2,0,0.3-0.2,0.3
			c-1.1,0-2,0-3,0c-0.2,0-0.3,0-0.3-0.3c0-0.9,0-1.8,0.2-2.7C1174.1,150,1174.1,149.8,1174.1,149.8 M1167.8,148.3
			c0,0.3,0,0.6,0.2,0.9c0.5,0.9,1.4,1.4,2.4,1.2c1.2-0.2,2-0.6,2.7-1.5c1.1-1.2,1.5-2.6,1.8-4.1c0-0.2,0-0.2-0.2-0.2
			c-0.8,0-1.5,0.2-2.3,0.2c-1.1,0.2-2,0.3-3,0.8C1168.4,146.3,1167.8,147.1,1167.8,148.3"/>
		<path id="XMLID_52_" class="st22" d="M1141.5,149.7c-0.3,0.3-0.5,0.6-0.6,0.9c-0.8,1.1-1.7,1.8-2.9,2.3c-1.2,0.5-2.4,0.5-3.6,0
			c-1.1-0.5-1.5-1.2-2-2.3c-0.3-0.6-0.3-1.2-0.2-2c0.2-1.5,0.5-2.9,0.8-4.4c0.2-1.2,0.5-2.4,0.6-3.6c0.2-1.2,0.5-2.3,0.6-3.5
			c0-0.2,0.2-0.3,0.3-0.3c0.9,0,2,0,2.9,0c0.3,0,0.3,0,0.3,0.3c-0.3,1.4-0.5,2.7-0.8,4.2c-0.3,1.8-0.6,3.6-0.9,5.4
			c-0.2,0.5-0.2,1.1-0.2,1.5c-0.2,0.9,0.5,1.7,1.5,1.8c0.8,0.2,1.5-0.2,2.1-0.6c1.2-0.8,2-2,2.3-3.3c0.5-2,0.8-3.9,1.1-5.9
			c0.2-1.1,0.3-2.1,0.6-3.2c0-0.2,0.2-0.2,0.3-0.2c1.1,0,2.1,0,3,0c0.2,0,0.2,0.2,0.2,0.3c-0.2,1.1-0.5,2.3-0.6,3.3
			c-0.3,1.4-0.5,2.9-0.8,4.2c-0.3,1.8-0.6,3.6-0.9,5.4c-0.2,0.8-0.3,1.5-0.3,2.3c0,0.3-0.2,0.3-0.3,0.3c-0.9,0-1.8,0-2.7,0
			c-0.3,0-0.3-0.2-0.3-0.3C1141.2,151.6,1141.4,150.6,1141.5,149.7C1141.5,149.8,1141.5,149.8,1141.5,149.7"/>
		<path id="XMLID_51_" class="st22" d="M1151.5,137c0.6,0,1.1,0,1.7,0c0.2,0,0.3,0,0.3,0.2c0.5,2,0.9,4.1,1.4,6
			c0.3,1.5,0.6,3,0.9,4.4v0.2c0,0,0.2,0,0.2-0.2c1.5-3,2.9-6,4.4-9.1c0.2-0.5,0.5-0.9,0.6-1.4c0-0.2,0.2-0.2,0.3-0.2
			c0.9,0,1.7,0,2.6,0c0.2,0,0.3,0,0.2,0.3c-0.6,1.1-1.2,2.3-1.7,3.5c-1.4,2.7-2.7,5.6-4.1,8.3c-1.1,2.1-2.1,4.2-3.2,6.3
			c-0.5,0.8-0.8,1.5-1.5,2.1c-0.8,0.8-1.8,1.2-2.9,1.4c-1.1,0.2-2,0.2-3,0c-0.2,0-0.3-0.2-0.3-0.3c0-0.8,0.2-1.7,0.2-2.4
			c0-0.3,0-0.3,0.3-0.3c0.6,0.2,1.4,0.2,2,0.2c1.4,0,2.1-0.6,2.7-1.8c0.3-0.5,0.5-1.1,0.8-1.5c0-0.2,0-0.3,0-0.5
			c-0.3-1.5-0.8-2.9-1.1-4.4c-0.5-1.8-0.9-3.5-1.4-5.3c-0.3-1.5-0.8-2.9-1.2-4.4c0-0.2-0.2-0.5-0.2-0.6s0-0.3,0.2-0.3
			C1150.4,137,1151,137,1151.5,137"/>
		<path id="XMLID_50_" class="st22" d="M1189.7,139.8c-0.5,0-1.1,0-1.5,0c-0.2,0-0.2,0-0.3,0.2c-0.5,2.6-0.9,5-1.2,7.5
			c-0.2,0.5-0.2,0.9-0.2,1.4c0.2,0.6,0.6,0.9,1.2,1.1c0.6,0.2,1.2,0.2,1.8,0c0.3,0,0.3,0,0.3,0.3c-0.2,0.8-0.3,1.5-0.5,2.3
			c0,0.2-0.2,0.3-0.3,0.5c-1.1,0.2-2.3,0.3-3.3,0.2c-1.8-0.3-3-1.8-2.9-3.6c0-0.9,0.2-1.8,0.3-2.9c0.2-1.2,0.5-2.3,0.6-3.3
			c0.2-1.1,0.3-2.1,0.6-3.2c0-0.3,0-0.3-0.3-0.3c-0.6,0-1.2,0-1.8,0c-0.2,0-0.3,0-0.2-0.3c0.2-0.8,0.3-1.5,0.5-2.3
			c0-0.3,0.2-0.3,0.5-0.3c0.6,0,1.2,0,1.8,0c0.2,0,0.3,0,0.3-0.2c0.2-1.1,0.5-2.1,0.6-3.2c0-0.2,0-0.2,0-0.3
			c0.2-0.6,0.2-0.6,0.9-0.8c0.8,0,1.5-0.2,2.3-0.2c0.2,0,0.3,0,0.2,0.3c-0.2,1.2-0.5,2.4-0.6,3.6c0,0.2,0,0.3,0,0.5s0,0.3,0.2,0.3
			c0.9,0,2,0,2.9,0c0.3,0,0.3,0,0.3,0.3c-0.2,0.8-0.3,1.5-0.3,2.3c0,0.3-0.2,0.3-0.5,0.3C1190.6,139.8,1190.1,139.8,1189.7,139.8"/>
		<path id="XMLID_49_" class="st22" d="M1194.8,152.8c-0.6,0-1.1,0-1.7,0c-0.2,0-0.3,0-0.2-0.3c0.5-2.4,0.9-4.8,1.2-7.4
			c0.3-1.8,0.6-3.6,0.9-5.6c0.2-0.9,0.3-1.7,0.5-2.6c0-0.2,0.2-0.3,0.3-0.3c1.1,0,2.1,0,3.2,0c0.2,0,0.3,0,0.2,0.3
			c-0.5,2.7-0.9,5.3-1.4,8c-0.3,2.3-0.8,4.5-1.1,6.8c0,0.3-0.2,0.5-0.2,0.8c0,0.2-0.2,0.3-0.3,0.3
			C1195.9,152.8,1195.2,152.8,1194.8,152.8"/>
		<path id="XMLID_48_" class="st22" d="M1197.7,135.2c-0.6,0-1.1,0-1.7,0c-0.2,0-0.3,0-0.2-0.3c0.2-1.2,0.5-2.3,0.6-3.5
			c0-0.2,0.2-0.2,0.2-0.2c1.1,0,2.3,0,3.3,0c0.2,0,0.2,0.2,0.2,0.2c-0.3,1.2-0.5,2.3-0.6,3.5c0,0.2-0.2,0.2-0.3,0.2
			C1198.9,135.2,1198.3,135.2,1197.7,135.2"/>
		<path id="XMLID_47_" class="st24" d="M1205.5,132.5c0,0.6,0,1.2,0,1.8c0,0.2,0,0.2-0.2,0.2s-0.3,0-0.3-0.2c0-0.9,0-1.7,0-2.6
			c0-0.2,0-0.2,0.2-0.2c0.5,0,0.5,0,0.6,0.5c0.2,0.6,0.5,1.2,0.6,1.8c0.2-0.6,0.3-1.1,0.6-1.5c0-0.2,0.2-0.3,0.2-0.3
			c0.2-0.5,0.3-0.5,0.6-0.5c0.2,0,0.2,0.2,0.2,0.2c0,0.9,0,1.7,0,2.6c0,0.2-0.2,0.2-0.3,0.2s-0.3,0.2-0.3-0.2c0-0.5,0-1.1,0-1.5
			v-0.2c-0.2,0.5-0.3,0.8-0.5,1.2c0,0.2-0.2,0.3-0.2,0.5c0,0.2-0.2,0.3-0.3,0.3s-0.3,0-0.3-0.2c-0.2-0.5-0.3-0.9-0.5-1.5
			C1205.7,132.8,1205.7,132.6,1205.5,132.5"/>
		<path id="XMLID_46_" class="st24" d="M1203.4,134.6c-0.2,0-0.5,0-0.6-0.2c-0.3-0.2-0.5-0.3-0.6-0.6c0-0.2-0.2-0.3,0-0.3
			c0.2,0,0.3,0,0.3,0c0.2,0,0.2,0.2,0.2,0.2c0.2,0.5,0.8,0.6,1.2,0.5c0.2-0.2,0.2-0.2,0.2-0.3s-0.2-0.3-0.3-0.3
			c-0.3-0.2-0.6-0.2-0.9-0.3c-0.3-0.2-0.5-0.2-0.6-0.5c-0.2-0.3,0-0.8,0.3-0.9c0.5-0.2,0.9-0.2,1.4,0c0.2,0.2,0.3,0.2,0.3,0.5
			c0.2,0.3,0,0.5-0.3,0.5c-0.2,0-0.2,0-0.2-0.2c-0.2-0.5-0.8-0.5-1.1-0.3c-0.3,0.2-0.2,0.5,0.2,0.6c0.3,0.2,0.6,0.2,0.9,0.3
			c0.5,0.2,0.6,0.5,0.6,0.8s-0.2,0.6-0.6,0.8c-0.2,0-0.3,0.2-0.5,0.2h0.2"/>
	</g>
	<g>
		<ellipse class="st22" cx="1149.4" cy="98.4" rx="14" ry="1.8"/>
		<g>
			<path class="st22" d="M1149.4,51c-9.6,0-17.4,7.7-17.4,17.4c0,2.6,0.5,4.9,1.5,7.1c4.4,9.6,12.7,19.6,15.2,22.5
				c0.2,0.2,0.5,0.3,0.8,0.3c0.3,0,0.6-0.2,0.8-0.3c2.4-2.9,10.8-12.9,15.2-22.5c1.1-2.3,1.5-4.6,1.5-7.1
				C1166.9,58.9,1159.2,51,1149.4,51L1149.4,51z M1149.4,77.6c-5,0-9.1-4.1-9.1-9.1c0-5,4.1-9.1,9.1-9.1s9.1,4.1,9.1,9.1
				C1158.5,73.5,1154.4,77.6,1149.4,77.6L1149.4,77.6z"/>
		</g>
	</g>
	<path class="st19" d="M1058,184.8h186v29.8c0,0,0.8,11-14.5,11h-160c0,0-10.8-2.3-12-12.8S1058,184.3,1058,184.8z"/>
	<g class="st10">
		<path class="st11" d="M1092.8,209.3h-6v-13.7h5.3c0.9,0,1.7,0.1,2.4,0.3c0.7,0.2,1.2,0.5,1.5,0.9c0.6,0.7,0.9,1.5,0.9,2.4
			c0,1.1-0.3,1.9-1,2.4c-0.2,0.2-0.4,0.3-0.5,0.3c-0.1,0-0.3,0.1-0.5,0.2c0.8,0.2,1.5,0.6,2,1.1s0.8,1.3,0.8,2.2c0,1-0.3,1.8-1,2.5
			C1096,208.9,1094.7,209.3,1092.8,209.3z M1089.9,201.2h1.4c0.8,0,1.5-0.1,1.9-0.3c0.4-0.2,0.6-0.6,0.6-1.2c0-0.6-0.2-1-0.6-1.2
			s-1-0.3-1.9-0.3h-1.5V201.2z M1089.9,206.7h2.1c0.9,0,1.5-0.1,2-0.3s0.7-0.6,0.7-1.3c0-0.6-0.2-1.1-0.7-1.3
			c-0.5-0.2-1.2-0.3-2.2-0.3h-1.8V206.7z"/>
		<path class="st11" d="M1110.5,204.1c0,1.5-0.5,2.8-1.6,3.9c-1.1,1-2.4,1.6-4,1.6s-2.9-0.5-4-1.6s-1.6-2.3-1.6-3.9s0.5-2.8,1.6-3.9
			c1.1-1.1,2.4-1.6,4-1.6s2.9,0.5,4,1.6C1110,201.2,1110.5,202.5,1110.5,204.1z M1102.3,204.1c0,0.9,0.2,1.6,0.7,2.1
			c0.5,0.5,1.1,0.8,1.9,0.8c0.8,0,1.4-0.3,1.9-0.8c0.5-0.5,0.7-1.2,0.7-2.1s-0.2-1.6-0.7-2.1c-0.5-0.5-1.1-0.8-1.9-0.8
			c-0.8,0-1.4,0.3-1.9,0.8C1102.5,202.5,1102.3,203.2,1102.3,204.1z"/>
		<path class="st11" d="M1123.2,204.1c0,1.5-0.5,2.8-1.6,3.9c-1.1,1-2.4,1.6-4,1.6s-2.9-0.5-4-1.6s-1.6-2.3-1.6-3.9s0.5-2.8,1.6-3.9
			c1.1-1.1,2.4-1.6,4-1.6s2.9,0.5,4,1.6C1122.7,201.2,1123.2,202.5,1123.2,204.1z M1115,204.1c0,0.9,0.2,1.6,0.7,2.1
			c0.5,0.5,1.1,0.8,1.9,0.8c0.8,0,1.4-0.3,1.9-0.8c0.5-0.5,0.7-1.2,0.7-2.1s-0.2-1.6-0.7-2.1c-0.5-0.5-1.1-0.8-1.9-0.8
			c-0.8,0-1.4,0.3-1.9,0.8C1115.3,202.5,1115,203.2,1115,204.1z"/>
		<path class="st11" d="M1128.7,200.9v4.7c0,0.4,0.1,0.7,0.3,1s0.5,0.3,0.7,0.3c0.5,0,1-0.2,1.4-0.7l1.1,2.1
			c-0.9,0.8-1.9,1.3-2.9,1.3s-1.9-0.3-2.6-1c-0.7-0.7-1-1.6-1-2.7v-4.9h-1.2v-2.1h1.2v-3.2h3v3.2h2.5v2.1H1128.7z"/>
		<path class="st11" d="M1136.7,203.6v5.7h-2.9v-14.5h2.9v5.2c0.9-0.9,1.9-1.4,3-1.4c1.1,0,2,0.4,2.8,1.2c0.8,0.8,1.1,1.8,1.1,3.1
			v6.4h-2.9v-5.8c0-1.6-0.6-2.4-1.8-2.4c-0.6,0-1.1,0.2-1.5,0.6S1136.7,202.8,1136.7,203.6z"/>
		<path class="st11" d="M1163.4,201.2h-2l-0.4,2.4h2.3l-0.5,2.7h-2.2l-0.5,3h-2.9l0.5-3h-1.8l-0.5,3h-3l0.5-3h-1.9l0.5-2.7h1.8
			l0.4-2.4h-2.1l0.5-2.7h2l0.5-3.2h3l-0.5,3.2h1.8l0.5-3.2h3l-0.6,3.2h2.1L1163.4,201.2z M1158.5,201.2h-1.8l-0.4,2.4h1.8
			C1158.2,202.6,1158.3,201.8,1158.5,201.2z"/>
		<path class="st11" d="M1171.6,201c0.3-0.5,0.5-1,0.5-1.4c0-0.5-0.2-0.8-0.5-1.1c-0.3-0.3-0.7-0.5-1.2-0.5c-0.9,0-1.7,0.6-2.4,1.8
			l-2.4-1.4c0.6-1,1.3-1.7,2.1-2.3s1.7-0.8,2.9-0.8s2.2,0.4,3.1,1.1c0.9,0.8,1.3,1.8,1.3,3.1c0,0.7-0.2,1.4-0.5,2s-1,1.5-2,2.5
			l-2.5,2.6h5.4v2.7h-9.7v-2.3l4-4.1C1170.7,202.1,1171.3,201.5,1171.6,201z"/>
		<path class="st11" d="M1183.3,209.5c-1.9,0-3.3-0.6-4.3-1.9c-0.9-1.3-1.4-3-1.4-5.2c0-2.1,0.5-3.9,1.4-5.2
			c0.9-1.3,2.4-1.9,4.3-1.9s3.3,0.6,4.3,1.9c0.9,1.3,1.4,3,1.4,5.2c0,2.1-0.5,3.9-1.4,5.2C1186.6,208.8,1185.2,209.5,1183.3,209.5z
			 M1181.3,199.1c-0.4,0.8-0.6,1.9-0.6,3.3s0.2,2.5,0.6,3.3c0.4,0.8,1.1,1.3,2,1.3s1.6-0.4,2-1.3c0.4-0.8,0.6-1.9,0.6-3.3
			s-0.2-2.5-0.6-3.3c-0.4-0.8-1.1-1.3-2-1.3S1181.7,198.3,1181.3,199.1z"/>
		<path class="st11" d="M1196.3,203.4V201h2.9v2.4h1.5v2.6h-1.5v3.3h-2.9v-3.3h-5.5v-2.3l4.9-8.1h3.3l-4.6,7.8H1196.3z"/>
		<path class="st11" d="M1203.1,198.2v-2.6h8.4v2.1l-2.8,3.2c1.1,0.2,1.9,0.6,2.5,1.4s0.9,1.6,0.9,2.6c0,1.4-0.5,2.6-1.5,3.4
			c-1,0.8-2.2,1.2-3.7,1.2c-1.5,0-3-0.5-4.6-1.6l1.3-2.4c1.3,0.9,2.4,1.4,3.5,1.4c0.6,0,1.1-0.1,1.5-0.5s0.6-0.7,0.6-1.3
			s-0.2-1-0.7-1.4s-1.1-0.5-1.9-0.5c-0.4,0-1,0.1-1.8,0.4v-2.3l2.6-3.1H1203.1z"/>
	</g>
</g>
</svg>
