<?xml version="1.0" encoding="utf-8"?>
<!-- Generator: Adobe Illustrator 20.0.0, SVG Export Plug-In . SVG Version: 6.00 Build 0)  -->
<svg version="1.1" id="Layer_1" xmlns="http://www.w3.org/2000/svg" xmlns:xlink="http://www.w3.org/1999/xlink" x="0px" y="0px"
	 viewBox="21.2 110.1 464 280.6" style="enable-background:new 21.2 110.1 464 280.6;" xml:space="preserve">
<style type="text/css">
	.st0{fill:#E2312E;}
	.st1{fill:#0066CC;}
	.st2{fill:#339933;}
	.st3{fill:#C9C9C9;}
</style>
<path class="st0" d="M73.7,200.1c-11.2,0-22.3,0-33.5,0c-9.3,0-16-5.3-18.3-14.5c-0.4-1.7-0.6-3.2-0.6-5c0-17.3-0.2-34.7,0-52
	c0.2-11.1,8.6-18.3,18.1-18.3c17.9,0,35.8,0,53.8,0c9.9,0,17.9,7.8,17.9,17.7c0.2,23.6,0,47.1,0,70.7c0,1.5-0.8,1.5-1.9,1.5
	C97.5,200.1,85.5,200.1,73.7,200.1"/>
<path class="st1" d="M73.7,218c11.8,0,23.6,0,35.6,0c1.3,0,1.9,0.4,1.9,1.9c0,23.3,0,46.5,0,70c0,10.1-7.8,18.1-17.9,18.1
	c-17.9,0-35.8,0-53.8,0c-8.6,0-15.6-5.7-17.5-14.3c-0.4-1.9-0.6-3.6-0.6-5.5c0-17.2-0.2-34.5,0-51.7c0.2-11.2,9-18.5,18.1-18.3
	C50.8,218,62.2,218,73.7,218"/>
<path class="st2" d="M166.1,200.1c-11.8,0-23.6,0-35.5,0c-1.5,0-1.7-0.4-1.7-1.9c0-23.4,0-46.7,0-70.1c0-9.9,8-17.9,17.9-17.9
	c17.9,0,35.8,0,53.8,0c10.1,0,17.9,8,17.9,18.1c0,17.9,0,35.6,0,53.6c0,10.3-7.8,18.1-18.3,18.1C189,200.1,177.6,200.1,166.1,200.1"
	/>
<path class="st0" d="M163,307.3c-5.5,0-10.9-0.8-16-2.7c-7.6-2.9-13-8-16.4-15.3c-0.4-1-0.8-1.9-1.3-2.9c-0.2-0.6,0-1,0.6-1.1
	c4.2-1.5,8.4-2.9,12.6-4.4c0.8-0.4,1,0,1.3,0.8c2.1,5,5.3,9,10.5,10.9c6.5,2.5,13.2,2.7,19.6-0.2c4.4-1.9,6.9-5.5,7.4-10.3
	c0.6-4-1.9-7.8-5.9-9.5c-3.4-1.5-7.2-2.5-10.9-3.4c-5-1.5-10.1-2.9-14.7-5.5c-7.6-4.4-11.2-11.2-11.1-20c0.2-12,7.8-21,18.1-24.4
	c5.3-1.7,11.1-2.5,16.6-2.1c6.5,0.6,12.8,2.3,18.1,6.5c3.8,3,6.7,7.1,8.8,11.4c0.4,0.8-0.2,1-0.6,1.1c-3.6,1.3-7.2,2.7-10.9,4
	c-2.3,0.8-2.3,0.8-3.4-1.3c-3-5.7-8-8.4-14.5-8.6c-3.6-0.2-7.1,0.2-10.1,2.1c-3.4,1.9-5.7,4.8-5.9,9c-0.2,3.8,1.3,6.5,4.6,8.4
	c2.9,1.7,6.1,2.5,9.3,3.4c5,1.5,10.1,2.5,14.7,4.8c5,2.3,9.1,5.5,11.6,10.7c2.3,5,2.9,10.1,1.7,15.3c-2.1,9.7-7.8,16.8-17,20.8
	c-3.6,1.5-7.6,2.5-11.4,2.7C166.6,307.1,164.7,307.3,163,307.3"/>
<path class="st0" d="M379.7,293c-0.6,0.2-0.6,0.6-0.8,1c-4.8,8.6-11.8,13.5-21.7,13.3c-8,0-14.1-3.8-17.3-11.2c-1.7-3.8-1.9-8-1-12
	c1.9-7.6,7.1-12.2,14.1-15.1c5.3-2.3,11.1-3.1,17-3.6c4.6-0.4,9.2-0.6,13.7-0.2c0.6,0,0.8,0,1-0.6c0.2-2.5,0.6-4.8-0.2-7.2
	c-1-3.2-3.2-5.1-6.1-6.1c-5.5-2.1-13.2-1.1-17.7,3.8c-1,1-1.9,2.1-2.5,3.4c-0.4,0.6-0.6,0.8-1.3,0.6c-3.6-1.1-7.2-2.3-11.1-3.4
	c-0.8-0.2-0.8-0.6-0.4-1.1c3.4-6.5,8.6-11.1,15.8-13.2c8-2.5,16-2.5,24,0c5.5,1.7,9.9,5,12.6,10.5c1.7,3.4,1.9,7.1,1.3,10.9
	c-1,6.9-2.1,13.7-3.4,20.6c-1,5.5-1.9,11.1-2.5,16.8c-0.2,1.7-0.2,3.4,0,5.1c0.2,0.8-0.2,1-1,1c-4,0-8,0-12,0c-1,0-1.1-0.2-1.1-1.1
	c-0.2-3.6,0.2-7.4,0.8-11.1C379.7,293.4,379.7,293.2,379.7,293 M353.8,287.1c0,1.3,0.2,2.5,0.8,3.8c1.7,3.8,5.5,5.3,9.9,5.1
	c4.6-0.4,8.2-2.7,11.2-5.9c4.4-4.8,6.1-10.5,7.4-16.6c0.2-0.8-0.2-0.8-0.8-0.8c-3,0.4-5.9,0.4-9,1c-4.2,0.6-8.2,1.3-12,3
	C356.6,278.7,353.8,281.9,353.8,287.1"/>
<path class="st0" d="M247.6,292.2c-1,1.5-1.7,2.7-2.5,3.8c-3,4.2-6.5,7.6-11.4,9.3c-4.8,1.7-9.7,2.1-14.7,0c-4-1.7-6.3-5-7.8-9
	c-1-2.5-1.1-5.1-0.8-7.8c0.6-5.9,1.7-11.8,2.9-17.9c0.8-4.8,1.5-9.7,2.5-14.5c0.8-4.8,1.5-9.3,2.3-14.1c0.2-0.8,0.4-1.1,1.3-1.1
	c4,0,8,0,11.8,0c1,0,1.3,0,1.1,1.1c-1,5.5-1.9,11.2-2.9,16.8c-1.1,7.2-2.5,14.7-3.6,21.9c-0.4,2.1-0.6,4.2-1,6.3
	c-0.4,3.8,2.1,6.9,5.9,7.2c3.2,0.4,6.1-0.8,8.8-2.7c5-3.2,7.6-8,9.1-13.5c1.9-7.8,3.1-15.6,4.4-23.6c0.8-4.4,1.5-8.6,2.1-13
	c0.2-0.6,0.4-0.8,1-0.8c4.2,0,8.4,0,12.6,0c0.8,0,0.8,0.4,0.8,1c-0.8,4.6-1.5,9.1-2.3,13.7c-1,5.7-1.9,11.4-2.9,17.2
	c-1.3,7.4-2.5,14.9-3.8,22.3c-0.6,3.1-1,6.3-1.5,9.3c-0.2,1-0.6,1.1-1.3,1.1c-3.6,0-7.2,0-10.9,0c-1.1,0-1.1-0.4-1-1.3
	c0.8-3.8,1.3-7.6,2.1-11.4C247.8,292.8,247.8,292.6,247.6,292.2"/>
<path class="st0" d="M288.2,240.9c2.3,0,4.4,0,6.7,0c0.8,0,1,0.2,1.1,1c1.7,8.2,3.6,16.4,5.3,24.4c1.3,5.9,2.7,12,4,17.9
	c0,0.2,0,0.4,0.4,0.6c0.4,0,0.4-0.2,0.6-0.4c5.9-12.4,11.8-24.6,17.7-37c1-1.9,1.7-3.6,2.5-5.5c0.4-0.6,0.6-1,1.3-1
	c3.4,0,7.1,0,10.5,0c0.8,0,1,0.2,0.6,1c-2.3,4.6-4.6,9.1-6.9,13.9c-5.5,11.2-11.1,22.3-16.6,33.5c-4.2,8.6-8.2,17-12.8,25.4
	c-1.7,3-3.2,6.3-5.9,8.6c-3.2,3.1-7.2,4.6-11.6,5.3c-4,0.6-8,0.6-12,0c-0.8-0.2-1.1-0.4-1.1-1.3c0.2-3.2,0.4-6.7,0.6-9.9
	c0-1.3,0-1.3,1.3-1.1c2.7,0.4,5.3,0.4,8,0.4c5.1,0,8.8-2.5,11.2-7.1c1-2.1,2.1-4.2,3.1-6.3c0.2-0.6,0.2-1,0-1.5
	c-1.5-5.9-3.1-11.8-4.6-17.7c-1.7-7.1-3.6-14.3-5.5-21.3c-1.5-5.9-3-11.8-4.6-17.9c-0.2-1-0.4-1.7-0.6-2.7c-0.2-0.8,0-1.1,0.8-1.1
	C283.6,240.9,285.9,240.9,288.2,240.9"/>
<path class="st0" d="M442.4,252.8c-1.9,0-4,0-6.1,0c-0.6,0-1,0.2-1.1,1c-1.7,10.1-3.4,20.2-5,30.3c-0.4,1.9-0.8,3.8-0.4,5.7
	c0.6,2.7,2.5,3.6,5,4.2c2.5,0.6,5.1,0.6,7.6,0c1-0.2,1.1,0,1,1c-0.6,3.1-1.1,6.3-1.5,9.3c-0.2,1-0.4,1.3-1.5,1.5
	c-4.4,0.6-9,1.1-13.3,0.4c-7.4-1.3-12.2-7.1-11.6-14.5c0.2-3.8,1-7.6,1.5-11.4c0.8-4.6,1.5-9.1,2.5-13.7c0.8-4.2,1.5-8.4,2.1-12.6
	c0.2-1.3,0.2-1.3-1-1.3c-2.5,0-5,0-7.2,0c-0.8,0-1-0.2-0.8-1c0.6-3,1.1-6.3,1.5-9.3c0.2-1.1,0.6-1.5,1.7-1.5c2.5,0.2,5,0,7.2,0
	c0.8,0,1-0.2,1.1-1c1-4.2,1.9-8.4,2.9-12.6c0.2-0.4,0.2-0.8,0.4-1.3c0.8-2.7,0.8-2.7,3.4-2.9c3-0.2,6.1-0.4,9.2-0.6c0.8,0,1,0.2,1,1
	c-1,5-1.7,9.9-2.5,14.7c0,0.6-0.2,1.1-0.4,1.5c-0.2,0.8,0.2,1,0.8,1c4,0,7.8,0,11.8,0c1,0,1.1,0.2,1,1.1c-0.6,3-1.1,6.1-1.5,9.1
	c-0.2,1.1-0.6,1.3-1.5,1.3C446.2,252.6,444.3,252.8,442.4,252.8L442.4,252.8z"/>
<path class="st0" d="M463.2,305.4c-2.1,0-4.4,0-6.5,0c-0.8,0-1-0.2-0.8-1c1.7-9.9,3.4-19.8,5-29.7c1.3-7.4,2.5-14.9,3.6-22.5
	c0.6-3.4,1.1-7.1,1.7-10.5c0-0.8,0.4-1,1.1-1c4.4,0,8.8,0,13,0c0.8,0,1,0.2,0.8,1c-1.7,10.7-3.6,21.5-5.3,32.2
	c-1.5,9.2-3,18.1-4.6,27.3c-0.2,1-0.4,1.9-0.6,2.9c0,0.8-0.4,1.1-1.3,1.1C467.4,305.4,465.3,305.4,463.2,305.4"/>
<path class="st0" d="M475.2,233.5c-2.1,0-4.4,0-6.5,0c-0.8,0-1-0.2-1-1c0.8-4.6,1.5-9.3,2.3-13.9c0.2-0.6,0.4-0.8,1-0.8
	c4.6,0,9,0,13.5,0c0.6,0,0.8,0.4,0.6,0.8c-1,4.8-1.5,9.3-2.5,14.1c-0.2,0.6-0.4,0.8-1,0.8C479.6,233.5,477.5,233.5,475.2,233.5"/>
<path class="st3" d="M49.1,389.9H45l-0.7-3.5l-0.2-0.1c-2.1,2.8-5.5,4.2-9.9,4.2c-4.5,0-7.8-1.4-9.8-4.2c-2.1-2.8-3.1-7.3-3.1-13.3
	c0-11.6,4.3-17.4,13-17.4c3.9,0,7.1,1.3,9.5,3.8l0.1-0.1l-0.1-4.5v-9.5l5.4-0.3V389.9z M43.7,382v-17.5c-0.7-1.2-1.8-2.1-3.2-2.8
	c-1.4-0.7-3-1-4.8-1c-3.3,0-5.6,1-6.9,2.9c-1.3,1.9-2,5.2-2,9.8c0,4.7,0.6,8.1,1.9,10c1.3,1.9,3.6,2.9,6.9,2.9
	c2.1,0,3.8-0.4,5.2-1.2C42.2,384.1,43.1,383.1,43.7,382z"/>
<path class="st3" d="M63.9,389.9h-5.4v-33.4l4.3-0.3l0.5,7.2h0.1c1.1-2.4,2.5-4.3,4.3-5.7c1.8-1.3,3.8-2,6.1-2
	c1.2,0,2.4,0.2,3.3,0.5l-0.3,5.4c-0.9-0.3-2-0.5-3.3-0.5c-2.7,0-5,1.1-6.8,3.2c-1.8,2.1-2.7,5-2.7,8.5V389.9z"/>
<path class="st3" d="M97.4,390.6c-5.5,0-9.5-1.5-11.9-4.4c-2.5-3-3.7-7.6-3.7-14c0-5.3,1.2-9.4,3.5-12.2c2.3-2.8,5.8-4.2,10.4-4.2
	c4.2,0,7.4,1.3,9.8,3.8c2.3,2.6,3.5,6.5,3.5,11.7c0,0.8,0,1.6-0.1,2.6H87.2c0.1,4.4,1.1,7.4,2.7,9.2c1.7,1.8,4.4,2.7,8,2.7
	c3.2,0,6.2-0.7,9.1-2.1l0.6,4.5C104.7,389.8,101.3,390.6,97.4,390.6z M87.1,370.2H104c-0.1-6.5-2.9-9.8-8.3-9.8
	c-2.8,0-4.9,0.8-6.3,2.4C88.1,364.3,87.3,366.8,87.1,370.2z"/>
<path class="st3" d="M135.7,389.9l-0.5-4.1l-0.2-0.1c-1,1.5-2.4,2.6-4.1,3.4c-1.7,0.8-3.7,1.2-5.8,1.2c-3.2,0-5.7-0.9-7.6-2.7
	c-1.8-1.8-2.8-4.5-2.8-8.1c0-3.2,1-5.7,3.1-7.5c2-1.8,5-2.7,9-2.7c2.7,0,5.3,0.4,7.7,1.3v-3.3c0-2.6-0.6-4.4-1.8-5.5
	c-1.2-1.1-3.2-1.6-6-1.6c-3.4,0-6.6,0.7-9.4,2l-0.5-4.5c3.2-1.5,6.8-2.2,10.8-2.2c4.4,0,7.5,1,9.4,2.9c1.9,2,2.8,5.2,2.8,9.6v21.7
	H135.7z M134.5,380.4v-5.8c-1.4-0.8-3.6-1.2-6.7-1.2c-5.3,0-8,2.1-8,6.3c0,4.3,2.3,6.4,6.8,6.4c2.1,0,3.9-0.6,5.5-1.7
	C133.6,383.1,134.5,381.8,134.5,380.4z"/>
<path class="st3" d="M191.9,389.9h-5.3v-22.3c0-4.6-2.3-6.9-7-6.9c-1.9,0-3.5,0.5-4.8,1.6c-1.3,1.1-1.9,2.7-1.9,4.7v22.9h-5.3V367
	c0-2.2-0.6-3.8-1.8-4.8c-1.2-1-2.8-1.6-4.8-1.6c-1.4,0-2.8,0.3-4.1,1c-1.3,0.7-2.3,1.6-3,2.7v25.5h-5.4v-33.5l3.8-0.3l1,3.6h0.2
	c2.1-2.6,5-4,8.7-4c4.5,0,7.5,1.7,9.1,5.1h0.1c1.9-3.5,5-5.2,9.5-5.2c3.3,0,6,1,8,3c2,2,3,4.9,3,8.8V389.9z"/>
<path class="st3" d="M223.6,387c0,2.3-1.2,3.5-3.5,3.5c-1.2,0-2.1-0.3-2.7-0.8c-0.5-0.5-0.8-1.4-0.8-2.7c0-2.3,1.2-3.4,3.5-3.4
	C222.4,383.6,223.6,384.7,223.6,387z"/>
<path class="st3" d="M274.7,389.9h-4.1l-0.7-3.5l-0.2-0.1c-2.1,2.8-5.5,4.2-9.9,4.2c-4.5,0-7.8-1.4-9.8-4.2
	c-2.1-2.8-3.1-7.3-3.1-13.3c0-11.6,4.3-17.4,13-17.4c3.9,0,7.1,1.3,9.5,3.8l0.1-0.1l-0.1-4.5v-9.5l5.4-0.3V389.9z M269.4,382v-17.5
	c-0.7-1.2-1.8-2.1-3.2-2.8c-1.4-0.7-3-1-4.8-1c-3.3,0-5.6,1-6.9,2.9c-1.3,1.9-2,5.2-2,9.8c0,4.7,0.7,8.1,1.9,10
	c1.3,1.9,3.6,2.9,6.9,2.9c2.1,0,3.8-0.4,5.2-1.2C267.8,384.1,268.8,383.1,269.4,382z"/>
<path class="st3" d="M303.6,389.9l-0.5-4.1l-0.2-0.1c-1,1.5-2.4,2.6-4.1,3.4c-1.7,0.8-3.7,1.2-5.8,1.2c-3.2,0-5.7-0.9-7.6-2.7
	c-1.8-1.8-2.8-4.5-2.8-8.1c0-3.2,1-5.7,3.1-7.5c2-1.8,5-2.7,9-2.7c2.7,0,5.3,0.4,7.7,1.3v-3.3c0-2.6-0.6-4.4-1.8-5.5
	c-1.2-1.1-3.2-1.6-6-1.6c-3.4,0-6.6,0.7-9.4,2l-0.5-4.5c3.2-1.5,6.8-2.2,10.8-2.2c4.4,0,7.5,1,9.4,2.9c1.9,2,2.8,5.2,2.8,9.6v21.7
	H303.6z M302.4,380.4v-5.8c-1.4-0.8-3.6-1.2-6.7-1.2c-5.3,0-8,2.1-8,6.3c0,4.3,2.3,6.4,6.8,6.4c2.1,0,3.9-0.6,5.5-1.7
	C301.6,383.1,302.4,381.8,302.4,380.4z"/>
<path class="st3" d="M321.9,389.9h-5.4v-33.4l4.3-0.3l0.5,7.2h0.1c1.1-2.4,2.5-4.3,4.3-5.7c1.8-1.3,3.8-2,6.1-2
	c1.2,0,2.4,0.2,3.3,0.5l-0.3,5.4c-0.9-0.3-2-0.5-3.3-0.5c-2.7,0-5,1.1-6.8,3.2c-1.8,2.1-2.7,5-2.7,8.5V389.9z"/>
<path class="st3" d="M355.3,390.6c-5.5,0-9.5-1.5-11.9-4.4c-2.5-3-3.7-7.6-3.7-14c0-5.3,1.2-9.4,3.5-12.2c2.3-2.8,5.8-4.2,10.4-4.2
	c4.2,0,7.4,1.3,9.8,3.8c2.3,2.6,3.5,6.5,3.5,11.7c0,0.8,0,1.6-0.1,2.6h-21.6c0.2,4.4,1.1,7.4,2.7,9.2c1.7,1.8,4.4,2.7,8,2.7
	c3.2,0,6.2-0.7,9.1-2.1l0.6,4.5C362.7,389.8,359.2,390.6,355.3,390.6z M345.1,370.2h16.9c-0.1-6.5-2.9-9.8-8.3-9.8
	c-2.8,0-4.9,0.8-6.3,2.4C346,364.3,345.3,366.8,345.1,370.2z"/>
<path class="st3" d="M397.1,387c0,2.3-1.2,3.5-3.5,3.5c-1.2,0-2.1-0.3-2.7-0.8c-0.5-0.5-0.8-1.4-0.8-2.7c0-2.3,1.2-3.4,3.5-3.4
	C395.9,383.6,397.1,384.7,397.1,387z"/>
<path class="st3" d="M448.2,389.9h-4.1l-0.7-3.5l-0.2-0.1c-2.1,2.8-5.5,4.2-9.9,4.2c-4.5,0-7.8-1.4-9.8-4.2
	c-2.1-2.8-3.1-7.3-3.1-13.3c0-11.6,4.3-17.4,13-17.4c3.9,0,7.1,1.3,9.5,3.8l0.1-0.1l-0.1-4.5v-9.5l5.4-0.3V389.9z M442.9,382v-17.5
	c-0.7-1.2-1.8-2.1-3.2-2.8c-1.4-0.7-3-1-4.8-1c-3.3,0-5.6,1-6.9,2.9c-1.3,1.9-2,5.2-2,9.8c0,4.7,0.6,8.1,1.9,10
	c1.3,1.9,3.6,2.9,6.9,2.9c2.1,0,3.8-0.4,5.2-1.2C441.3,384.1,442.3,383.1,442.9,382z"/>
<path class="st3" d="M481.5,359.8c2.3,2.7,3.4,7.2,3.4,13.4c0,6.2-1.1,10.7-3.4,13.4c-2.3,2.7-6,4.1-11,4.1c-5.1,0-8.8-1.4-11.2-4.1
	c-2.3-2.7-3.5-7.2-3.5-13.3c0-6.2,1.2-10.6,3.5-13.4c2.4-2.7,6.1-4.1,11.1-4.1S479.2,357.1,481.5,359.8z M463.4,363.2
	c-1.4,1.9-2.1,5.3-2.1,10c0,4.8,0.7,8.1,2.1,10c1.4,1.9,3.7,2.9,7.1,2.9c3.3,0,5.6-1,6.9-2.9c1.4-1.9,2-5.3,2-10c0-4.8-0.7-8.1-2-10
	c-1.4-1.9-3.7-2.9-6.9-2.9C467.1,360.3,464.7,361.2,463.4,363.2z"/>
</svg>
