<?xml version="1.0" encoding="utf-8"?>
<!-- Generator: Adobe Illustrator 21.1.0, SVG Export Plug-In . SVG Version: 6.00 Build 0)  -->
<svg version="1.1" id="Layer_1" xmlns="http://www.w3.org/2000/svg" xmlns:xlink="http://www.w3.org/1999/xlink" x="0px" y="0px"
	 viewBox="0 0 73.2 103" style="enable-background:new 0 0 73.2 103;" xml:space="preserve">
<style type="text/css">
	.st0{fill:#F2BA49;}
	.st1{fill:#FFD34D;}
</style>
<g>
	<g>
		<path class="st0" d="M26.4,58.4c-20.8-9.8-26-20.1-24-26.4c1.6-5.1,7.5-7.5,14.9-6.2l-1,5.5c-4.5-0.8-8,0.2-8.7,2.4
			C6.6,37,11.3,45.2,28.7,53.3L26.4,58.4z"/>
	</g>
	<g>
		<path class="st0" d="M46,58.4l-2.4-5C61.1,45.2,65.8,37,64.7,33.6c-0.7-2.2-4.2-3.2-8.7-2.4l-1-5.5c7.5-1.3,13.3,1.1,14.9,6.2
			C72,38.3,66.8,48.6,46,58.4z"/>
	</g>
	<rect x="33.6" y="51.3" class="st0" width="5.1" height="28.7"/>
	<path class="st1" d="M8.8,19.4L22.3,56c2.1,5.8,7.7,9.7,13.9,9.7S47.9,61.8,50,56l13.5-36.6H8.8z"/>
	<path class="st1" d="M39.2,80h-6c-5.4,0-9.9,4.4-9.9,9.9H49C49,84.4,44.6,80,39.2,80z"/>
	
		<rect x="33.6" y="78" transform="matrix(4.483240e-11 1 -1 4.483240e-11 128.4944 56.1455)" class="st0" width="5.1" height="28.7"/>
	<polygon class="st0" points="36.2,25.3 39.2,34.8 49.2,34.8 41.2,40.6 44.2,50.1 36.2,44.3 28.1,50.1 31.2,40.6 23.1,34.8 
		33.1,34.8 	"/>
	<polygon class="st0" points="18.3,64.3 18.3,61.5 16.8,61.5 16.8,64.3 14,64.3 14,65.8 16.8,65.8 16.8,68.6 18.3,68.6 18.3,65.8 
		21.1,65.8 21.1,64.3 	"/>
	<circle class="st1" cx="10.6" cy="57.5" r="1.8"/>
	<polygon class="st0" points="28.6,13.8 28.6,11.6 27.4,11.6 27.4,13.8 25.2,13.8 25.2,15 27.4,15 27.4,17.2 28.6,17.2 28.6,15 
		30.8,15 30.8,13.8 	"/>
	<circle class="st1" cx="53.2" cy="64.2" r="1.5"/>
	<circle class="st1" cx="69.6" cy="19.7" r="1.6"/>
	<circle class="st1" cx="48.3" cy="10.4" r="2.3"/>
	<circle class="st0" cx="54.1" cy="13" r="1.4"/>
</g>
</svg>
