<?xml version="1.0" encoding="utf-8"?>
<!-- Generator: Adobe Illustrator 21.1.0, SVG Export Plug-In . SVG Version: 6.00 Build 0)  -->
<svg version="1.1" id="Layer_1" xmlns="http://www.w3.org/2000/svg" xmlns:xlink="http://www.w3.org/1999/xlink" x="0px" y="0px"
	 viewBox="0 0 488.9 425.8" style="enable-background:new 0 0 488.9 425.8;" xml:space="preserve">
<style type="text/css">
	.st0{opacity:0.2;}
	.st1{fill:#171717;}
	.st2{fill:#FFFFFF;}
</style>
<g class="st0">
	<path class="st1" d="M42.7,171.1c2.7-9.1,4-17.9,4-26.5c0-8.5-1.2-15.4-3.5-20.6c-2.3-5.1-5.1-7.2-8.5-6.4
		c-5.9,1.4-11.3,13-16.1,34.2l-14-20.9c3.5-16.2,7.4-29.4,11.9-39.2c4.7-10.3,11-17.3,19.1-20.9c8.8-3.9,17-0.4,24.6,11.3
		c8.1,12.4,12.3,32.1,12.3,58.8c0,14.5-1.7,28.5-5.1,41.6c-3.3,12.8-9.1,28.4-17.2,46.2l-18.4,40.6l44.7,19v57.3L5.9,300.6v-35.1
		l24.4-60.1C35.9,191.5,40.1,180,42.7,171.1z"/>
	<path class="st1" d="M156.7,400.6c-28.8-18.7-47.5-45.8-58.7-81.5c-10.4-33.2-15.4-71.8-15.4-117.7c0-45.9,4.9-83.5,15.4-114.6
		c11.2-33.4,29.9-56.7,58.7-69.5c34.5-15.2,65.1-8.1,88.2,26.3c25.8,38.5,39.9,99.2,39.9,178.5c0,79.3-14.1,137.1-39.9,170.3
		C221.7,422.2,191.1,423,156.7,400.6z M126.1,124.3c-5.9,21.2-8.7,47.9-8.7,80.9s2.8,60.3,8.7,82.7c6.1,23.2,16,38.3,30.6,44.9
		c15.8,7.2,28.4,0.7,37-20.7c8.9-22.4,13.6-55.2,13.6-97.6s-4.6-76.2-13.6-100.4c-8.5-23.2-21.1-32.3-37-28.3
		C142.1,89.3,132.2,102.3,126.1,124.3z"/>
</g>
<g class="st0">
	<path class="st1" d="M284.8,3.9l90.1,31.7v364.9l-43.1,25.2V97.6l-47-8.2V3.9z"/>
	<path class="st1" d="M388.9,153.3V40.6l91.8,32.3v44.9l-45,247.4L401,385.3l52.1-266.3l-32.1-5.5V155L388.9,153.3z"/>
</g>
<g>
	<path class="st2" d="M307.7,0l82.5,29v350.6l-39.6,23.1v-314l-42.9-7.4V0z"/>
	<path class="st2" d="M403.1,142.1V33.6l85.8,30.2v43.6l-42.3,239.4l-32.3,18.9l48.6-256.8l-30-5.2v40L403.1,142.1z"/>
</g>
<g>
	<path class="st2" d="M36.2,159.1c2.5-8.8,3.8-17.5,3.8-25.7c0-8.3-1.1-15-3.3-20.1c-2.1-5-4.8-7.1-8-6.3
		c-5.6,1.4-10.7,12.6-15.3,33.2L0,119.8C3.3,104,7.1,91.2,11.4,81.6c4.5-10,10.4-16.8,18.2-20.2c8.3-3.7,16.1-0.2,23.3,11.2
		c7.6,12.1,11.6,31.3,11.6,57.1c0,14.1-1.6,27.6-4.8,40.3c-3.1,12.4-8.6,27.6-16.2,44.9L26,254.7l42.2,17.9v55.6L1.2,285.6v-34.3
		l23.2-58.8C29.8,179,33.8,167.8,36.2,159.1z"/>
	<path class="st2" d="M142.7,379.6c-26.7-17.3-44-43-54.5-77.4c-9.8-31.9-14.4-69.3-14.4-113.8c0-44.4,4.6-80.9,14.4-110.8
		c10.5-32.1,27.8-54.4,54.5-66.1c31.7-14,59.6-6.6,80.5,26.5c23.3,36.9,35.9,94.4,35.9,169.5c0,75.1-12.6,130-35.9,162.1
		C202.2,398.5,174.3,400.1,142.7,379.6z M114.4,114c-5.4,20.4-8.1,46.2-8.1,78s2.6,58.2,8.1,79.7c5.6,22.3,14.9,36.6,28.3,42.7
		c14.6,6.6,26.1,0.2,34-20.4c8.2-21.5,12.4-52.9,12.4-93.4s-4.2-72.8-12.4-96c-7.8-22.2-19.4-31.1-34-27.5
		C129.2,80.5,120,92.9,114.4,114z"/>
</g>
</svg>
