<?xml version="1.0" encoding="utf-8"?>
<!-- Generator: Adobe Illustrator 21.1.0, SVG Export Plug-In . SVG Version: 6.00 Build 0)  -->
<svg version="1.1" id="Layer_1" xmlns="http://www.w3.org/2000/svg" xmlns:xlink="http://www.w3.org/1999/xlink" x="0px" y="0px"
	 viewBox="0 0 488.9 425.8" style="enable-background:new 0 0 488.9 425.8;" xml:space="preserve">
<style type="text/css">
	.st0{opacity:0.2;}
	.st1{fill:#171717;}
</style>
<g class="st0">
	<path class="st1" d="M42.7,171.1c2.7-9.1,4-17.9,4-26.5c0-8.5-1.2-15.4-3.5-20.6c-2.3-5.1-5.1-7.2-8.5-6.4
		c-5.9,1.4-11.3,13-16.1,34.2l-14-20.9c3.5-16.2,7.4-29.4,11.9-39.2c4.7-10.3,11-17.3,19.1-20.9c8.8-3.9,17-0.4,24.6,11.3
		c8.1,12.4,12.3,32.1,12.3,58.8c0,14.5-1.7,28.5-5.1,41.6c-3.3,12.8-9.1,28.4-17.2,46.2l-18.4,40.6l44.7,19v57.3l-70.6-45v-35.1
		l24.4-60.1C35.9,191.5,40.1,180,42.7,171.1z"/>
	<path class="st1" d="M156.7,400.6c-28.8-18.7-47.5-45.8-58.7-81.5c-10.4-33.2-15.4-71.8-15.4-117.7S87.5,117.9,98,86.8
		c11.2-33.4,29.9-56.7,58.7-69.5c34.5-15.2,65.1-8.1,88.2,26.3c25.8,38.5,39.9,99.2,39.9,178.5s-14.1,137.1-39.9,170.3
		C221.7,422.2,191.1,423,156.7,400.6z M126.1,124.3c-5.9,21.2-8.7,47.9-8.7,80.9s2.8,60.3,8.7,82.7c6.1,23.2,16,38.3,30.6,44.9
		c15.8,7.2,28.4,0.7,37-20.7c8.9-22.4,13.6-55.2,13.6-97.6s-4.6-76.2-13.6-100.4c-8.5-23.2-21.1-32.3-37-28.3
		C142.1,89.3,132.2,102.3,126.1,124.3z"/>
</g>
<g class="st0">
	<path class="st1" d="M284.8,3.9l90.1,31.7v364.9l-43.1,25.2V97.6l-47-8.2V3.9z"/>
	<path class="st1" d="M388.9,153.3V40.6l91.8,32.3v44.9l-45,247.4L401,385.3L453.1,119l-32.1-5.5V155L388.9,153.3z"/>
</g>
</svg>
