<?xml version="1.0" encoding="utf-8"?>
<!-- Generator: Adobe Illustrator 21.1.0, SVG Export Plug-In . SVG Version: 6.00 Build 0)  -->
<svg version="1.1" id="Layer_1" xmlns="http://www.w3.org/2000/svg" xmlns:xlink="http://www.w3.org/1999/xlink" x="0px" y="0px"
	 viewBox="0 0 488.9 425.8" style="enable-background:new 0 0 488.9 425.8;" xml:space="preserve">
<style type="text/css">
	.st0{fill:#E83676;}
	.st1{fill:#EAB634;}
</style>
<g>
	<path class="st0" d="M307.7,0l82.5,29v350.6l-39.6,23.1v-314l-42.9-7.4V0z"/>
	<path class="st1" d="M403.1,142.1V33.6l85.8,30.2v43.6l-42.3,239.4l-32.3,18.9l48.6-256.8l-30-5.2v40L403.1,142.1z"/>
</g>
<g>
	<path class="st1" d="M36.2,159.1c2.5-8.8,3.8-17.5,3.8-25.7c0-8.3-1.1-15-3.3-20.1c-2.1-5-4.8-7.1-8-6.3
		c-5.6,1.4-10.7,12.6-15.3,33.2L0,119.8C3.3,104,7.1,91.2,11.4,81.6c4.5-10,10.4-16.8,18.2-20.2c8.3-3.7,16.1-0.2,23.3,11.2
		c7.6,12.1,11.6,31.3,11.6,57.1c0,14.1-1.6,27.6-4.8,40.3c-3.1,12.4-8.6,27.6-16.2,44.9L26,254.7l42.2,17.9v55.6l-67-42.6v-34.3
		l23.2-58.8C29.8,179,33.8,167.8,36.2,159.1z"/>
	<path class="st1" d="M142.7,379.6c-26.7-17.3-44-43-54.5-77.4c-9.8-31.9-14.4-69.3-14.4-113.8c0-44.4,4.6-80.9,14.4-110.8
		c10.5-32.1,27.8-54.4,54.5-66.1c31.7-14,59.6-6.6,80.5,26.5c23.3,36.9,35.9,94.4,35.9,169.5s-12.6,130-35.9,162.1
		C202.2,398.5,174.3,400.1,142.7,379.6z M114.4,114c-5.4,20.4-8.1,46.2-8.1,78s2.6,58.2,8.1,79.7c5.6,22.3,14.9,36.6,28.3,42.7
		c14.6,6.6,26.1,0.2,34-20.4c8.2-21.5,12.4-52.9,12.4-93.4s-4.2-72.8-12.4-96c-7.8-22.2-19.4-31.1-34-27.5
		C129.2,80.5,120,92.9,114.4,114z"/>
</g>
</svg>
